<?xml version="1.0" encoding="utf-8"?>
<svg version="1.1" xmlns:xlink="http://www.w3.org/1999/xlink" width="12px" height="12px" viewBox="96 511  12 12" xmlns="http://www.w3.org/2000/svg">
  <path d="M 96.5 517  A 5.5 5.5 0 0 1 102 511.5 A 5.5 5.5 0 0 1 107.5 517 A 5.5 5.5 0 0 1 102 522.5 A 5.5 5.5 0 0 1 96.5 517 Z " fill-rule="nonzero" fill="#ffffff" stroke="none" />
  <path d="M 96.5 517  A 5.5 5.5 0 0 1 102 511.5 A 5.5 5.5 0 0 1 107.5 517 A 5.5 5.5 0 0 1 102 522.5 A 5.5 5.5 0 0 1 96.5 517 Z " stroke-width="1" stroke="#d301ff" fill="none" />
  <path d="M 98.5714285714286 517  L 101.142857142857 519.571428571429  " stroke-width="2.57142857142857" stroke="#d301ff" fill="none" />
  <path d="M 101.142857142857 519.571428571429  L 105.428571428571 513.571428571429  " stroke-width="2.57142857142857" stroke="#d301ff" fill="none" />
</svg>