<?xml version="1.0" encoding="utf-8"?>
<svg version="1.1" xmlns:xlink="http://www.w3.org/1999/xlink" width="6px" height="7px" xmlns="http://www.w3.org/2000/svg">
  <g transform="matrix(1 0 0 1 -247 -200 )">
    <path d="M 5.85858585858586 5.23232323232323  C 5.95286195286195 5.34231200897867  6 5.47586980920314  6 5.63299663299663  C 6 5.79012345679012  5.95286195286195 5.92368125701459  5.85858585858586 6.03367003367003  L 5.17171717171717 6.83501683501683  C 5.07744107744108 6.94500561167228  4.96296296296296 7  4.82828282828283 7  C 4.69360269360269 7  4.57912457912458 6.94500561167228  4.48484848484849 6.83501683501683  L 3 5.1026936026936  L 1.51515151515152 6.83501683501683  C 1.42087542087542 6.94500561167228  1.30639730639731 7  1.17171717171717 7  C 1.03703703703704 7  0.922558922558923 6.94500561167228  0.828282828282828 6.83501683501683  L 0.141414141414141 6.03367003367003  C 0.0471380471380472 5.92368125701459  0 5.79012345679012  0 5.63299663299663  C 0 5.47586980920314  0.0471380471380472 5.34231200897867  0.141414141414141 5.23232323232323  L 1.62626262626263 3.5  L 0.141414141414141 1.76767676767677  C 0.0471380471380472 1.65768799102132  0 1.52413019079686  0 1.36700336700337  C 0 1.20987654320988  0.0471380471380472 1.07631874298541  0.141414141414141 0.966329966329967  L 0.828282828282828 0.164983164983165  C 0.922558922558923 0.0549943883277214  1.03703703703704 0  1.17171717171717 0  C 1.30639730639731 0  1.42087542087542 0.0549943883277214  1.51515151515152 0.164983164983165  L 3 1.8973063973064  L 4.48484848484849 0.164983164983165  C 4.57912457912458 0.0549943883277214  4.69360269360269 0  4.82828282828283 0  C 4.96296296296296 0  5.07744107744108 0.0549943883277214  5.17171717171717 0.164983164983165  L 5.85858585858586 0.966329966329967  C 5.95286195286195 1.07631874298541  6 1.20987654320988  6 1.36700336700337  C 6 1.52413019079686  5.95286195286195 1.65768799102132  5.85858585858586 1.76767676767677  L 4.37373737373737 3.5  L 5.85858585858586 5.23232323232323  Z " fill-rule="nonzero" fill="#f4d3d3" stroke="none" transform="matrix(1 0 0 1 247 200 )" />
  </g>
</svg>