<?xml version="1.0" encoding="utf-8"?>
<svg version="1.1" xmlns:xlink="http://www.w3.org/1999/xlink" width="27px" height="28px" xmlns="http://www.w3.org/2000/svg">
  <g transform="matrix(1 0 0 1 -537 -251 )">
    <path d="M 23.3602941176471 21.7377450980392  C 23.6691176470588 21.4174836601307  23.8235294117647 21.0343137254902  23.8235294117647 20.5882352941176  C 23.8235294117647 20.1307189542484  23.6691176470588 19.7418300653595  23.3602941176471 19.421568627451  L 19.9191176470588 15.8529411764706  C 19.6102941176471 15.5326797385621  19.2352941176471 15.3725490196078  18.7941176470588 15.3725490196078  C 18.3308823529412 15.3725490196078  17.9338235294118 15.5555555555556  17.6029411764706 15.921568627451  C 17.6360294117647 15.9558823529412  17.7408088235294 16.0616830065359  17.9172794117647 16.2389705882353  C 18.09375 16.4162581699346  18.2123161764706 16.5392156862745  18.2729779411765 16.6078431372549  C 18.3336397058824 16.6764705882353  18.4163602941176 16.7851307189543  18.5211397058824 16.9338235294118  C 18.6259191176471 17.0825163398693  18.6976102941176 17.2283496732026  18.7362132352941 17.3713235294118  C 18.7748161764706 17.5142973856209  18.7941176470588 17.671568627451  18.7941176470588 17.843137254902  C 18.7941176470588 18.3006535947712  18.6397058823529 18.6895424836601  18.3308823529412 19.0098039215686  C 18.0220588235294 19.3300653594771  17.6470588235294 19.4901960784314  17.2058823529412 19.4901960784314  C 17.0404411764706 19.4901960784314  16.8887867647059 19.4701797385621  16.7509191176471 19.4301470588235  C 16.6130514705882 19.390114379085  16.4724264705882 19.3157679738562  16.3290441176471 19.2071078431373  C 16.1856617647059 19.0984477124183  16.0808823529412 19.0126633986928  16.0147058823529 18.9497549019608  C 15.9485294117647 18.8868464052288  15.8299632352941 18.7638888888889  15.6590073529412 18.5808823529412  C 15.4880514705882 18.3978758169935  15.3860294117647 18.2892156862745  15.3529411764706 18.2549019607843  C 14.9889705882353 18.609477124183  14.8069852941176 19.0269607843137  14.8069852941176 19.5073529411765  C 14.8069852941176 19.9648692810458  14.9613970588235 20.3537581699346  15.2702205882353 20.6740196078431  L 18.6783088235294 24.2254901960784  C 18.9761029411765 24.5343137254902  19.3511029411765 24.6887254901961  19.8033088235294 24.6887254901961  C 20.2444852941176 24.6887254901961  20.6194852941176 24.5400326797386  20.9283088235294 24.2426470588235  L 23.3602941176471 21.7377450980392  Z M 11.6470588235294 9.74509803921569  C 12.0110294117647 9.39052287581699  12.1930147058824 8.97303921568627  12.1930147058824 8.49264705882353  C 12.1930147058824 8.03513071895425  12.0386029411765 7.64624183006536  11.7297794117647 7.32598039215686  L 8.32169117647059 3.77450980392157  C 8.01286764705882 3.45424836601307  7.63786764705882 3.29411764705882  7.19669117647059 3.29411764705882  C 6.76654411764706 3.29411764705882  6.39154411764706 3.44852941176471  6.07169117647059 3.75735294117647  L 3.63970588235294 6.26225490196078  C 3.33088235294118 6.58251633986928  3.17647058823529 6.9656862745098  3.17647058823529 7.41176470588235  C 3.17647058823529 7.86928104575163  3.33088235294118 8.25816993464052  3.63970588235294 8.57843137254902  L 7.08088235294118 12.1470588235294  C 7.37867647058824 12.4558823529412  7.75367647058824 12.6102941176471  8.20588235294118 12.6102941176471  C 8.66911764705882 12.6102941176471  9.06617647058823 12.4330065359477  9.39705882352941 12.078431372549  C 9.36397058823529 12.0441176470588  9.25919117647059 11.9383169934641  9.0827205882353 11.7610294117647  C 8.90625 11.5837418300654  8.78768382352941 11.4607843137255  8.72702205882353 11.3921568627451  C 8.66636029411765 11.3235294117647  8.58363970588235 11.2148692810458  8.47886029411765 11.0661764705882  C 8.37408088235294 10.9174836601307  8.30238970588235 10.7716503267974  8.26378676470588 10.6286764705882  C 8.22518382352941 10.4857026143791  8.20588235294118 10.328431372549  8.20588235294118 10.156862745098  C 8.20588235294118 9.69934640522876  8.36029411764706 9.31045751633987  8.66911764705882 8.99019607843137  C 8.97794117647059 8.66993464052287  9.35294117647059 8.50980392156863  9.79411764705882 8.50980392156863  C 9.95955882352941 8.50980392156863  10.1112132352941 8.52982026143791  10.2490808823529 8.56985294117647  C 10.3869485294118 8.60988562091503  10.5275735294118 8.68423202614379  10.6709558823529 8.79289215686275  C 10.8143382352941 8.9015522875817  10.9191176470588 8.98733660130719  10.9852941176471 9.05024509803922  C 11.0514705882353 9.11315359477124  11.1700367647059 9.23611111111111  11.3409926470588 9.41911764705882  C 11.5119485294118 9.60212418300653  11.6139705882353 9.71078431372549  11.6470588235294 9.74509803921569  Z M 25.6102941176471 17.0882352941176  C 26.5367647058824 18.0490196078431  27 19.2156862745098  27 20.5882352941176  C 27 21.9607843137255  26.53125 23.1217320261438  25.59375 24.0710784313725  L 23.1617647058824 26.5759803921569  C 22.2463235294118 27.5253267973856  21.1268382352941 28  19.8033088235294 28  C 18.46875 28  17.34375 27.5138888888889  16.4283088235294 26.5416666666667  L 13.0202205882353 22.9901960784314  C 12.1047794117647 22.0408496732026  11.6470588235294 20.8799019607843  11.6470588235294 19.5073529411765  C 11.6470588235294 18.1004901960784  12.1323529411765 16.9052287581699  13.1029411764706 15.921568627451  L 11.6470588235294 14.4117647058824  C 10.6985294117647 15.4183006535948  9.5514705882353 15.921568627451  8.20588235294118 15.921568627451  C 6.88235294117647 15.921568627451  5.75735294117647 15.4411764705882  4.83088235294118 14.4803921568627  L 1.38970588235294 10.9117647058824  C 0.463235294117647 9.95098039215686  0 8.7843137254902  0 7.41176470588235  C 0 6.03921568627451  0.46875 4.87826797385621  1.40625 3.92892156862745  L 3.83823529411765 1.42401960784314  C 4.75367647058824 0.474673202614377  5.87316176470588 0  7.19669117647059 0  C 8.53125 0  9.65625 0.486111111111109  10.5716911764706 1.45833333333333  L 13.9797794117647 5.00980392156863  C 14.8952205882353 5.95915032679738  15.3529411764706 7.12009803921569  15.3529411764706 8.49264705882353  C 15.3529411764706 9.89950980392157  14.8676470588235 11.0947712418301  13.8970588235294 12.078431372549  L 15.3529411764706 13.5882352941176  C 16.3014705882353 12.5816993464052  17.4485294117647 12.078431372549  18.7941176470588 12.078431372549  C 20.1176470588235 12.078431372549  21.2426470588235 12.5588235294118  22.1691176470588 13.5196078431373  L 25.6102941176471 17.0882352941176  Z " fill-rule="nonzero" fill="#a408bf" stroke="none" transform="matrix(1 0 0 1 537 251 )" />
  </g>
</svg>