<?xml version="1.0" encoding="utf-8"?>
<svg version="1.1" xmlns:xlink="http://www.w3.org/1999/xlink" width="15px" height="12px" xmlns="http://www.w3.org/2000/svg">
  <g transform="matrix(1 0 0 1 -124 -146 )">
    <path d="M 14.2988668555241 0  C 14.5963172804533 0  14.8052407932011 0.110795454545455  14.9256373937677 0.332386363636364  C 15.0460339943343 0.565340909090908  14.9964589235127 0.764204545454545  14.7769121813031 0.928977272727272  L 9.53966005665722 5.13068181818182  L 9.53966005665722 11.4545454545455  C 9.53966005665722 11.6931818181818  9.40155807365439 11.8607954545455  9.12535410764873 11.9573863636364  C 9.03328611898017 11.9857954545455  8.94475920679887 12  8.85977337110482 12  C 8.6685552407932 12  8.50920679886686 11.9460227272727  8.38172804532578 11.8380681818182  L 5.66218130311615 9.65625  C 5.52762039660057 9.54829545454545  5.46033994334278 9.42045454545454  5.46033994334278 9.27272727272727  L 5.46033994334278 5.13068181818182  L 0.223087818696884 0.928977272727272  C 0.00354107648725212 0.764204545454545  -0.0460339943342776 0.565340909090908  0.0743626062322946 0.332386363636364  C 0.194759206798867 0.110795454545455  0.403682719546742 0  0.701133144475921 0  L 14.2988668555241 0  Z " fill-rule="nonzero" fill="#f59a23" stroke="none" transform="matrix(1 0 0 1 124 146 )" />
  </g>
</svg>