<?xml version="1.0" encoding="utf-8"?>
<svg version="1.1" xmlns:xlink="http://www.w3.org/1999/xlink" width="12px" height="12px" viewBox="341 220  12 12" xmlns="http://www.w3.org/2000/svg">
  <path d="M 341.5 222  A 1.5 1.5 0 0 1 343 220.5 L 351 220.5  A 1.5 1.5 0 0 1 352.5 222 L 352.5 230  A 1.5 1.5 0 0 1 351 231.5 L 343 231.5  A 1.5 1.5 0 0 1 341.5 230 L 341.5 222  Z " fill-rule="nonzero" fill="#f0f0f0" stroke="none" />
  <path d="M 341.5 222  A 1.5 1.5 0 0 1 343 220.5 L 351 220.5  A 1.5 1.5 0 0 1 352.5 222 L 352.5 230  A 1.5 1.5 0 0 1 351 231.5 L 343 231.5  A 1.5 1.5 0 0 1 341.5 230 L 341.5 222  Z " stroke-width="1" stroke="#797979" fill="none" />
  <path d="M 343.571428571429 226  L 346.142857142857 228.571428571429  " stroke-width="2.57142857142857" stroke="#797979" fill="none" />
  <path d="M 346.142857142857 228.571428571429  L 350.428571428571 222.571428571429  " stroke-width="2.57142857142857" stroke="#797979" fill="none" />
</svg>