<?xml version="1.0" encoding="utf-8"?>
<svg version="1.1" xmlns:xlink="http://www.w3.org/1999/xlink" width="12px" height="12px" viewBox="341 193  12 12" xmlns="http://www.w3.org/2000/svg">
  <path d="M 341.5 195  A 1.5 1.5 0 0 1 343 193.5 L 351 193.5  A 1.5 1.5 0 0 1 352.5 195 L 352.5 203  A 1.5 1.5 0 0 1 351 204.5 L 343 204.5  A 1.5 1.5 0 0 1 341.5 203 L 341.5 195  Z " fill-rule="nonzero" fill="#f0f0f0" stroke="none" />
  <path d="M 341.5 195  A 1.5 1.5 0 0 1 343 193.5 L 351 193.5  A 1.5 1.5 0 0 1 352.5 195 L 352.5 203  A 1.5 1.5 0 0 1 351 204.5 L 343 204.5  A 1.5 1.5 0 0 1 341.5 203 L 341.5 195  Z " stroke-width="1" stroke="#797979" fill="none" />
</svg>