<?xml version="1.0" encoding="utf-8"?>
<svg version="1.1" xmlns:xlink="http://www.w3.org/1999/xlink" width="12px" height="11px" xmlns="http://www.w3.org/2000/svg">
  <g transform="matrix(1 0 0 1 -944 -359 )">
    <path d="M 5 8.52213541666667  C 5.13541666666667 8.52213541666667  5.25260416666667 8.47677951388889  5.3515625 8.38606770833333  L 10.1484375 3.98893229166667  C 10.2473958333333 3.89822048611111  10.296875 3.79079861111111  10.296875 3.66666666666667  C 10.296875 3.54253472222222  10.2473958333333 3.43511284722222  10.1484375 3.34440104166667  L 9.3515625 2.61393229166667  C 9.25260416666667 2.52322048611111  9.13541666666667 2.47786458333333  9 2.47786458333333  C 8.86458333333333 2.47786458333333  8.74739583333333 2.52322048611111  8.6484375 2.61393229166667  L 5 5.95833333333333  L 3.3515625 4.447265625  C 3.25260416666667 4.35655381944444  3.13541666666667 4.31119791666667  3 4.31119791666667  C 2.86458333333333 4.31119791666667  2.74739583333333 4.35655381944444  2.6484375 4.447265625  L 1.8515625 5.177734375  C 1.75260416666667 5.26844618055556  1.703125 5.37586805555556  1.703125 5.5  C 1.703125 5.62413194444444  1.75260416666667 5.73155381944444  1.8515625 5.822265625  L 4.6484375 8.38606770833333  C 4.74739583333333 8.47677951388889  4.86458333333333 8.52213541666667  5 8.52213541666667  Z M 11.33984375 0.605143229166667  C 11.7799479166667 1.00857204861111  12 1.49435763888889  12 2.0625  L 12 8.9375  C 12 9.50564236111111  11.7799479166667 9.99142795138889  11.33984375 10.3948567708333  C 10.8997395833333 10.7982855902778  10.3697916666667 11  9.75 11  L 2.25 11  C 1.63020833333333 11  1.10026041666667 10.7982855902778  0.66015625 10.3948567708333  C 0.220052083333333 9.99142795138889  0 9.50564236111111  0 8.9375  L 0 2.0625  C 0 1.49435763888889  0.220052083333333 1.00857204861111  0.66015625 0.605143229166667  C 1.10026041666667 0.201714409722222  1.63020833333333 0  2.25 0  L 9.75 0  C 10.3697916666667 0  10.8997395833333 0.201714409722222  11.33984375 0.605143229166667  Z " fill-rule="nonzero" fill="#0f930e" stroke="none" transform="matrix(1 0 0 1 944 359 )" />
  </g>
</svg>