<?xml version="1.0" encoding="utf-8"?>
<svg version="1.1" xmlns:xlink="http://www.w3.org/1999/xlink" width="12px" height="12px" viewBox="1194 354  12 12" xmlns="http://www.w3.org/2000/svg">
  <path d="M 1194.5 357  A 2.5 2.5 0 0 1 1197 354.5 L 1203 354.5  A 2.5 2.5 0 0 1 1205.5 357 L 1205.5 363  A 2.5 2.5 0 0 1 1203 365.5 L 1197 365.5  A 2.5 2.5 0 0 1 1194.5 363 L 1194.5 357  Z " fill-rule="nonzero" fill="#f0f0f0" stroke="none" />
  <path d="M 1194.5 357  A 2.5 2.5 0 0 1 1197 354.5 L 1203 354.5  A 2.5 2.5 0 0 1 1205.5 357 L 1205.5 363  A 2.5 2.5 0 0 1 1203 365.5 L 1197 365.5  A 2.5 2.5 0 0 1 1194.5 363 L 1194.5 357  Z " stroke-width="1" stroke="#797979" fill="none" />
</svg>