<?xml version="1.0" encoding="utf-8"?>
<svg version="1.1" xmlns:xlink="http://www.w3.org/1999/xlink" width="12px" height="12px" viewBox="973 297  12 12" xmlns="http://www.w3.org/2000/svg">
  <path d="M 973.5 300  A 2.5 2.5 0 0 1 976 297.5 L 982 297.5  A 2.5 2.5 0 0 1 984.5 300 L 984.5 306  A 2.5 2.5 0 0 1 982 308.5 L 976 308.5  A 2.5 2.5 0 0 1 973.5 306 L 973.5 300  Z " fill-rule="nonzero" fill="#ffffff" stroke="none" />
  <path d="M 973.5 300  A 2.5 2.5 0 0 1 976 297.5 L 982 297.5  A 2.5 2.5 0 0 1 984.5 300 L 984.5 306  A 2.5 2.5 0 0 1 982 308.5 L 976 308.5  A 2.5 2.5 0 0 1 973.5 306 L 973.5 300  Z " stroke-width="1" stroke="#797979" fill="none" />
</svg>