<?xml version="1.0" encoding="utf-8"?>
<svg version="1.1" xmlns:xlink="http://www.w3.org/1999/xlink" width="12px" height="12px" viewBox="973 297  12 12" xmlns="http://www.w3.org/2000/svg">
  <path d="M 973.5 300  A 2.5 2.5 0 0 1 976 297.5 L 982 297.5  A 2.5 2.5 0 0 1 984.5 300 L 984.5 306  A 2.5 2.5 0 0 1 982 308.5 L 976 308.5  A 2.5 2.5 0 0 1 973.5 306 L 973.5 300  Z " fill-rule="nonzero" fill="#f0f0f0" stroke="none" />
  <path d="M 973.5 300  A 2.5 2.5 0 0 1 976 297.5 L 982 297.5  A 2.5 2.5 0 0 1 984.5 300 L 984.5 306  A 2.5 2.5 0 0 1 982 308.5 L 976 308.5  A 2.5 2.5 0 0 1 973.5 306 L 973.5 300  Z " stroke-width="1" stroke="#797979" fill="none" />
  <path d="M 975.571428571429 303  L 978.142857142857 305.571428571429  " stroke-width="2.57142857142857" stroke="#797979" fill="none" />
  <path d="M 978.142857142857 305.571428571429  L 982.428571428571 299.571428571429  " stroke-width="2.57142857142857" stroke="#797979" fill="none" />
</svg>