<?xml version="1.0" encoding="utf-8"?>
<svg version="1.1" xmlns:xlink="http://www.w3.org/1999/xlink" width="12px" height="12px" viewBox="1039 297  12 12" xmlns="http://www.w3.org/2000/svg">
  <path d="M 1039.5 300  A 2.5 2.5 0 0 1 1042 297.5 L 1048 297.5  A 2.5 2.5 0 0 1 1050.5 300 L 1050.5 306  A 2.5 2.5 0 0 1 1048 308.5 L 1042 308.5  A 2.5 2.5 0 0 1 1039.5 306 L 1039.5 300  Z " fill-rule="nonzero" fill="#9d41c8" stroke="none" />
  <path d="M 1039.5 300  A 2.5 2.5 0 0 1 1042 297.5 L 1048 297.5  A 2.5 2.5 0 0 1 1050.5 300 L 1050.5 306  A 2.5 2.5 0 0 1 1048 308.5 L 1042 308.5  A 2.5 2.5 0 0 1 1039.5 306 L 1039.5 300  Z " stroke-width="1" stroke="#ffffff" fill="none" />
  <path d="M 1041.57142857143 303  L 1044.14285714286 305.571428571429  " stroke-width="2.57142857142857" stroke="#ffffff" fill="none" />
  <path d="M 1044.14285714286 305.571428571429  L 1048.42857142857 299.571428571429  " stroke-width="2.57142857142857" stroke="#ffffff" fill="none" />
</svg>