<?xml version="1.0" encoding="utf-8"?>
<svg version="1.1" xmlns:xlink="http://www.w3.org/1999/xlink" width="12px" height="12px" viewBox="824 297  12 12" xmlns="http://www.w3.org/2000/svg">
  <path d="M 824.5 300  A 2.5 2.5 0 0 1 827 297.5 L 833 297.5  A 2.5 2.5 0 0 1 835.5 300 L 835.5 306  A 2.5 2.5 0 0 1 833 308.5 L 827 308.5  A 2.5 2.5 0 0 1 824.5 306 L 824.5 300  Z " fill-rule="nonzero" fill="#f0f0f0" stroke="none" />
  <path d="M 824.5 300  A 2.5 2.5 0 0 1 827 297.5 L 833 297.5  A 2.5 2.5 0 0 1 835.5 300 L 835.5 306  A 2.5 2.5 0 0 1 833 308.5 L 827 308.5  A 2.5 2.5 0 0 1 824.5 306 L 824.5 300  Z " stroke-width="1" stroke="#797979" fill="none" />
  <path d="M 826.571428571429 303  L 829.142857142857 305.571428571429  " stroke-width="2.57142857142857" stroke="#797979" fill="none" />
  <path d="M 829.142857142857 305.571428571429  L 833.428571428571 299.571428571429  " stroke-width="2.57142857142857" stroke="#797979" fill="none" />
</svg>