<?xml version="1.0" encoding="utf-8"?>
<svg version="1.1" xmlns:xlink="http://www.w3.org/1999/xlink" width="12px" height="12px" viewBox="1168 2827  12 12" xmlns="http://www.w3.org/2000/svg">
  <path d="M 1168.5 2830  A 2.5 2.5 0 0 1 1171 2827.5 L 1177 2827.5  A 2.5 2.5 0 0 1 1179.5 2830 L 1179.5 2836  A 2.5 2.5 0 0 1 1177 2838.5 L 1171 2838.5  A 2.5 2.5 0 0 1 1168.5 2836 L 1168.5 2830  Z " fill-rule="nonzero" fill="#ffffff" stroke="none" />
  <path d="M 1168.5 2830  A 2.5 2.5 0 0 1 1171 2827.5 L 1177 2827.5  A 2.5 2.5 0 0 1 1179.5 2830 L 1179.5 2836  A 2.5 2.5 0 0 1 1177 2838.5 L 1171 2838.5  A 2.5 2.5 0 0 1 1168.5 2836 L 1168.5 2830  Z " stroke-width="1" stroke="#797979" fill="none" />
</svg>