<?xml version="1.0" encoding="utf-8"?>
<svg version="1.1" xmlns:xlink="http://www.w3.org/1999/xlink" width="12px" height="12px" viewBox="1170 3021  12 12" xmlns="http://www.w3.org/2000/svg">
  <path d="M 1170.5 3024  A 2.5 2.5 0 0 1 1173 3021.5 L 1179 3021.5  A 2.5 2.5 0 0 1 1181.5 3024 L 1181.5 3030  A 2.5 2.5 0 0 1 1179 3032.5 L 1173 3032.5  A 2.5 2.5 0 0 1 1170.5 3030 L 1170.5 3024  Z " fill-rule="nonzero" fill="#f0f0f0" stroke="none" />
  <path d="M 1170.5 3024  A 2.5 2.5 0 0 1 1173 3021.5 L 1179 3021.5  A 2.5 2.5 0 0 1 1181.5 3024 L 1181.5 3030  A 2.5 2.5 0 0 1 1179 3032.5 L 1173 3032.5  A 2.5 2.5 0 0 1 1170.5 3030 L 1170.5 3024  Z " stroke-width="1" stroke="#797979" fill="none" />
  <path d="M 1172.57142857143 3027  L 1175.14285714286 3029.57142857143  " stroke-width="2.57142857142857" stroke="#797979" fill="none" />
  <path d="M 1175.14285714286 3029.57142857143  L 1179.42857142857 3023.57142857143  " stroke-width="2.57142857142857" stroke="#797979" fill="none" />
</svg>