<?xml version="1.0" encoding="utf-8"?>
<svg version="1.1" xmlns:xlink="http://www.w3.org/1999/xlink" width="12px" height="12px" viewBox="959 2980  12 12" xmlns="http://www.w3.org/2000/svg">
  <path d="M 959.5 2983  A 2.5 2.5 0 0 1 962 2980.5 L 968 2980.5  A 2.5 2.5 0 0 1 970.5 2983 L 970.5 2989  A 2.5 2.5 0 0 1 968 2991.5 L 962 2991.5  A 2.5 2.5 0 0 1 959.5 2989 L 959.5 2983  Z " fill-rule="nonzero" fill="#ffffff" stroke="none" />
  <path d="M 959.5 2983  A 2.5 2.5 0 0 1 962 2980.5 L 968 2980.5  A 2.5 2.5 0 0 1 970.5 2983 L 970.5 2989  A 2.5 2.5 0 0 1 968 2991.5 L 962 2991.5  A 2.5 2.5 0 0 1 959.5 2989 L 959.5 2983  Z " stroke-width="1" stroke="#797979" fill="none" />
</svg>