<?xml version="1.0" encoding="utf-8"?>
<svg version="1.1" xmlns:xlink="http://www.w3.org/1999/xlink" width="12px" height="12px" viewBox="748 2980  12 12" xmlns="http://www.w3.org/2000/svg">
  <path d="M 748.5 2983  A 2.5 2.5 0 0 1 751 2980.5 L 757 2980.5  A 2.5 2.5 0 0 1 759.5 2983 L 759.5 2989  A 2.5 2.5 0 0 1 757 2991.5 L 751 2991.5  A 2.5 2.5 0 0 1 748.5 2989 L 748.5 2983  Z " fill-rule="nonzero" fill="#f0f0f0" stroke="none" />
  <path d="M 748.5 2983  A 2.5 2.5 0 0 1 751 2980.5 L 757 2980.5  A 2.5 2.5 0 0 1 759.5 2983 L 759.5 2989  A 2.5 2.5 0 0 1 757 2991.5 L 751 2991.5  A 2.5 2.5 0 0 1 748.5 2989 L 748.5 2983  Z " stroke-width="1" stroke="#797979" fill="none" />
</svg>