<?xml version="1.0" encoding="utf-8"?>
<svg version="1.1" xmlns:xlink="http://www.w3.org/1999/xlink" width="12px" height="12px" viewBox="959 3103  12 12" xmlns="http://www.w3.org/2000/svg">
  <path d="M 959.5 3106  A 2.5 2.5 0 0 1 962 3103.5 L 968 3103.5  A 2.5 2.5 0 0 1 970.5 3106 L 970.5 3112  A 2.5 2.5 0 0 1 968 3114.5 L 962 3114.5  A 2.5 2.5 0 0 1 959.5 3112 L 959.5 3106  Z " fill-rule="nonzero" fill="#9d41c8" stroke="none" />
  <path d="M 959.5 3106  A 2.5 2.5 0 0 1 962 3103.5 L 968 3103.5  A 2.5 2.5 0 0 1 970.5 3106 L 970.5 3112  A 2.5 2.5 0 0 1 968 3114.5 L 962 3114.5  A 2.5 2.5 0 0 1 959.5 3112 L 959.5 3106  Z " stroke-width="1" stroke="#ffffff" fill="none" />
  <path d="M 961.571428571429 3109  L 964.142857142857 3111.57142857143  " stroke-width="2.57142857142857" stroke="#ffffff" fill="none" />
  <path d="M 964.142857142857 3111.57142857143  L 968.428571428571 3105.57142857143  " stroke-width="2.57142857142857" stroke="#ffffff" fill="none" />
</svg>