<?xml version="1.0" encoding="utf-8"?>
<svg version="1.1" xmlns:xlink="http://www.w3.org/1999/xlink" width="12px" height="12px" viewBox="748 3021  12 12" xmlns="http://www.w3.org/2000/svg">
  <path d="M 748.5 3024  A 2.5 2.5 0 0 1 751 3021.5 L 757 3021.5  A 2.5 2.5 0 0 1 759.5 3024 L 759.5 3030  A 2.5 2.5 0 0 1 757 3032.5 L 751 3032.5  A 2.5 2.5 0 0 1 748.5 3030 L 748.5 3024  Z " fill-rule="nonzero" fill="#f0f0f0" stroke="none" />
  <path d="M 748.5 3024  A 2.5 2.5 0 0 1 751 3021.5 L 757 3021.5  A 2.5 2.5 0 0 1 759.5 3024 L 759.5 3030  A 2.5 2.5 0 0 1 757 3032.5 L 751 3032.5  A 2.5 2.5 0 0 1 748.5 3030 L 748.5 3024  Z " stroke-width="1" stroke="#797979" fill="none" />
</svg>