<?xml version="1.0" encoding="utf-8"?>
<svg version="1.1" xmlns:xlink="http://www.w3.org/1999/xlink" width="12px" height="12px" viewBox="748 3062  12 12" xmlns="http://www.w3.org/2000/svg">
  <path d="M 748.5 3065  A 2.5 2.5 0 0 1 751 3062.5 L 757 3062.5  A 2.5 2.5 0 0 1 759.5 3065 L 759.5 3071  A 2.5 2.5 0 0 1 757 3073.5 L 751 3073.5  A 2.5 2.5 0 0 1 748.5 3071 L 748.5 3065  Z " fill-rule="nonzero" fill="#9d41c8" stroke="none" />
  <path d="M 748.5 3065  A 2.5 2.5 0 0 1 751 3062.5 L 757 3062.5  A 2.5 2.5 0 0 1 759.5 3065 L 759.5 3071  A 2.5 2.5 0 0 1 757 3073.5 L 751 3073.5  A 2.5 2.5 0 0 1 748.5 3071 L 748.5 3065  Z " stroke-width="1" stroke="#ffffff" fill="none" />
  <path d="M 750.571428571429 3068  L 753.142857142857 3070.57142857143  " stroke-width="2.57142857142857" stroke="#ffffff" fill="none" />
  <path d="M 753.142857142857 3070.57142857143  L 757.428571428571 3064.57142857143  " stroke-width="2.57142857142857" stroke="#ffffff" fill="none" />
</svg>