<?xml version="1.0" encoding="utf-8"?>
<svg version="1.1" xmlns:xlink="http://www.w3.org/1999/xlink" width="12px" height="12px" viewBox="537 3062  12 12" xmlns="http://www.w3.org/2000/svg">
  <path d="M 537.5 3065  A 2.5 2.5 0 0 1 540 3062.5 L 546 3062.5  A 2.5 2.5 0 0 1 548.5 3065 L 548.5 3071  A 2.5 2.5 0 0 1 546 3073.5 L 540 3073.5  A 2.5 2.5 0 0 1 537.5 3071 L 537.5 3065  Z " fill-rule="nonzero" fill="#ffffff" stroke="none" />
  <path d="M 537.5 3065  A 2.5 2.5 0 0 1 540 3062.5 L 546 3062.5  A 2.5 2.5 0 0 1 548.5 3065 L 548.5 3071  A 2.5 2.5 0 0 1 546 3073.5 L 540 3073.5  A 2.5 2.5 0 0 1 537.5 3071 L 537.5 3065  Z " stroke-width="1" stroke="#797979" fill="none" />
</svg>