<?xml version="1.0" encoding="utf-8"?>
<svg version="1.1" xmlns:xlink="http://www.w3.org/1999/xlink" width="12px" height="12px" viewBox="1180 3373  12 12" xmlns="http://www.w3.org/2000/svg">
  <path d="M 1180.5 3376  A 2.5 2.5 0 0 1 1183 3373.5 L 1189 3373.5  A 2.5 2.5 0 0 1 1191.5 3376 L 1191.5 3382  A 2.5 2.5 0 0 1 1189 3384.5 L 1183 3384.5  A 2.5 2.5 0 0 1 1180.5 3382 L 1180.5 3376  Z " fill-rule="nonzero" fill="#9d41c8" stroke="none" />
  <path d="M 1180.5 3376  A 2.5 2.5 0 0 1 1183 3373.5 L 1189 3373.5  A 2.5 2.5 0 0 1 1191.5 3376 L 1191.5 3382  A 2.5 2.5 0 0 1 1189 3384.5 L 1183 3384.5  A 2.5 2.5 0 0 1 1180.5 3382 L 1180.5 3376  Z " stroke-width="1" stroke="#ffffff" fill="none" />
  <path d="M 1182.57142857143 3379  L 1185.14285714286 3381.57142857143  " stroke-width="2.57142857142857" stroke="#ffffff" fill="none" />
  <path d="M 1185.14285714286 3381.57142857143  L 1189.42857142857 3375.57142857143  " stroke-width="2.57142857142857" stroke="#ffffff" fill="none" />
</svg>