<?xml version="1.0" encoding="utf-8"?>
<svg version="1.1" xmlns:xlink="http://www.w3.org/1999/xlink" width="12px" height="12px" viewBox="1180 3346  12 12" xmlns="http://www.w3.org/2000/svg">
  <path d="M 1180.5 3349  A 2.5 2.5 0 0 1 1183 3346.5 L 1189 3346.5  A 2.5 2.5 0 0 1 1191.5 3349 L 1191.5 3355  A 2.5 2.5 0 0 1 1189 3357.5 L 1183 3357.5  A 2.5 2.5 0 0 1 1180.5 3355 L 1180.5 3349  Z " fill-rule="nonzero" fill="#f0f0f0" stroke="none" />
  <path d="M 1180.5 3349  A 2.5 2.5 0 0 1 1183 3346.5 L 1189 3346.5  A 2.5 2.5 0 0 1 1191.5 3349 L 1191.5 3355  A 2.5 2.5 0 0 1 1189 3357.5 L 1183 3357.5  A 2.5 2.5 0 0 1 1180.5 3355 L 1180.5 3349  Z " stroke-width="1" stroke="#797979" fill="none" />
  <path d="M 1182.57142857143 3352  L 1185.14285714286 3354.57142857143  " stroke-width="2.57142857142857" stroke="#797979" fill="none" />
  <path d="M 1185.14285714286 3354.57142857143  L 1189.42857142857 3348.57142857143  " stroke-width="2.57142857142857" stroke="#797979" fill="none" />
</svg>