<?xml version="1.0" encoding="utf-8"?>
<svg version="1.1" xmlns:xlink="http://www.w3.org/1999/xlink" width="12px" height="12px" viewBox="1161 3724  12 12" xmlns="http://www.w3.org/2000/svg">
  <path d="M 1161.5 3727  A 2.5 2.5 0 0 1 1164 3724.5 L 1170 3724.5  A 2.5 2.5 0 0 1 1172.5 3727 L 1172.5 3733  A 2.5 2.5 0 0 1 1170 3735.5 L 1164 3735.5  A 2.5 2.5 0 0 1 1161.5 3733 L 1161.5 3727  Z " fill-rule="nonzero" fill="#ffffff" stroke="none" />
  <path d="M 1161.5 3727  A 2.5 2.5 0 0 1 1164 3724.5 L 1170 3724.5  A 2.5 2.5 0 0 1 1172.5 3727 L 1172.5 3733  A 2.5 2.5 0 0 1 1170 3735.5 L 1164 3735.5  A 2.5 2.5 0 0 1 1161.5 3733 L 1161.5 3727  Z " stroke-width="1" stroke="#797979" fill="none" />
</svg>