<?xml version="1.0" encoding="utf-8"?>
<svg version="1.1" xmlns:xlink="http://www.w3.org/1999/xlink" width="12px" height="12px" viewBox="1077 3723  12 12" xmlns="http://www.w3.org/2000/svg">
  <path d="M 1077.5 3726  A 2.5 2.5 0 0 1 1080 3723.5 L 1086 3723.5  A 2.5 2.5 0 0 1 1088.5 3726 L 1088.5 3732  A 2.5 2.5 0 0 1 1086 3734.5 L 1080 3734.5  A 2.5 2.5 0 0 1 1077.5 3732 L 1077.5 3726  Z " fill-rule="nonzero" fill="#f0f0f0" stroke="none" />
  <path d="M 1077.5 3726  A 2.5 2.5 0 0 1 1080 3723.5 L 1086 3723.5  A 2.5 2.5 0 0 1 1088.5 3726 L 1088.5 3732  A 2.5 2.5 0 0 1 1086 3734.5 L 1080 3734.5  A 2.5 2.5 0 0 1 1077.5 3732 L 1077.5 3726  Z " stroke-width="1" stroke="#797979" fill="none" />
  <path d="M 1079.57142857143 3729  L 1082.14285714286 3731.57142857143  " stroke-width="2.57142857142857" stroke="#797979" fill="none" />
  <path d="M 1082.14285714286 3731.57142857143  L 1086.42857142857 3725.57142857143  " stroke-width="2.57142857142857" stroke="#797979" fill="none" />
</svg>