<?xml version="1.0" encoding="utf-8"?>
<svg version="1.1" xmlns:xlink="http://www.w3.org/1999/xlink" width="31px" height="14px" xmlns="http://www.w3.org/2000/svg">
  <g transform="matrix(1 0 0 1 -861 -3348 )">
    <path d="M 0.77197265625 9.71796875  C 0.25732421875 8.85390625  0 7.94791666666667  0 7  C 0 6.05208333333333  0.25732421875 5.14609375  0.77197265625 4.28203125  C 1.28662109375 3.41796875  1.975341796875 2.67421875  2.838134765625 2.05078125  C 3.700927734375 1.42734375  4.730224609375 0.9296875  5.926025390625 0.557812499999999  C 7.121826171875 0.1859375  8.37565104166667 0  9.6875 0  L 21.3125 0  C 22.6243489583333 0  23.878173828125 0.1859375  25.073974609375 0.557812499999999  C 26.269775390625 0.9296875  27.299072265625 1.42734375  28.161865234375 2.05078125  C 29.024658203125 2.67421875  29.71337890625 3.41796875  30.22802734375 4.28203125  C 30.74267578125 5.14609375  31 6.05208333333333  31 7  C 31 7.94791666666667  30.74267578125 8.85390625  30.22802734375 9.71796875  C 29.71337890625 10.58203125  29.024658203125 11.32578125  28.161865234375 11.94921875  C 27.299072265625 12.57265625  26.269775390625 13.0703125  25.073974609375 13.4421875  C 23.878173828125 13.8140625  22.6243489583333 14  21.3125 14  L 9.6875 14  C 8.37565104166667 14  7.121826171875 13.8140625  5.926025390625 13.4421875  C 4.730224609375 13.0703125  3.700927734375 12.57265625  2.838134765625 11.94921875  C 1.975341796875 11.32578125  1.28662109375 10.58203125  0.77197265625 9.71796875  Z M 18.307861328125 12.15703125  C 19.261474609375 12.45234375  20.2630208333333 12.6  21.3125 12.6  C 22.3619791666667 12.6  23.363525390625 12.45234375  24.317138671875 12.15703125  C 25.270751953125 11.86171875  26.095703125 11.4625  26.7919921875 10.959375  C 27.48828125 10.45625  28.040771484375 9.86015625  28.449462890625 9.17109375  C 28.858154296875 8.48203125  29.0625 7.75833333333333  29.0625 7  C 29.0625 6.24166666666667  28.858154296875 5.51796875  28.449462890625 4.82890625  C 28.040771484375 4.13984375  27.48828125 3.54375  26.7919921875 3.040625  C 26.095703125 2.5375  25.270751953125 2.13828125  24.317138671875 1.84296875  C 23.363525390625 1.54765625  22.3619791666667 1.4  21.3125 1.4  C 20.2630208333333 1.4  19.261474609375 1.54765625  18.307861328125 1.84296875  C 17.354248046875 2.13828125  16.529296875 2.5375  15.8330078125 3.040625  C 15.13671875 3.54375  14.584228515625 4.13984375  14.175537109375 4.82890625  C 13.766845703125 5.51796875  13.5625 6.24166666666667  13.5625 7  C 13.5625 7.75833333333333  13.766845703125 8.48203125  14.175537109375 9.17109375  C 14.584228515625 9.86015625  15.13671875 10.45625  15.8330078125 10.959375  C 16.529296875 11.4625  17.354248046875 11.86171875  18.307861328125 12.15703125  Z " fill-rule="nonzero" fill="#8c8c8c" stroke="none" transform="matrix(1 0 0 1 861 3348 )" />
  </g>
</svg>