<?xml version="1.0" encoding="utf-8"?>
<svg version="1.1" xmlns:xlink="http://www.w3.org/1999/xlink" width="12px" height="12px" viewBox="965 2901  12 12" xmlns="http://www.w3.org/2000/svg">
  <path d="M 965.5 2904  A 2.5 2.5 0 0 1 968 2901.5 L 974 2901.5  A 2.5 2.5 0 0 1 976.5 2904 L 976.5 2910  A 2.5 2.5 0 0 1 974 2912.5 L 968 2912.5  A 2.5 2.5 0 0 1 965.5 2910 L 965.5 2904  Z " fill-rule="nonzero" fill="#9d41c8" stroke="none" />
  <path d="M 965.5 2904  A 2.5 2.5 0 0 1 968 2901.5 L 974 2901.5  A 2.5 2.5 0 0 1 976.5 2904 L 976.5 2910  A 2.5 2.5 0 0 1 974 2912.5 L 968 2912.5  A 2.5 2.5 0 0 1 965.5 2910 L 965.5 2904  Z " stroke-width="1" stroke="#ffffff" fill="none" />
  <path d="M 967.571428571429 2907  L 970.142857142857 2909.57142857143  " stroke-width="2.57142857142857" stroke="#ffffff" fill="none" />
  <path d="M 970.142857142857 2909.57142857143  L 974.428571428571 2903.57142857143  " stroke-width="2.57142857142857" stroke="#ffffff" fill="none" />
</svg>