<?xml version="1.0" encoding="utf-8"?>
<svg version="1.1" xmlns:xlink="http://www.w3.org/1999/xlink" width="12px" height="12px" viewBox="965 2901  12 12" xmlns="http://www.w3.org/2000/svg">
  <path d="M 965.5 2904  A 2.5 2.5 0 0 1 968 2901.5 L 974 2901.5  A 2.5 2.5 0 0 1 976.5 2904 L 976.5 2910  A 2.5 2.5 0 0 1 974 2912.5 L 968 2912.5  A 2.5 2.5 0 0 1 965.5 2910 L 965.5 2904  Z " fill-rule="nonzero" fill="#ffffff" stroke="none" />
  <path d="M 965.5 2904  A 2.5 2.5 0 0 1 968 2901.5 L 974 2901.5  A 2.5 2.5 0 0 1 976.5 2904 L 976.5 2910  A 2.5 2.5 0 0 1 974 2912.5 L 968 2912.5  A 2.5 2.5 0 0 1 965.5 2910 L 965.5 2904  Z " stroke-width="1" stroke="#6300bf" fill="none" />
</svg>