<?xml version="1.0" encoding="utf-8"?>
<svg version="1.1" xmlns:xlink="http://www.w3.org/1999/xlink" width="12px" height="12px" viewBox="834 3722  12 12" xmlns="http://www.w3.org/2000/svg">
  <path d="M 834.5 3725  A 2.5 2.5 0 0 1 837 3722.5 L 843 3722.5  A 2.5 2.5 0 0 1 845.5 3725 L 845.5 3731  A 2.5 2.5 0 0 1 843 3733.5 L 837 3733.5  A 2.5 2.5 0 0 1 834.5 3731 L 834.5 3725  Z " fill-rule="nonzero" fill="#f0f0f0" stroke="none" />
  <path d="M 834.5 3725  A 2.5 2.5 0 0 1 837 3722.5 L 843 3722.5  A 2.5 2.5 0 0 1 845.5 3725 L 845.5 3731  A 2.5 2.5 0 0 1 843 3733.5 L 837 3733.5  A 2.5 2.5 0 0 1 834.5 3731 L 834.5 3725  Z " stroke-width="1" stroke="#797979" fill="none" />
  <path d="M 836.571428571429 3728  L 839.142857142857 3730.57142857143  " stroke-width="2.57142857142857" stroke="#797979" fill="none" />
  <path d="M 839.142857142857 3730.57142857143  L 843.428571428571 3724.57142857143  " stroke-width="2.57142857142857" stroke="#797979" fill="none" />
</svg>