<?xml version="1.0" encoding="utf-8"?>
<svg version="1.1" xmlns:xlink="http://www.w3.org/1999/xlink" width="12px" height="12px" viewBox="656 312  12 12" xmlns="http://www.w3.org/2000/svg">
  <path d="M 656.5 315  A 2.5 2.5 0 0 1 659 312.5 L 665 312.5  A 2.5 2.5 0 0 1 667.5 315 L 667.5 321  A 2.5 2.5 0 0 1 665 323.5 L 659 323.5  A 2.5 2.5 0 0 1 656.5 321 L 656.5 315  Z " fill-rule="nonzero" fill="#f0f0f0" stroke="none" />
  <path d="M 656.5 315  A 2.5 2.5 0 0 1 659 312.5 L 665 312.5  A 2.5 2.5 0 0 1 667.5 315 L 667.5 321  A 2.5 2.5 0 0 1 665 323.5 L 659 323.5  A 2.5 2.5 0 0 1 656.5 321 L 656.5 315  Z " stroke-width="1" stroke="#797979" fill="none" />
  <path d="M 658.571428571429 318  L 661.142857142857 320.571428571429  " stroke-width="2.57142857142857" stroke="#797979" fill="none" />
  <path d="M 661.142857142857 320.571428571429  L 665.428571428571 314.571428571429  " stroke-width="2.57142857142857" stroke="#797979" fill="none" />
</svg>