<?xml version="1.0" encoding="utf-8"?>
<svg version="1.1" xmlns:xlink="http://www.w3.org/1999/xlink" width="12px" height="12px" viewBox="656 352  12 12" xmlns="http://www.w3.org/2000/svg">
  <path d="M 656.5 355  A 2.5 2.5 0 0 1 659 352.5 L 665 352.5  A 2.5 2.5 0 0 1 667.5 355 L 667.5 361  A 2.5 2.5 0 0 1 665 363.5 L 659 363.5  A 2.5 2.5 0 0 1 656.5 361 L 656.5 355  Z " fill-rule="nonzero" fill="#9d41c8" stroke="none" />
  <path d="M 656.5 355  A 2.5 2.5 0 0 1 659 352.5 L 665 352.5  A 2.5 2.5 0 0 1 667.5 355 L 667.5 361  A 2.5 2.5 0 0 1 665 363.5 L 659 363.5  A 2.5 2.5 0 0 1 656.5 361 L 656.5 355  Z " stroke-width="1" stroke="#ffffff" fill="none" />
  <path d="M 658.571428571429 358  L 661.142857142857 360.571428571429  " stroke-width="2.57142857142857" stroke="#ffffff" fill="none" />
  <path d="M 661.142857142857 360.571428571429  L 665.428571428571 354.571428571429  " stroke-width="2.57142857142857" stroke="#ffffff" fill="none" />
</svg>