<?xml version="1.0" encoding="utf-8"?>
<svg version="1.1" xmlns:xlink="http://www.w3.org/1999/xlink" width="12px" height="12px" viewBox="445 293  12 12" xmlns="http://www.w3.org/2000/svg">
  <path d="M 445.5 296  A 2.5 2.5 0 0 1 448 293.5 L 454 293.5  A 2.5 2.5 0 0 1 456.5 296 L 456.5 302  A 2.5 2.5 0 0 1 454 304.5 L 448 304.5  A 2.5 2.5 0 0 1 445.5 302 L 445.5 296  Z " fill-rule="nonzero" fill="#9d41c8" stroke="none" />
  <path d="M 445.5 296  A 2.5 2.5 0 0 1 448 293.5 L 454 293.5  A 2.5 2.5 0 0 1 456.5 296 L 456.5 302  A 2.5 2.5 0 0 1 454 304.5 L 448 304.5  A 2.5 2.5 0 0 1 445.5 302 L 445.5 296  Z " stroke-width="1" stroke="#ffffff" fill="none" />
  <path d="M 447.571428571429 299  L 450.142857142857 301.571428571429  " stroke-width="2.57142857142857" stroke="#ffffff" fill="none" />
  <path d="M 450.142857142857 301.571428571429  L 454.428571428571 295.571428571429  " stroke-width="2.57142857142857" stroke="#ffffff" fill="none" />
</svg>