<?xml version="1.0" encoding="utf-8"?>
<svg version="1.1" xmlns:xlink="http://www.w3.org/1999/xlink" width="12px" height="12px" viewBox="445 314  12 12" xmlns="http://www.w3.org/2000/svg">
  <path d="M 445.5 317  A 2.5 2.5 0 0 1 448 314.5 L 454 314.5  A 2.5 2.5 0 0 1 456.5 317 L 456.5 323  A 2.5 2.5 0 0 1 454 325.5 L 448 325.5  A 2.5 2.5 0 0 1 445.5 323 L 445.5 317  Z " fill-rule="nonzero" fill="#9d41c8" stroke="none" />
  <path d="M 445.5 317  A 2.5 2.5 0 0 1 448 314.5 L 454 314.5  A 2.5 2.5 0 0 1 456.5 317 L 456.5 323  A 2.5 2.5 0 0 1 454 325.5 L 448 325.5  A 2.5 2.5 0 0 1 445.5 323 L 445.5 317  Z " stroke-width="1" stroke="#ffffff" fill="none" />
  <path d="M 447.571428571429 320  L 450.142857142857 322.571428571429  " stroke-width="2.57142857142857" stroke="#ffffff" fill="none" />
  <path d="M 450.142857142857 322.571428571429  L 454.428571428571 316.571428571429  " stroke-width="2.57142857142857" stroke="#ffffff" fill="none" />
</svg>