<?xml version="1.0" encoding="utf-8"?>
<svg version="1.1" xmlns:xlink="http://www.w3.org/1999/xlink" width="12px" height="12px" viewBox="445 334  12 12" xmlns="http://www.w3.org/2000/svg">
  <path d="M 445.5 337  A 2.5 2.5 0 0 1 448 334.5 L 454 334.5  A 2.5 2.5 0 0 1 456.5 337 L 456.5 343  A 2.5 2.5 0 0 1 454 345.5 L 448 345.5  A 2.5 2.5 0 0 1 445.5 343 L 445.5 337  Z " fill-rule="nonzero" fill="#f0f0f0" stroke="none" />
  <path d="M 445.5 337  A 2.5 2.5 0 0 1 448 334.5 L 454 334.5  A 2.5 2.5 0 0 1 456.5 337 L 456.5 343  A 2.5 2.5 0 0 1 454 345.5 L 448 345.5  A 2.5 2.5 0 0 1 445.5 343 L 445.5 337  Z " stroke-width="1" stroke="#797979" fill="none" />
  <path d="M 447.571428571429 340  L 450.142857142857 342.571428571429  " stroke-width="2.57142857142857" stroke="#797979" fill="none" />
  <path d="M 450.142857142857 342.571428571429  L 454.428571428571 336.571428571429  " stroke-width="2.57142857142857" stroke="#797979" fill="none" />
</svg>