<?xml version="1.0" encoding="utf-8"?>
<svg version="1.1" xmlns:xlink="http://www.w3.org/1999/xlink" width="12px" height="12px" viewBox="445 353  12 12" xmlns="http://www.w3.org/2000/svg">
  <path d="M 445.5 356  A 2.5 2.5 0 0 1 448 353.5 L 454 353.5  A 2.5 2.5 0 0 1 456.5 356 L 456.5 362  A 2.5 2.5 0 0 1 454 364.5 L 448 364.5  A 2.5 2.5 0 0 1 445.5 362 L 445.5 356  Z " fill-rule="nonzero" fill="#ffffff" stroke="none" />
  <path d="M 445.5 356  A 2.5 2.5 0 0 1 448 353.5 L 454 353.5  A 2.5 2.5 0 0 1 456.5 356 L 456.5 362  A 2.5 2.5 0 0 1 454 364.5 L 448 364.5  A 2.5 2.5 0 0 1 445.5 362 L 445.5 356  Z " stroke-width="1" stroke="#797979" fill="none" />
</svg>