<?xml version="1.0" encoding="utf-8"?>
<svg version="1.1" xmlns:xlink="http://www.w3.org/1999/xlink" width="12px" height="12px" viewBox="654 833  12 12" xmlns="http://www.w3.org/2000/svg">
  <path d="M 654.5 836  A 2.5 2.5 0 0 1 657 833.5 L 663 833.5  A 2.5 2.5 0 0 1 665.5 836 L 665.5 842  A 2.5 2.5 0 0 1 663 844.5 L 657 844.5  A 2.5 2.5 0 0 1 654.5 842 L 654.5 836  Z " fill-rule="nonzero" fill="#f0f0f0" stroke="none" />
  <path d="M 654.5 836  A 2.5 2.5 0 0 1 657 833.5 L 663 833.5  A 2.5 2.5 0 0 1 665.5 836 L 665.5 842  A 2.5 2.5 0 0 1 663 844.5 L 657 844.5  A 2.5 2.5 0 0 1 654.5 842 L 654.5 836  Z " stroke-width="1" stroke="#797979" fill="none" />
  <path d="M 656.571428571429 839  L 659.142857142857 841.571428571429  " stroke-width="2.57142857142857" stroke="#797979" fill="none" />
  <path d="M 659.142857142857 841.571428571429  L 663.428571428571 835.571428571429  " stroke-width="2.57142857142857" stroke="#797979" fill="none" />
</svg>