<?xml version="1.0" encoding="utf-8"?>
<svg version="1.1" xmlns:xlink="http://www.w3.org/1999/xlink" width="12px" height="12px" viewBox="445 852  12 12" xmlns="http://www.w3.org/2000/svg">
  <path d="M 445.5 855  A 2.5 2.5 0 0 1 448 852.5 L 454 852.5  A 2.5 2.5 0 0 1 456.5 855 L 456.5 861  A 2.5 2.5 0 0 1 454 863.5 L 448 863.5  A 2.5 2.5 0 0 1 445.5 861 L 445.5 855  Z " fill-rule="nonzero" fill="#9d41c8" stroke="none" />
  <path d="M 445.5 855  A 2.5 2.5 0 0 1 448 852.5 L 454 852.5  A 2.5 2.5 0 0 1 456.5 855 L 456.5 861  A 2.5 2.5 0 0 1 454 863.5 L 448 863.5  A 2.5 2.5 0 0 1 445.5 861 L 445.5 855  Z " stroke-width="1" stroke="#ffffff" fill="none" />
  <path d="M 447.571428571429 858  L 450.142857142857 860.571428571429  " stroke-width="2.57142857142857" stroke="#ffffff" fill="none" />
  <path d="M 450.142857142857 860.571428571429  L 454.428571428571 854.571428571429  " stroke-width="2.57142857142857" stroke="#ffffff" fill="none" />
</svg>