<?xml version="1.0" encoding="utf-8"?>
<svg version="1.1" xmlns:xlink="http://www.w3.org/1999/xlink" width="12px" height="12px" viewBox="654 872  12 12" xmlns="http://www.w3.org/2000/svg">
  <path d="M 654.5 875  A 2.5 2.5 0 0 1 657 872.5 L 663 872.5  A 2.5 2.5 0 0 1 665.5 875 L 665.5 881  A 2.5 2.5 0 0 1 663 883.5 L 657 883.5  A 2.5 2.5 0 0 1 654.5 881 L 654.5 875  Z " fill-rule="nonzero" fill="#f0f0f0" stroke="none" />
  <path d="M 654.5 875  A 2.5 2.5 0 0 1 657 872.5 L 663 872.5  A 2.5 2.5 0 0 1 665.5 875 L 665.5 881  A 2.5 2.5 0 0 1 663 883.5 L 657 883.5  A 2.5 2.5 0 0 1 654.5 881 L 654.5 875  Z " stroke-width="1" stroke="#797979" fill="none" />
  <path d="M 656.571428571429 878  L 659.142857142857 880.571428571429  " stroke-width="2.57142857142857" stroke="#797979" fill="none" />
  <path d="M 659.142857142857 880.571428571429  L 663.428571428571 874.571428571429  " stroke-width="2.57142857142857" stroke="#797979" fill="none" />
</svg>