<?xml version="1.0" encoding="utf-8"?>
<svg version="1.1" xmlns:xlink="http://www.w3.org/1999/xlink" width="12px" height="12px" viewBox="445 872  12 12" xmlns="http://www.w3.org/2000/svg">
  <path d="M 445.5 875  A 2.5 2.5 0 0 1 448 872.5 L 454 872.5  A 2.5 2.5 0 0 1 456.5 875 L 456.5 881  A 2.5 2.5 0 0 1 454 883.5 L 448 883.5  A 2.5 2.5 0 0 1 445.5 881 L 445.5 875  Z " fill-rule="nonzero" fill="#9d41c8" stroke="none" />
  <path d="M 445.5 875  A 2.5 2.5 0 0 1 448 872.5 L 454 872.5  A 2.5 2.5 0 0 1 456.5 875 L 456.5 881  A 2.5 2.5 0 0 1 454 883.5 L 448 883.5  A 2.5 2.5 0 0 1 445.5 881 L 445.5 875  Z " stroke-width="1" stroke="#ffffff" fill="none" />
  <path d="M 447.571428571429 878  L 450.142857142857 880.571428571429  " stroke-width="2.57142857142857" stroke="#ffffff" fill="none" />
  <path d="M 450.142857142857 880.571428571429  L 454.428571428571 874.571428571429  " stroke-width="2.57142857142857" stroke="#ffffff" fill="none" />
</svg>