<?xml version="1.0" encoding="utf-8"?>
<svg version="1.1" xmlns:xlink="http://www.w3.org/1999/xlink" width="12px" height="12px" viewBox="654 893  12 12" xmlns="http://www.w3.org/2000/svg">
  <path d="M 654.5 896  A 2.5 2.5 0 0 1 657 893.5 L 663 893.5  A 2.5 2.5 0 0 1 665.5 896 L 665.5 902  A 2.5 2.5 0 0 1 663 904.5 L 657 904.5  A 2.5 2.5 0 0 1 654.5 902 L 654.5 896  Z " fill-rule="nonzero" fill="#ffffff" stroke="none" />
  <path d="M 654.5 896  A 2.5 2.5 0 0 1 657 893.5 L 663 893.5  A 2.5 2.5 0 0 1 665.5 896 L 665.5 902  A 2.5 2.5 0 0 1 663 904.5 L 657 904.5  A 2.5 2.5 0 0 1 654.5 902 L 654.5 896  Z " stroke-width="1" stroke="#797979" fill="none" />
</svg>