<?xml version="1.0" encoding="utf-8"?>
<svg version="1.1" xmlns:xlink="http://www.w3.org/1999/xlink" width="12px" height="12px" viewBox="654 852  12 12" xmlns="http://www.w3.org/2000/svg">
  <path d="M 654.5 855  A 2.5 2.5 0 0 1 657 852.5 L 663 852.5  A 2.5 2.5 0 0 1 665.5 855 L 665.5 861  A 2.5 2.5 0 0 1 663 863.5 L 657 863.5  A 2.5 2.5 0 0 1 654.5 861 L 654.5 855  Z " fill-rule="nonzero" fill="#9d41c8" stroke="none" />
  <path d="M 654.5 855  A 2.5 2.5 0 0 1 657 852.5 L 663 852.5  A 2.5 2.5 0 0 1 665.5 855 L 665.5 861  A 2.5 2.5 0 0 1 663 863.5 L 657 863.5  A 2.5 2.5 0 0 1 654.5 861 L 654.5 855  Z " stroke-width="1" stroke="#ffffff" fill="none" />
  <path d="M 656.571428571429 858  L 659.142857142857 860.571428571429  " stroke-width="2.57142857142857" stroke="#ffffff" fill="none" />
  <path d="M 659.142857142857 860.571428571429  L 663.428571428571 854.571428571429  " stroke-width="2.57142857142857" stroke="#ffffff" fill="none" />
</svg>