<?xml version="1.0" encoding="utf-8"?>
<svg version="1.1" xmlns:xlink="http://www.w3.org/1999/xlink" width="12px" height="12px" viewBox="445 831  12 12" xmlns="http://www.w3.org/2000/svg">
  <path d="M 445.5 834  A 2.5 2.5 0 0 1 448 831.5 L 454 831.5  A 2.5 2.5 0 0 1 456.5 834 L 456.5 840  A 2.5 2.5 0 0 1 454 842.5 L 448 842.5  A 2.5 2.5 0 0 1 445.5 840 L 445.5 834  Z " fill-rule="nonzero" fill="#f0f0f0" stroke="none" />
  <path d="M 445.5 834  A 2.5 2.5 0 0 1 448 831.5 L 454 831.5  A 2.5 2.5 0 0 1 456.5 834 L 456.5 840  A 2.5 2.5 0 0 1 454 842.5 L 448 842.5  A 2.5 2.5 0 0 1 445.5 840 L 445.5 834  Z " stroke-width="1" stroke="#797979" fill="none" />
</svg>