<?xml version="1.0" encoding="utf-8"?>
<svg version="1.1" xmlns:xlink="http://www.w3.org/1999/xlink" width="12px" height="12px" viewBox="654 566  12 12" xmlns="http://www.w3.org/2000/svg">
  <path d="M 654.5 569  A 2.5 2.5 0 0 1 657 566.5 L 663 566.5  A 2.5 2.5 0 0 1 665.5 569 L 665.5 575  A 2.5 2.5 0 0 1 663 577.5 L 657 577.5  A 2.5 2.5 0 0 1 654.5 575 L 654.5 569  Z " fill-rule="nonzero" fill="#ffffff" stroke="none" />
  <path d="M 654.5 569  A 2.5 2.5 0 0 1 657 566.5 L 663 566.5  A 2.5 2.5 0 0 1 665.5 569 L 665.5 575  A 2.5 2.5 0 0 1 663 577.5 L 657 577.5  A 2.5 2.5 0 0 1 654.5 575 L 654.5 569  Z " stroke-width="1" stroke="#797979" fill="none" />
</svg>