<?xml version="1.0" encoding="utf-8"?>
<svg version="1.1" xmlns:xlink="http://www.w3.org/1999/xlink" width="12px" height="12px" viewBox="654 585  12 12" xmlns="http://www.w3.org/2000/svg">
  <path d="M 654.5 588  A 2.5 2.5 0 0 1 657 585.5 L 663 585.5  A 2.5 2.5 0 0 1 665.5 588 L 665.5 594  A 2.5 2.5 0 0 1 663 596.5 L 657 596.5  A 2.5 2.5 0 0 1 654.5 594 L 654.5 588  Z " fill-rule="nonzero" fill="#ffffff" stroke="none" />
  <path d="M 654.5 588  A 2.5 2.5 0 0 1 657 585.5 L 663 585.5  A 2.5 2.5 0 0 1 665.5 588 L 665.5 594  A 2.5 2.5 0 0 1 663 596.5 L 657 596.5  A 2.5 2.5 0 0 1 654.5 594 L 654.5 588  Z " stroke-width="1" stroke="#797979" fill="none" />
</svg>