<?xml version="1.0" encoding="utf-8"?>
<svg version="1.1" xmlns:xlink="http://www.w3.org/1999/xlink" width="12px" height="12px" viewBox="445 585  12 12" xmlns="http://www.w3.org/2000/svg">
  <path d="M 445.5 588  A 2.5 2.5 0 0 1 448 585.5 L 454 585.5  A 2.5 2.5 0 0 1 456.5 588 L 456.5 594  A 2.5 2.5 0 0 1 454 596.5 L 448 596.5  A 2.5 2.5 0 0 1 445.5 594 L 445.5 588  Z " fill-rule="nonzero" fill="#ffffff" stroke="none" />
  <path d="M 445.5 588  A 2.5 2.5 0 0 1 448 585.5 L 454 585.5  A 2.5 2.5 0 0 1 456.5 588 L 456.5 594  A 2.5 2.5 0 0 1 454 596.5 L 448 596.5  A 2.5 2.5 0 0 1 445.5 594 L 445.5 588  Z " stroke-width="1" stroke="#797979" fill="none" />
</svg>