<?xml version="1.0" encoding="utf-8"?>
<svg version="1.1" xmlns:xlink="http://www.w3.org/1999/xlink" width="12px" height="12px" viewBox="654 605  12 12" xmlns="http://www.w3.org/2000/svg">
  <path d="M 654.5 608  A 2.5 2.5 0 0 1 657 605.5 L 663 605.5  A 2.5 2.5 0 0 1 665.5 608 L 665.5 614  A 2.5 2.5 0 0 1 663 616.5 L 657 616.5  A 2.5 2.5 0 0 1 654.5 614 L 654.5 608  Z " fill-rule="nonzero" fill="#f0f0f0" stroke="none" />
  <path d="M 654.5 608  A 2.5 2.5 0 0 1 657 605.5 L 663 605.5  A 2.5 2.5 0 0 1 665.5 608 L 665.5 614  A 2.5 2.5 0 0 1 663 616.5 L 657 616.5  A 2.5 2.5 0 0 1 654.5 614 L 654.5 608  Z " stroke-width="1" stroke="#797979" fill="none" />
</svg>