<?xml version="1.0" encoding="utf-8"?>
<svg version="1.1" xmlns:xlink="http://www.w3.org/1999/xlink" width="12px" height="12px" viewBox="445 564  12 12" xmlns="http://www.w3.org/2000/svg">
  <path d="M 445.5 567  A 2.5 2.5 0 0 1 448 564.5 L 454 564.5  A 2.5 2.5 0 0 1 456.5 567 L 456.5 573  A 2.5 2.5 0 0 1 454 575.5 L 448 575.5  A 2.5 2.5 0 0 1 445.5 573 L 445.5 567  Z " fill-rule="nonzero" fill="#9d41c8" stroke="none" />
  <path d="M 445.5 567  A 2.5 2.5 0 0 1 448 564.5 L 454 564.5  A 2.5 2.5 0 0 1 456.5 567 L 456.5 573  A 2.5 2.5 0 0 1 454 575.5 L 448 575.5  A 2.5 2.5 0 0 1 445.5 573 L 445.5 567  Z " stroke-width="1" stroke="#ffffff" fill="none" />
  <path d="M 447.571428571429 570  L 450.142857142857 572.571428571429  " stroke-width="2.57142857142857" stroke="#ffffff" fill="none" />
  <path d="M 450.142857142857 572.571428571429  L 454.428571428571 566.571428571429  " stroke-width="2.57142857142857" stroke="#ffffff" fill="none" />
</svg>