<?xml version="1.0" encoding="utf-8"?>
<svg version="1.1" xmlns:xlink="http://www.w3.org/1999/xlink" width="12px" height="12px" viewBox="445 624  12 12" xmlns="http://www.w3.org/2000/svg">
  <path d="M 445.5 627  A 2.5 2.5 0 0 1 448 624.5 L 454 624.5  A 2.5 2.5 0 0 1 456.5 627 L 456.5 633  A 2.5 2.5 0 0 1 454 635.5 L 448 635.5  A 2.5 2.5 0 0 1 445.5 633 L 445.5 627  Z " fill-rule="nonzero" fill="#f0f0f0" stroke="none" />
  <path d="M 445.5 627  A 2.5 2.5 0 0 1 448 624.5 L 454 624.5  A 2.5 2.5 0 0 1 456.5 627 L 456.5 633  A 2.5 2.5 0 0 1 454 635.5 L 448 635.5  A 2.5 2.5 0 0 1 445.5 633 L 445.5 627  Z " stroke-width="1" stroke="#797979" fill="none" />
</svg>