<?xml version="1.0" encoding="utf-8"?>
<svg version="1.1" xmlns:xlink="http://www.w3.org/1999/xlink" width="12px" height="12px" viewBox="654 1088  12 12" xmlns="http://www.w3.org/2000/svg">
  <path d="M 654.5 1091  A 2.5 2.5 0 0 1 657 1088.5 L 663 1088.5  A 2.5 2.5 0 0 1 665.5 1091 L 665.5 1097  A 2.5 2.5 0 0 1 663 1099.5 L 657 1099.5  A 2.5 2.5 0 0 1 654.5 1097 L 654.5 1091  Z " fill-rule="nonzero" fill="#9d41c8" stroke="none" />
  <path d="M 654.5 1091  A 2.5 2.5 0 0 1 657 1088.5 L 663 1088.5  A 2.5 2.5 0 0 1 665.5 1091 L 665.5 1097  A 2.5 2.5 0 0 1 663 1099.5 L 657 1099.5  A 2.5 2.5 0 0 1 654.5 1097 L 654.5 1091  Z " stroke-width="1" stroke="#ffffff" fill="none" />
  <path d="M 656.571428571429 1094  L 659.142857142857 1096.57142857143  " stroke-width="2.57142857142857" stroke="#ffffff" fill="none" />
  <path d="M 659.142857142857 1096.57142857143  L 663.428571428571 1090.57142857143  " stroke-width="2.57142857142857" stroke="#ffffff" fill="none" />
</svg>