<?xml version="1.0" encoding="utf-8"?>
<svg version="1.1" xmlns:xlink="http://www.w3.org/1999/xlink" width="12px" height="12px" viewBox="654 1088  12 12" xmlns="http://www.w3.org/2000/svg">
  <path d="M 654.5 1091  A 2.5 2.5 0 0 1 657 1088.5 L 663 1088.5  A 2.5 2.5 0 0 1 665.5 1091 L 665.5 1097  A 2.5 2.5 0 0 1 663 1099.5 L 657 1099.5  A 2.5 2.5 0 0 1 654.5 1097 L 654.5 1091  Z " fill-rule="nonzero" fill="#f0f0f0" stroke="none" />
  <path d="M 654.5 1091  A 2.5 2.5 0 0 1 657 1088.5 L 663 1088.5  A 2.5 2.5 0 0 1 665.5 1091 L 665.5 1097  A 2.5 2.5 0 0 1 663 1099.5 L 657 1099.5  A 2.5 2.5 0 0 1 654.5 1097 L 654.5 1091  Z " stroke-width="1" stroke="#797979" fill="none" />
</svg>