<?xml version="1.0" encoding="utf-8"?>
<svg version="1.1" xmlns:xlink="http://www.w3.org/1999/xlink" width="12px" height="12px" viewBox="654 1148  12 12" xmlns="http://www.w3.org/2000/svg">
  <path d="M 654.5 1151  A 2.5 2.5 0 0 1 657 1148.5 L 663 1148.5  A 2.5 2.5 0 0 1 665.5 1151 L 665.5 1157  A 2.5 2.5 0 0 1 663 1159.5 L 657 1159.5  A 2.5 2.5 0 0 1 654.5 1157 L 654.5 1151  Z " fill-rule="nonzero" fill="#9d41c8" stroke="none" />
  <path d="M 654.5 1151  A 2.5 2.5 0 0 1 657 1148.5 L 663 1148.5  A 2.5 2.5 0 0 1 665.5 1151 L 665.5 1157  A 2.5 2.5 0 0 1 663 1159.5 L 657 1159.5  A 2.5 2.5 0 0 1 654.5 1157 L 654.5 1151  Z " stroke-width="1" stroke="#ffffff" fill="none" />
  <path d="M 656.571428571429 1154  L 659.142857142857 1156.57142857143  " stroke-width="2.57142857142857" stroke="#ffffff" fill="none" />
  <path d="M 659.142857142857 1156.57142857143  L 663.428571428571 1150.57142857143  " stroke-width="2.57142857142857" stroke="#ffffff" fill="none" />
</svg>