<?xml version="1.0" encoding="utf-8"?>
<svg version="1.1" xmlns:xlink="http://www.w3.org/1999/xlink" width="12px" height="12px" viewBox="445 1086  12 12" xmlns="http://www.w3.org/2000/svg">
  <path d="M 445.5 1089  A 2.5 2.5 0 0 1 448 1086.5 L 454 1086.5  A 2.5 2.5 0 0 1 456.5 1089 L 456.5 1095  A 2.5 2.5 0 0 1 454 1097.5 L 448 1097.5  A 2.5 2.5 0 0 1 445.5 1095 L 445.5 1089  Z " fill-rule="nonzero" fill="#ffffff" stroke="none" />
  <path d="M 445.5 1089  A 2.5 2.5 0 0 1 448 1086.5 L 454 1086.5  A 2.5 2.5 0 0 1 456.5 1089 L 456.5 1095  A 2.5 2.5 0 0 1 454 1097.5 L 448 1097.5  A 2.5 2.5 0 0 1 445.5 1095 L 445.5 1089  Z " stroke-width="1" stroke="#797979" fill="none" />
</svg>