<?xml version="1.0" encoding="utf-8"?>
<svg version="1.1" xmlns:xlink="http://www.w3.org/1999/xlink" width="12px" height="12px" viewBox="647 1357  12 12" xmlns="http://www.w3.org/2000/svg">
  <path d="M 647.5 1360  A 2.5 2.5 0 0 1 650 1357.5 L 656 1357.5  A 2.5 2.5 0 0 1 658.5 1360 L 658.5 1366  A 2.5 2.5 0 0 1 656 1368.5 L 650 1368.5  A 2.5 2.5 0 0 1 647.5 1366 L 647.5 1360  Z " fill-rule="nonzero" fill="#9d41c8" stroke="none" />
  <path d="M 647.5 1360  A 2.5 2.5 0 0 1 650 1357.5 L 656 1357.5  A 2.5 2.5 0 0 1 658.5 1360 L 658.5 1366  A 2.5 2.5 0 0 1 656 1368.5 L 650 1368.5  A 2.5 2.5 0 0 1 647.5 1366 L 647.5 1360  Z " stroke-width="1" stroke="#ffffff" fill="none" />
  <path d="M 649.571428571429 1363  L 652.142857142857 1365.57142857143  " stroke-width="2.57142857142857" stroke="#ffffff" fill="none" />
  <path d="M 652.142857142857 1365.57142857143  L 656.428571428571 1359.57142857143  " stroke-width="2.57142857142857" stroke="#ffffff" fill="none" />
</svg>