<?xml version="1.0" encoding="utf-8"?>
<svg version="1.1" xmlns:xlink="http://www.w3.org/1999/xlink" width="12px" height="12px" viewBox="647 1416  12 12" xmlns="http://www.w3.org/2000/svg">
  <path d="M 647.5 1419  A 2.5 2.5 0 0 1 650 1416.5 L 656 1416.5  A 2.5 2.5 0 0 1 658.5 1419 L 658.5 1425  A 2.5 2.5 0 0 1 656 1427.5 L 650 1427.5  A 2.5 2.5 0 0 1 647.5 1425 L 647.5 1419  Z " fill-rule="nonzero" fill="#f0f0f0" stroke="none" />
  <path d="M 647.5 1419  A 2.5 2.5 0 0 1 650 1416.5 L 656 1416.5  A 2.5 2.5 0 0 1 658.5 1419 L 658.5 1425  A 2.5 2.5 0 0 1 656 1427.5 L 650 1427.5  A 2.5 2.5 0 0 1 647.5 1425 L 647.5 1419  Z " stroke-width="1" stroke="#797979" fill="none" />
  <path d="M 649.571428571429 1422  L 652.142857142857 1424.57142857143  " stroke-width="2.57142857142857" stroke="#797979" fill="none" />
  <path d="M 652.142857142857 1424.57142857143  L 656.428571428571 1418.57142857143  " stroke-width="2.57142857142857" stroke="#797979" fill="none" />
</svg>