<?xml version="1.0" encoding="utf-8"?>
<svg version="1.1" xmlns:xlink="http://www.w3.org/1999/xlink" width="12px" height="12px" viewBox="445 1397  12 12" xmlns="http://www.w3.org/2000/svg">
  <path d="M 445.5 1400  A 2.5 2.5 0 0 1 448 1397.5 L 454 1397.5  A 2.5 2.5 0 0 1 456.5 1400 L 456.5 1406  A 2.5 2.5 0 0 1 454 1408.5 L 448 1408.5  A 2.5 2.5 0 0 1 445.5 1406 L 445.5 1400  Z " fill-rule="nonzero" fill="#f0f0f0" stroke="none" />
  <path d="M 445.5 1400  A 2.5 2.5 0 0 1 448 1397.5 L 454 1397.5  A 2.5 2.5 0 0 1 456.5 1400 L 456.5 1406  A 2.5 2.5 0 0 1 454 1408.5 L 448 1408.5  A 2.5 2.5 0 0 1 445.5 1406 L 445.5 1400  Z " stroke-width="1" stroke="#797979" fill="none" />
</svg>