<?xml version="1.0" encoding="utf-8"?>
<svg version="1.1" xmlns:xlink="http://www.w3.org/1999/xlink" width="12px" height="12px" viewBox="647 1396  12 12" xmlns="http://www.w3.org/2000/svg">
  <path d="M 647.5 1399  A 2.5 2.5 0 0 1 650 1396.5 L 656 1396.5  A 2.5 2.5 0 0 1 658.5 1399 L 658.5 1405  A 2.5 2.5 0 0 1 656 1407.5 L 650 1407.5  A 2.5 2.5 0 0 1 647.5 1405 L 647.5 1399  Z " fill-rule="nonzero" fill="#ffffff" stroke="none" />
  <path d="M 647.5 1399  A 2.5 2.5 0 0 1 650 1396.5 L 656 1396.5  A 2.5 2.5 0 0 1 658.5 1399 L 658.5 1405  A 2.5 2.5 0 0 1 656 1407.5 L 650 1407.5  A 2.5 2.5 0 0 1 647.5 1405 L 647.5 1399  Z " stroke-width="1" stroke="#797979" fill="none" />
</svg>