<?xml version="1.0" encoding="utf-8"?>
<svg version="1.1" xmlns:xlink="http://www.w3.org/1999/xlink" width="12px" height="12px" viewBox="1202 297  12 12" xmlns="http://www.w3.org/2000/svg">
  <path d="M 1202.5 300  A 2.5 2.5 0 0 1 1205 297.5 L 1211 297.5  A 2.5 2.5 0 0 1 1213.5 300 L 1213.5 306  A 2.5 2.5 0 0 1 1211 308.5 L 1205 308.5  A 2.5 2.5 0 0 1 1202.5 306 L 1202.5 300  Z " fill-rule="nonzero" fill="#9d41c8" stroke="none" />
  <path d="M 1202.5 300  A 2.5 2.5 0 0 1 1205 297.5 L 1211 297.5  A 2.5 2.5 0 0 1 1213.5 300 L 1213.5 306  A 2.5 2.5 0 0 1 1211 308.5 L 1205 308.5  A 2.5 2.5 0 0 1 1202.5 306 L 1202.5 300  Z " stroke-width="1" stroke="#ffffff" fill="none" />
  <path d="M 1204.57142857143 303  L 1207.14285714286 305.571428571429  " stroke-width="2.57142857142857" stroke="#ffffff" fill="none" />
  <path d="M 1207.14285714286 305.571428571429  L 1211.42857142857 299.571428571429  " stroke-width="2.57142857142857" stroke="#ffffff" fill="none" />
</svg>