<?xml version="1.0" encoding="utf-8"?>
<svg version="1.1" xmlns:xlink="http://www.w3.org/1999/xlink" width="12px" height="12px" viewBox="832 297  12 12" xmlns="http://www.w3.org/2000/svg">
  <path d="M 832.5 300  A 2.5 2.5 0 0 1 835 297.5 L 841 297.5  A 2.5 2.5 0 0 1 843.5 300 L 843.5 306  A 2.5 2.5 0 0 1 841 308.5 L 835 308.5  A 2.5 2.5 0 0 1 832.5 306 L 832.5 300  Z " fill-rule="nonzero" fill="#f0f0f0" stroke="none" />
  <path d="M 832.5 300  A 2.5 2.5 0 0 1 835 297.5 L 841 297.5  A 2.5 2.5 0 0 1 843.5 300 L 843.5 306  A 2.5 2.5 0 0 1 841 308.5 L 835 308.5  A 2.5 2.5 0 0 1 832.5 306 L 832.5 300  Z " stroke-width="1" stroke="#797979" fill="none" />
</svg>