<?xml version="1.0" encoding="utf-8"?>
<svg version="1.1" xmlns:xlink="http://www.w3.org/1999/xlink" width="12px" height="12px" viewBox="1166 2907  12 12" xmlns="http://www.w3.org/2000/svg">
  <path d="M 1166.5 2910  A 2.5 2.5 0 0 1 1169 2907.5 L 1175 2907.5  A 2.5 2.5 0 0 1 1177.5 2910 L 1177.5 2916  A 2.5 2.5 0 0 1 1175 2918.5 L 1169 2918.5  A 2.5 2.5 0 0 1 1166.5 2916 L 1166.5 2910  Z " fill-rule="nonzero" fill="#ffffff" stroke="none" />
  <path d="M 1166.5 2910  A 2.5 2.5 0 0 1 1169 2907.5 L 1175 2907.5  A 2.5 2.5 0 0 1 1177.5 2910 L 1177.5 2916  A 2.5 2.5 0 0 1 1175 2918.5 L 1169 2918.5  A 2.5 2.5 0 0 1 1166.5 2916 L 1166.5 2910  Z " stroke-width="1" stroke="#797979" fill="none" />
</svg>