<?xml version="1.0" encoding="utf-8"?>
<svg version="1.1" xmlns:xlink="http://www.w3.org/1999/xlink" width="12px" height="12px" viewBox="1170 3061  12 12" xmlns="http://www.w3.org/2000/svg">
  <path d="M 1170.5 3064  A 2.5 2.5 0 0 1 1173 3061.5 L 1179 3061.5  A 2.5 2.5 0 0 1 1181.5 3064 L 1181.5 3070  A 2.5 2.5 0 0 1 1179 3072.5 L 1173 3072.5  A 2.5 2.5 0 0 1 1170.5 3070 L 1170.5 3064  Z " fill-rule="nonzero" fill="#ffffff" stroke="none" />
  <path d="M 1170.5 3064  A 2.5 2.5 0 0 1 1173 3061.5 L 1179 3061.5  A 2.5 2.5 0 0 1 1181.5 3064 L 1181.5 3070  A 2.5 2.5 0 0 1 1179 3072.5 L 1173 3072.5  A 2.5 2.5 0 0 1 1170.5 3070 L 1170.5 3064  Z " stroke-width="1" stroke="#797979" fill="none" />
</svg>