<?xml version="1.0" encoding="utf-8"?>
<svg version="1.1" xmlns:xlink="http://www.w3.org/1999/xlink" width="12px" height="12px" viewBox="1170 3102  12 12" xmlns="http://www.w3.org/2000/svg">
  <path d="M 1170.5 3105  A 2.5 2.5 0 0 1 1173 3102.5 L 1179 3102.5  A 2.5 2.5 0 0 1 1181.5 3105 L 1181.5 3111  A 2.5 2.5 0 0 1 1179 3113.5 L 1173 3113.5  A 2.5 2.5 0 0 1 1170.5 3111 L 1170.5 3105  Z " fill-rule="nonzero" fill="#f0f0f0" stroke="none" />
  <path d="M 1170.5 3105  A 2.5 2.5 0 0 1 1173 3102.5 L 1179 3102.5  A 2.5 2.5 0 0 1 1181.5 3105 L 1181.5 3111  A 2.5 2.5 0 0 1 1179 3113.5 L 1173 3113.5  A 2.5 2.5 0 0 1 1170.5 3111 L 1170.5 3105  Z " stroke-width="1" stroke="#797979" fill="none" />
</svg>