<?xml version="1.0" encoding="utf-8"?>
<svg version="1.1" xmlns:xlink="http://www.w3.org/1999/xlink" width="12px" height="12px" viewBox="1170 3143  12 12" xmlns="http://www.w3.org/2000/svg">
  <path d="M 1170.5 3146  A 2.5 2.5 0 0 1 1173 3143.5 L 1179 3143.5  A 2.5 2.5 0 0 1 1181.5 3146 L 1181.5 3152  A 2.5 2.5 0 0 1 1179 3154.5 L 1173 3154.5  A 2.5 2.5 0 0 1 1170.5 3152 L 1170.5 3146  Z " fill-rule="nonzero" fill="#9d41c8" stroke="none" />
  <path d="M 1170.5 3146  A 2.5 2.5 0 0 1 1173 3143.5 L 1179 3143.5  A 2.5 2.5 0 0 1 1181.5 3146 L 1181.5 3152  A 2.5 2.5 0 0 1 1179 3154.5 L 1173 3154.5  A 2.5 2.5 0 0 1 1170.5 3152 L 1170.5 3146  Z " stroke-width="1" stroke="#ffffff" fill="none" />
  <path d="M 1172.57142857143 3149  L 1175.14285714286 3151.57142857143  " stroke-width="2.57142857142857" stroke="#ffffff" fill="none" />
  <path d="M 1175.14285714286 3151.57142857143  L 1179.42857142857 3145.57142857143  " stroke-width="2.57142857142857" stroke="#ffffff" fill="none" />
</svg>