<?xml version="1.0" encoding="utf-8"?>
<svg version="1.1" xmlns:xlink="http://www.w3.org/1999/xlink" width="12px" height="12px" viewBox="959 3018  12 12" xmlns="http://www.w3.org/2000/svg">
  <path d="M 959.5 3021  A 2.5 2.5 0 0 1 962 3018.5 L 968 3018.5  A 2.5 2.5 0 0 1 970.5 3021 L 970.5 3027  A 2.5 2.5 0 0 1 968 3029.5 L 962 3029.5  A 2.5 2.5 0 0 1 959.5 3027 L 959.5 3021  Z " fill-rule="nonzero" fill="#9d41c8" stroke="none" />
  <path d="M 959.5 3021  A 2.5 2.5 0 0 1 962 3018.5 L 968 3018.5  A 2.5 2.5 0 0 1 970.5 3021 L 970.5 3027  A 2.5 2.5 0 0 1 968 3029.5 L 962 3029.5  A 2.5 2.5 0 0 1 959.5 3027 L 959.5 3021  Z " stroke-width="1" stroke="#ffffff" fill="none" />
  <path d="M 961.571428571429 3024  L 964.142857142857 3026.57142857143  " stroke-width="2.57142857142857" stroke="#ffffff" fill="none" />
  <path d="M 964.142857142857 3026.57142857143  L 968.428571428571 3020.57142857143  " stroke-width="2.57142857142857" stroke="#ffffff" fill="none" />
</svg>