<?xml version="1.0" encoding="utf-8"?>
<svg version="1.1" xmlns:xlink="http://www.w3.org/1999/xlink" width="12px" height="12px" viewBox="959 3143  12 12" xmlns="http://www.w3.org/2000/svg">
  <path d="M 959.5 3146  A 2.5 2.5 0 0 1 962 3143.5 L 968 3143.5  A 2.5 2.5 0 0 1 970.5 3146 L 970.5 3152  A 2.5 2.5 0 0 1 968 3154.5 L 962 3154.5  A 2.5 2.5 0 0 1 959.5 3152 L 959.5 3146  Z " fill-rule="nonzero" fill="#f0f0f0" stroke="none" />
  <path d="M 959.5 3146  A 2.5 2.5 0 0 1 962 3143.5 L 968 3143.5  A 2.5 2.5 0 0 1 970.5 3146 L 970.5 3152  A 2.5 2.5 0 0 1 968 3154.5 L 962 3154.5  A 2.5 2.5 0 0 1 959.5 3152 L 959.5 3146  Z " stroke-width="1" stroke="#797979" fill="none" />
  <path d="M 961.571428571429 3149  L 964.142857142857 3151.57142857143  " stroke-width="2.57142857142857" stroke="#797979" fill="none" />
  <path d="M 964.142857142857 3151.57142857143  L 968.428571428571 3145.57142857143  " stroke-width="2.57142857142857" stroke="#797979" fill="none" />
</svg>