<?xml version="1.0" encoding="utf-8"?>
<svg version="1.1" xmlns:xlink="http://www.w3.org/1999/xlink" width="12px" height="12px" viewBox="748 3102  12 12" xmlns="http://www.w3.org/2000/svg">
  <path d="M 748.5 3105  A 2.5 2.5 0 0 1 751 3102.5 L 757 3102.5  A 2.5 2.5 0 0 1 759.5 3105 L 759.5 3111  A 2.5 2.5 0 0 1 757 3113.5 L 751 3113.5  A 2.5 2.5 0 0 1 748.5 3111 L 748.5 3105  Z " fill-rule="nonzero" fill="#ffffff" stroke="none" />
  <path d="M 748.5 3105  A 2.5 2.5 0 0 1 751 3102.5 L 757 3102.5  A 2.5 2.5 0 0 1 759.5 3105 L 759.5 3111  A 2.5 2.5 0 0 1 757 3113.5 L 751 3113.5  A 2.5 2.5 0 0 1 748.5 3111 L 748.5 3105  Z " stroke-width="1" stroke="#797979" fill="none" />
</svg>