<?xml version="1.0" encoding="utf-8"?>
<svg version="1.1" xmlns:xlink="http://www.w3.org/1999/xlink" width="12px" height="12px" viewBox="537 3102  12 12" xmlns="http://www.w3.org/2000/svg">
  <path d="M 537.5 3105  A 2.5 2.5 0 0 1 540 3102.5 L 546 3102.5  A 2.5 2.5 0 0 1 548.5 3105 L 548.5 3111  A 2.5 2.5 0 0 1 546 3113.5 L 540 3113.5  A 2.5 2.5 0 0 1 537.5 3111 L 537.5 3105  Z " fill-rule="nonzero" fill="#f0f0f0" stroke="none" />
  <path d="M 537.5 3105  A 2.5 2.5 0 0 1 540 3102.5 L 546 3102.5  A 2.5 2.5 0 0 1 548.5 3105 L 548.5 3111  A 2.5 2.5 0 0 1 546 3113.5 L 540 3113.5  A 2.5 2.5 0 0 1 537.5 3111 L 537.5 3105  Z " stroke-width="1" stroke="#797979" fill="none" />
  <path d="M 539.571428571429 3108  L 542.142857142857 3110.57142857143  " stroke-width="2.57142857142857" stroke="#797979" fill="none" />
  <path d="M 542.142857142857 3110.57142857143  L 546.428571428571 3104.57142857143  " stroke-width="2.57142857142857" stroke="#797979" fill="none" />
</svg>