<?xml version="1.0" encoding="utf-8"?>
<svg version="1.1" xmlns:xlink="http://www.w3.org/1999/xlink" width="12px" height="12px" viewBox="537 3184  12 12" xmlns="http://www.w3.org/2000/svg">
  <path d="M 537.5 3187  A 2.5 2.5 0 0 1 540 3184.5 L 546 3184.5  A 2.5 2.5 0 0 1 548.5 3187 L 548.5 3193  A 2.5 2.5 0 0 1 546 3195.5 L 540 3195.5  A 2.5 2.5 0 0 1 537.5 3193 L 537.5 3187  Z " fill-rule="nonzero" fill="#ffffff" stroke="none" />
  <path d="M 537.5 3187  A 2.5 2.5 0 0 1 540 3184.5 L 546 3184.5  A 2.5 2.5 0 0 1 548.5 3187 L 548.5 3193  A 2.5 2.5 0 0 1 546 3195.5 L 540 3195.5  A 2.5 2.5 0 0 1 537.5 3193 L 537.5 3187  Z " stroke-width="1" stroke="#797979" fill="none" />
</svg>