<?xml version="1.0" encoding="utf-8"?>
<svg version="1.1" xmlns:xlink="http://www.w3.org/1999/xlink" width="12px" height="12px" viewBox="1180 3427  12 12" xmlns="http://www.w3.org/2000/svg">
  <path d="M 1180.5 3430  A 2.5 2.5 0 0 1 1183 3427.5 L 1189 3427.5  A 2.5 2.5 0 0 1 1191.5 3430 L 1191.5 3436  A 2.5 2.5 0 0 1 1189 3438.5 L 1183 3438.5  A 2.5 2.5 0 0 1 1180.5 3436 L 1180.5 3430  Z " fill-rule="nonzero" fill="#ffffff" stroke="none" />
  <path d="M 1180.5 3430  A 2.5 2.5 0 0 1 1183 3427.5 L 1189 3427.5  A 2.5 2.5 0 0 1 1191.5 3430 L 1191.5 3436  A 2.5 2.5 0 0 1 1189 3438.5 L 1183 3438.5  A 2.5 2.5 0 0 1 1180.5 3436 L 1180.5 3430  Z " stroke-width="1" stroke="#797979" fill="none" />
</svg>