<?xml version="1.0" encoding="utf-8"?>
<svg version="1.1" xmlns:xlink="http://www.w3.org/1999/xlink" width="12px" height="12px" viewBox="1176 3615  12 12" xmlns="http://www.w3.org/2000/svg">
  <path d="M 1176.5 3618  A 2.5 2.5 0 0 1 1179 3615.5 L 1185 3615.5  A 2.5 2.5 0 0 1 1187.5 3618 L 1187.5 3624  A 2.5 2.5 0 0 1 1185 3626.5 L 1179 3626.5  A 2.5 2.5 0 0 1 1176.5 3624 L 1176.5 3618  Z " fill-rule="nonzero" fill="#ffffff" stroke="none" />
  <path d="M 1176.5 3618  A 2.5 2.5 0 0 1 1179 3615.5 L 1185 3615.5  A 2.5 2.5 0 0 1 1187.5 3618 L 1187.5 3624  A 2.5 2.5 0 0 1 1185 3626.5 L 1179 3626.5  A 2.5 2.5 0 0 1 1176.5 3624 L 1176.5 3618  Z " stroke-width="1" stroke="#797979" fill="none" />
</svg>