<?xml version="1.0" encoding="utf-8"?>
<svg version="1.1" xmlns:xlink="http://www.w3.org/1999/xlink" width="12px" height="12px" viewBox="1176 3615  12 12" xmlns="http://www.w3.org/2000/svg">
  <path d="M 1176.5 3618  A 2.5 2.5 0 0 1 1179 3615.5 L 1185 3615.5  A 2.5 2.5 0 0 1 1187.5 3618 L 1187.5 3624  A 2.5 2.5 0 0 1 1185 3626.5 L 1179 3626.5  A 2.5 2.5 0 0 1 1176.5 3624 L 1176.5 3618  Z " fill-rule="nonzero" fill="#9d41c8" stroke="none" />
  <path d="M 1176.5 3618  A 2.5 2.5 0 0 1 1179 3615.5 L 1185 3615.5  A 2.5 2.5 0 0 1 1187.5 3618 L 1187.5 3624  A 2.5 2.5 0 0 1 1185 3626.5 L 1179 3626.5  A 2.5 2.5 0 0 1 1176.5 3624 L 1176.5 3618  Z " stroke-width="1" stroke="#ffffff" fill="none" />
  <path d="M 1178.57142857143 3621  L 1181.14285714286 3623.57142857143  " stroke-width="2.57142857142857" stroke="#ffffff" fill="none" />
  <path d="M 1181.14285714286 3623.57142857143  L 1185.42857142857 3617.57142857143  " stroke-width="2.57142857142857" stroke="#ffffff" fill="none" />
</svg>