<?xml version="1.0" encoding="utf-8"?>
<svg version="1.1" xmlns:xlink="http://www.w3.org/1999/xlink" width="12px" height="12px" viewBox="1161 3805  12 12" xmlns="http://www.w3.org/2000/svg">
  <path d="M 1161.5 3808  A 2.5 2.5 0 0 1 1164 3805.5 L 1170 3805.5  A 2.5 2.5 0 0 1 1172.5 3808 L 1172.5 3814  A 2.5 2.5 0 0 1 1170 3816.5 L 1164 3816.5  A 2.5 2.5 0 0 1 1161.5 3814 L 1161.5 3808  Z " fill-rule="nonzero" fill="#f0f0f0" stroke="none" />
  <path d="M 1161.5 3808  A 2.5 2.5 0 0 1 1164 3805.5 L 1170 3805.5  A 2.5 2.5 0 0 1 1172.5 3808 L 1172.5 3814  A 2.5 2.5 0 0 1 1170 3816.5 L 1164 3816.5  A 2.5 2.5 0 0 1 1161.5 3814 L 1161.5 3808  Z " stroke-width="1" stroke="#797979" fill="none" />
  <path d="M 1163.57142857143 3811  L 1166.14285714286 3813.57142857143  " stroke-width="2.57142857142857" stroke="#797979" fill="none" />
  <path d="M 1166.14285714286 3813.57142857143  L 1170.42857142857 3807.57142857143  " stroke-width="2.57142857142857" stroke="#797979" fill="none" />
</svg>