<?xml version="1.0" encoding="utf-8"?>
<svg version="1.1" xmlns:xlink="http://www.w3.org/1999/xlink" width="12px" height="12px" viewBox="1077 3804  12 12" xmlns="http://www.w3.org/2000/svg">
  <path d="M 1077.5 3807  A 2.5 2.5 0 0 1 1080 3804.5 L 1086 3804.5  A 2.5 2.5 0 0 1 1088.5 3807 L 1088.5 3813  A 2.5 2.5 0 0 1 1086 3815.5 L 1080 3815.5  A 2.5 2.5 0 0 1 1077.5 3813 L 1077.5 3807  Z " fill-rule="nonzero" fill="#ffffff" stroke="none" />
  <path d="M 1077.5 3807  A 2.5 2.5 0 0 1 1080 3804.5 L 1086 3804.5  A 2.5 2.5 0 0 1 1088.5 3807 L 1088.5 3813  A 2.5 2.5 0 0 1 1086 3815.5 L 1080 3815.5  A 2.5 2.5 0 0 1 1077.5 3813 L 1077.5 3807  Z " stroke-width="1" stroke="#797979" fill="none" />
</svg>