<?xml version="1.0" encoding="utf-8"?>
<svg version="1.1" xmlns:xlink="http://www.w3.org/1999/xlink" width="12px" height="12px" viewBox="965 2986  12 12" xmlns="http://www.w3.org/2000/svg">
  <path d="M 965.5 2989  A 2.5 2.5 0 0 1 968 2986.5 L 974 2986.5  A 2.5 2.5 0 0 1 976.5 2989 L 976.5 2995  A 2.5 2.5 0 0 1 974 2997.5 L 968 2997.5  A 2.5 2.5 0 0 1 965.5 2995 L 965.5 2989  Z " fill-rule="nonzero" fill="#9d41c8" stroke="none" />
  <path d="M 965.5 2989  A 2.5 2.5 0 0 1 968 2986.5 L 974 2986.5  A 2.5 2.5 0 0 1 976.5 2989 L 976.5 2995  A 2.5 2.5 0 0 1 974 2997.5 L 968 2997.5  A 2.5 2.5 0 0 1 965.5 2995 L 965.5 2989  Z " stroke-width="1" stroke="#ffffff" fill="none" />
  <path d="M 967.571428571429 2992  L 970.142857142857 2994.57142857143  " stroke-width="2.57142857142857" stroke="#ffffff" fill="none" />
  <path d="M 970.142857142857 2994.57142857143  L 974.428571428571 2988.57142857143  " stroke-width="2.57142857142857" stroke="#ffffff" fill="none" />
</svg>