<?xml version="1.0" encoding="utf-8"?>
<svg version="1.1" xmlns:xlink="http://www.w3.org/1999/xlink" width="12px" height="12px" viewBox="834 3803  12 12" xmlns="http://www.w3.org/2000/svg">
  <path d="M 834.5 3806  A 2.5 2.5 0 0 1 837 3803.5 L 843 3803.5  A 2.5 2.5 0 0 1 845.5 3806 L 845.5 3812  A 2.5 2.5 0 0 1 843 3814.5 L 837 3814.5  A 2.5 2.5 0 0 1 834.5 3812 L 834.5 3806  Z " fill-rule="nonzero" fill="#9d41c8" stroke="none" />
  <path d="M 834.5 3806  A 2.5 2.5 0 0 1 837 3803.5 L 843 3803.5  A 2.5 2.5 0 0 1 845.5 3806 L 845.5 3812  A 2.5 2.5 0 0 1 843 3814.5 L 837 3814.5  A 2.5 2.5 0 0 1 834.5 3812 L 834.5 3806  Z " stroke-width="1" stroke="#ffffff" fill="none" />
  <path d="M 836.571428571429 3809  L 839.142857142857 3811.57142857143  " stroke-width="2.57142857142857" stroke="#ffffff" fill="none" />
  <path d="M 839.142857142857 3811.57142857143  L 843.428571428571 3805.57142857143  " stroke-width="2.57142857142857" stroke="#ffffff" fill="none" />
</svg>