<?xml version="1.0" encoding="utf-8"?>
<svg version="1.1" xmlns:xlink="http://www.w3.org/1999/xlink" width="12px" height="12px" viewBox="957 3804  12 12" xmlns="http://www.w3.org/2000/svg">
  <path d="M 957.5 3807  A 2.5 2.5 0 0 1 960 3804.5 L 966 3804.5  A 2.5 2.5 0 0 1 968.5 3807 L 968.5 3813  A 2.5 2.5 0 0 1 966 3815.5 L 960 3815.5  A 2.5 2.5 0 0 1 957.5 3813 L 957.5 3807  Z " fill-rule="nonzero" fill="#9d41c8" stroke="none" />
  <path d="M 957.5 3807  A 2.5 2.5 0 0 1 960 3804.5 L 966 3804.5  A 2.5 2.5 0 0 1 968.5 3807 L 968.5 3813  A 2.5 2.5 0 0 1 966 3815.5 L 960 3815.5  A 2.5 2.5 0 0 1 957.5 3813 L 957.5 3807  Z " stroke-width="1" stroke="#ffffff" fill="none" />
  <path d="M 959.571428571429 3810  L 962.142857142857 3812.57142857143  " stroke-width="2.57142857142857" stroke="#ffffff" fill="none" />
  <path d="M 962.142857142857 3812.57142857143  L 966.428571428571 3806.57142857143  " stroke-width="2.57142857142857" stroke="#ffffff" fill="none" />
</svg>