<?xml version="1.0" encoding="utf-8"?>
<svg version="1.1" xmlns:xlink="http://www.w3.org/1999/xlink" width="12px" height="12px" viewBox="965 864  12 12" xmlns="http://www.w3.org/2000/svg">
  <path d="M 965.5 867  A 2.5 2.5 0 0 1 968 864.5 L 974 864.5  A 2.5 2.5 0 0 1 976.5 867 L 976.5 873  A 2.5 2.5 0 0 1 974 875.5 L 968 875.5  A 2.5 2.5 0 0 1 965.5 873 L 965.5 867  Z " fill-rule="nonzero" fill="#f0f0f0" stroke="none" />
  <path d="M 965.5 867  A 2.5 2.5 0 0 1 968 864.5 L 974 864.5  A 2.5 2.5 0 0 1 976.5 867 L 976.5 873  A 2.5 2.5 0 0 1 974 875.5 L 968 875.5  A 2.5 2.5 0 0 1 965.5 873 L 965.5 867  Z " stroke-width="1" stroke="#797979" fill="none" />
  <path d="M 967.571428571429 870  L 970.142857142857 872.571428571429  " stroke-width="2.57142857142857" stroke="#797979" fill="none" />
  <path d="M 970.142857142857 872.571428571429  L 974.428571428571 866.571428571429  " stroke-width="2.57142857142857" stroke="#797979" fill="none" />
</svg>