<?xml version="1.0" encoding="utf-8"?>
<svg version="1.1" xmlns:xlink="http://www.w3.org/1999/xlink" width="12px" height="12px" viewBox="885 864  12 12" xmlns="http://www.w3.org/2000/svg">
  <path d="M 885.5 867  A 2.5 2.5 0 0 1 888 864.5 L 894 864.5  A 2.5 2.5 0 0 1 896.5 867 L 896.5 873  A 2.5 2.5 0 0 1 894 875.5 L 888 875.5  A 2.5 2.5 0 0 1 885.5 873 L 885.5 867  Z " fill-rule="nonzero" fill="#ffffff" stroke="none" />
  <path d="M 885.5 867  A 2.5 2.5 0 0 1 888 864.5 L 894 864.5  A 2.5 2.5 0 0 1 896.5 867 L 896.5 873  A 2.5 2.5 0 0 1 894 875.5 L 888 875.5  A 2.5 2.5 0 0 1 885.5 873 L 885.5 867  Z " stroke-width="1" stroke="#797979" fill="none" />
</svg>