<?xml version="1.0" encoding="utf-8"?>
<svg version="1.1" xmlns:xlink="http://www.w3.org/1999/xlink" width="12px" height="12px" viewBox="821 864  12 12" xmlns="http://www.w3.org/2000/svg">
  <path d="M 821.5 867  A 2.5 2.5 0 0 1 824 864.5 L 830 864.5  A 2.5 2.5 0 0 1 832.5 867 L 832.5 873  A 2.5 2.5 0 0 1 830 875.5 L 824 875.5  A 2.5 2.5 0 0 1 821.5 873 L 821.5 867  Z " fill-rule="nonzero" fill="#f0f0f0" stroke="none" />
  <path d="M 821.5 867  A 2.5 2.5 0 0 1 824 864.5 L 830 864.5  A 2.5 2.5 0 0 1 832.5 867 L 832.5 873  A 2.5 2.5 0 0 1 830 875.5 L 824 875.5  A 2.5 2.5 0 0 1 821.5 873 L 821.5 867  Z " stroke-width="1" stroke="#797979" fill="none" />
  <path d="M 823.571428571429 870  L 826.142857142857 872.571428571429  " stroke-width="2.57142857142857" stroke="#797979" fill="none" />
  <path d="M 826.142857142857 872.571428571429  L 830.428571428571 866.571428571429  " stroke-width="2.57142857142857" stroke="#797979" fill="none" />
</svg>