<?xml version="1.0" encoding="utf-8"?>
<svg version="1.1" xmlns:xlink="http://www.w3.org/1999/xlink" width="12px" height="12px" viewBox="747 864  12 12" xmlns="http://www.w3.org/2000/svg">
  <path d="M 747.5 867  A 2.5 2.5 0 0 1 750 864.5 L 756 864.5  A 2.5 2.5 0 0 1 758.5 867 L 758.5 873  A 2.5 2.5 0 0 1 756 875.5 L 750 875.5  A 2.5 2.5 0 0 1 747.5 873 L 747.5 867  Z " fill-rule="nonzero" fill="#f0f0f0" stroke="none" />
  <path d="M 747.5 867  A 2.5 2.5 0 0 1 750 864.5 L 756 864.5  A 2.5 2.5 0 0 1 758.5 867 L 758.5 873  A 2.5 2.5 0 0 1 756 875.5 L 750 875.5  A 2.5 2.5 0 0 1 747.5 873 L 747.5 867  Z " stroke-width="1" stroke="#797979" fill="none" />
</svg>