<?xml version="1.0" encoding="utf-8"?>
<svg version="1.1" xmlns:xlink="http://www.w3.org/1999/xlink" width="12px" height="12px" viewBox="670 864  12 12" xmlns="http://www.w3.org/2000/svg">
  <path d="M 670.5 867  A 2.5 2.5 0 0 1 673 864.5 L 679 864.5  A 2.5 2.5 0 0 1 681.5 867 L 681.5 873  A 2.5 2.5 0 0 1 679 875.5 L 673 875.5  A 2.5 2.5 0 0 1 670.5 873 L 670.5 867  Z " fill-rule="nonzero" fill="#f0f0f0" stroke="none" />
  <path d="M 670.5 867  A 2.5 2.5 0 0 1 673 864.5 L 679 864.5  A 2.5 2.5 0 0 1 681.5 867 L 681.5 873  A 2.5 2.5 0 0 1 679 875.5 L 673 875.5  A 2.5 2.5 0 0 1 670.5 873 L 670.5 867  Z " stroke-width="1" stroke="#797979" fill="none" />
</svg>