<?xml version="1.0" encoding="utf-8"?>
<svg version="1.1" xmlns:xlink="http://www.w3.org/1999/xlink" width="12px" height="12px" viewBox="891 1012  12 12" xmlns="http://www.w3.org/2000/svg">
  <path d="M 897 1012  C 900.36 1012  903 1014.64  903 1018  C 903 1021.36  900.36 1024  897 1024  C 893.64 1024  891 1021.36  891 1018  C 891 1014.64  893.64 1012  897 1012  Z " fill-rule="nonzero" fill="#ffffff" stroke="none" />
  <path d="M 897 1012.5  C 900.08 1012.5  902.5 1014.92  902.5 1018  C 902.5 1021.08  900.08 1023.5  897 1023.5  C 893.92 1023.5  891.5 1021.08  891.5 1018  C 891.5 1014.92  893.92 1012.5  897 1012.5  Z " stroke-width="1" stroke="#797979" fill="none" />
  <path d="M 897 1021  C 895.32 1021  894 1019.68  894 1018  C 894 1016.32  895.32 1015  897 1015  C 898.68 1015  900 1016.32  900 1018  C 900 1019.68  898.68 1021  897 1021  " fill-rule="nonzero" fill="#797979" stroke="none" />
</svg>