<?xml version="1.0" encoding="utf-8"?>
<svg version="1.1" xmlns:xlink="http://www.w3.org/1999/xlink" width="12px" height="12px" viewBox="1061 2445  12 12" xmlns="http://www.w3.org/2000/svg">
  <path d="M 1061.5 2448  A 2.5 2.5 0 0 1 1064 2445.5 L 1070 2445.5  A 2.5 2.5 0 0 1 1072.5 2448 L 1072.5 2454  A 2.5 2.5 0 0 1 1070 2456.5 L 1064 2456.5  A 2.5 2.5 0 0 1 1061.5 2454 L 1061.5 2448  Z " fill-rule="nonzero" fill="#ffffff" stroke="none" />
  <path d="M 1061.5 2448  A 2.5 2.5 0 0 1 1064 2445.5 L 1070 2445.5  A 2.5 2.5 0 0 1 1072.5 2448 L 1072.5 2454  A 2.5 2.5 0 0 1 1070 2456.5 L 1064 2456.5  A 2.5 2.5 0 0 1 1061.5 2454 L 1061.5 2448  Z " stroke-width="1" stroke="#797979" fill="none" />
</svg>