<?xml version="1.0" encoding="utf-8"?>
<svg version="1.1" xmlns:xlink="http://www.w3.org/1999/xlink" width="12px" height="12px" viewBox="2012 333  12 12" xmlns="http://www.w3.org/2000/svg">
  <path d="M 2012.5 336  A 2.5 2.5 0 0 1 2015 333.5 L 2021 333.5  A 2.5 2.5 0 0 1 2023.5 336 L 2023.5 342  A 2.5 2.5 0 0 1 2021 344.5 L 2015 344.5  A 2.5 2.5 0 0 1 2012.5 342 L 2012.5 336  Z " fill-rule="nonzero" fill="#f0f0f0" stroke="none" />
  <path d="M 2012.5 336  A 2.5 2.5 0 0 1 2015 333.5 L 2021 333.5  A 2.5 2.5 0 0 1 2023.5 336 L 2023.5 342  A 2.5 2.5 0 0 1 2021 344.5 L 2015 344.5  A 2.5 2.5 0 0 1 2012.5 342 L 2012.5 336  Z " stroke-width="1" stroke="#797979" fill="none" />
  <path d="M 2014.57142857143 339  L 2017.14285714286 341.571428571429  " stroke-width="2.57142857142857" stroke="#797979" fill="none" />
  <path d="M 2017.14285714286 341.571428571429  L 2021.42857142857 335.571428571429  " stroke-width="2.57142857142857" stroke="#797979" fill="none" />
</svg>