<?xml version="1.0" encoding="utf-8"?>
<svg version="1.1" xmlns:xlink="http://www.w3.org/1999/xlink" width="12px" height="12px" viewBox="2012 402  12 12" xmlns="http://www.w3.org/2000/svg">
  <path d="M 2012.5 405  A 2.5 2.5 0 0 1 2015 402.5 L 2021 402.5  A 2.5 2.5 0 0 1 2023.5 405 L 2023.5 411  A 2.5 2.5 0 0 1 2021 413.5 L 2015 413.5  A 2.5 2.5 0 0 1 2012.5 411 L 2012.5 405  Z " fill-rule="nonzero" fill="#ffffff" stroke="none" />
  <path d="M 2012.5 405  A 2.5 2.5 0 0 1 2015 402.5 L 2021 402.5  A 2.5 2.5 0 0 1 2023.5 405 L 2023.5 411  A 2.5 2.5 0 0 1 2021 413.5 L 2015 413.5  A 2.5 2.5 0 0 1 2012.5 411 L 2012.5 405  Z " stroke-width="1" stroke="#797979" fill="none" />
</svg>