<?xml version="1.0" encoding="utf-8"?>
<svg version="1.1" xmlns:xlink="http://www.w3.org/1999/xlink" width="12px" height="12px" viewBox="2012 262  12 12" xmlns="http://www.w3.org/2000/svg">
  <path d="M 2012.5 265  A 2.5 2.5 0 0 1 2015 262.5 L 2021 262.5  A 2.5 2.5 0 0 1 2023.5 265 L 2023.5 271  A 2.5 2.5 0 0 1 2021 273.5 L 2015 273.5  A 2.5 2.5 0 0 1 2012.5 271 L 2012.5 265  Z " fill-rule="nonzero" fill="#f0f0f0" stroke="none" />
  <path d="M 2012.5 265  A 2.5 2.5 0 0 1 2015 262.5 L 2021 262.5  A 2.5 2.5 0 0 1 2023.5 265 L 2023.5 271  A 2.5 2.5 0 0 1 2021 273.5 L 2015 273.5  A 2.5 2.5 0 0 1 2012.5 271 L 2012.5 265  Z " stroke-width="1" stroke="#797979" fill="none" />
</svg>