<?xml version="1.0" encoding="utf-8"?>
<svg version="1.1" xmlns:xlink="http://www.w3.org/1999/xlink" width="12px" height="12px" viewBox="2012 573  12 12" xmlns="http://www.w3.org/2000/svg">
  <path d="M 2012.5 576  A 2.5 2.5 0 0 1 2015 573.5 L 2021 573.5  A 2.5 2.5 0 0 1 2023.5 576 L 2023.5 582  A 2.5 2.5 0 0 1 2021 584.5 L 2015 584.5  A 2.5 2.5 0 0 1 2012.5 582 L 2012.5 576  Z " fill-rule="nonzero" fill="#f0f0f0" stroke="none" />
  <path d="M 2012.5 576  A 2.5 2.5 0 0 1 2015 573.5 L 2021 573.5  A 2.5 2.5 0 0 1 2023.5 576 L 2023.5 582  A 2.5 2.5 0 0 1 2021 584.5 L 2015 584.5  A 2.5 2.5 0 0 1 2012.5 582 L 2012.5 576  Z " stroke-width="1" stroke="#797979" fill="none" />
  <path d="M 2014.57142857143 579  L 2017.14285714286 581.571428571429  " stroke-width="2.57142857142857" stroke="#797979" fill="none" />
  <path d="M 2017.14285714286 581.571428571429  L 2021.42857142857 575.571428571429  " stroke-width="2.57142857142857" stroke="#797979" fill="none" />
</svg>