<?xml version="1.0" encoding="utf-8"?>
<svg version="1.1" xmlns:xlink="http://www.w3.org/1999/xlink" width="12px" height="12px" viewBox="2012 504  12 12" xmlns="http://www.w3.org/2000/svg">
  <path d="M 2012.5 507  A 2.5 2.5 0 0 1 2015 504.5 L 2021 504.5  A 2.5 2.5 0 0 1 2023.5 507 L 2023.5 513  A 2.5 2.5 0 0 1 2021 515.5 L 2015 515.5  A 2.5 2.5 0 0 1 2012.5 513 L 2012.5 507  Z " fill-rule="nonzero" fill="#35ea02" stroke="none" />
  <path d="M 2012.5 507  A 2.5 2.5 0 0 1 2015 504.5 L 2021 504.5  A 2.5 2.5 0 0 1 2023.5 507 L 2023.5 513  A 2.5 2.5 0 0 1 2021 515.5 L 2015 515.5  A 2.5 2.5 0 0 1 2012.5 513 L 2012.5 507  Z " stroke-width="1" stroke="#000000" fill="none" />
  <path d="M 2014.57142857143 510  L 2017.14285714286 512.571428571429  " stroke-width="2.57142857142857" stroke="#000000" fill="none" />
  <path d="M 2017.14285714286 512.571428571429  L 2021.42857142857 506.571428571429  " stroke-width="2.57142857142857" stroke="#000000" fill="none" />
</svg>