<?xml version="1.0" encoding="utf-8"?>
<svg version="1.1" xmlns:xlink="http://www.w3.org/1999/xlink" width="12px" height="12px" viewBox="2012 540  12 12" xmlns="http://www.w3.org/2000/svg">
  <path d="M 2012.5 543  A 2.5 2.5 0 0 1 2015 540.5 L 2021 540.5  A 2.5 2.5 0 0 1 2023.5 543 L 2023.5 549  A 2.5 2.5 0 0 1 2021 551.5 L 2015 551.5  A 2.5 2.5 0 0 1 2012.5 549 L 2012.5 543  Z " fill-rule="nonzero" fill="#ffffff" stroke="none" />
  <path d="M 2012.5 543  A 2.5 2.5 0 0 1 2015 540.5 L 2021 540.5  A 2.5 2.5 0 0 1 2023.5 543 L 2023.5 549  A 2.5 2.5 0 0 1 2021 551.5 L 2015 551.5  A 2.5 2.5 0 0 1 2012.5 549 L 2012.5 543  Z " stroke-width="1" stroke="#797979" fill="none" />
</svg>