<?xml version="1.0" encoding="utf-8"?>
<svg version="1.1" xmlns:xlink="http://www.w3.org/1999/xlink" width="12px" height="12px" viewBox="2012 437  12 12" xmlns="http://www.w3.org/2000/svg">
  <path d="M 2012.5 440  A 2.5 2.5 0 0 1 2015 437.5 L 2021 437.5  A 2.5 2.5 0 0 1 2023.5 440 L 2023.5 446  A 2.5 2.5 0 0 1 2021 448.5 L 2015 448.5  A 2.5 2.5 0 0 1 2012.5 446 L 2012.5 440  Z " fill-rule="nonzero" fill="#35ea02" stroke="none" />
  <path d="M 2012.5 440  A 2.5 2.5 0 0 1 2015 437.5 L 2021 437.5  A 2.5 2.5 0 0 1 2023.5 440 L 2023.5 446  A 2.5 2.5 0 0 1 2021 448.5 L 2015 448.5  A 2.5 2.5 0 0 1 2012.5 446 L 2012.5 440  Z " stroke-width="1" stroke="#000000" fill="none" />
  <path d="M 2014.57142857143 443  L 2017.14285714286 445.571428571429  " stroke-width="2.57142857142857" stroke="#000000" fill="none" />
  <path d="M 2017.14285714286 445.571428571429  L 2021.42857142857 439.571428571429  " stroke-width="2.57142857142857" stroke="#000000" fill="none" />
</svg>