<?xml version="1.0" encoding="utf-8"?>
<svg version="1.1" xmlns:xlink="http://www.w3.org/1999/xlink" width="17px" height="16px" xmlns="http://www.w3.org/2000/svg">
  <g transform="matrix(1 0 0 1 -1340 -603 )">
    <path d="M 7.08333333333333 12.3958333333333  C 7.27517361111111 12.3958333333333  7.44118923611111 12.3298611111111  7.58138020833333 12.1979166666667  L 14.376953125 5.80208333333333  C 14.5171440972222 5.67013888888889  14.5872395833333 5.51388888888889  14.5872395833333 5.33333333333333  C 14.5872395833333 5.15277777777778  14.5171440972222 4.99652777777778  14.376953125 4.86458333333333  L 13.248046875 3.80208333333333  C 13.1078559027778 3.67013888888889  12.9418402777778 3.60416666666667  12.75 3.60416666666667  C 12.5581597222222 3.60416666666667  12.3921440972222 3.67013888888889  12.251953125 3.80208333333333  L 7.08333333333333 8.66666666666667  L 4.748046875 6.46875  C 4.60785590277778 6.33680555555556  4.44184027777778 6.27083333333333  4.25 6.27083333333333  C 4.05815972222222 6.27083333333333  3.89214409722222 6.33680555555556  3.751953125 6.46875  L 2.623046875 7.53125  C 2.48285590277778 7.66319444444444  2.41276041666667 7.81944444444444  2.41276041666667 8  C 2.41276041666667 8.18055555555555  2.48285590277778 8.33680555555555  2.623046875 8.46875  L 6.58528645833333 12.1979166666667  C 6.72547743055556 12.3298611111111  6.89149305555556 12.3958333333333  7.08333333333333 12.3958333333333  Z M 16.0647786458333 0.880208333333334  C 16.6882595486111 1.46701388888889  17 2.17361111111111  17 3  L 17 13  C 17 13.8263888888889  16.6882595486111 14.5329861111111  16.0647786458333 15.1197916666667  C 15.4412977430556 15.7065972222222  14.6905381944444 16  13.8125 16  L 3.1875 16  C 2.30946180555556 16  1.55870225694444 15.7065972222222  0.935221354166667 15.1197916666667  C 0.311740451388889 14.5329861111111  0 13.8263888888889  0 13  L 0 3  C 0 2.17361111111111  0.311740451388889 1.46701388888889  0.935221354166667 0.880208333333334  C 1.55870225694444 0.293402777777777  2.30946180555556 0  3.1875 0  L 13.8125 0  C 14.6905381944444 0  15.4412977430556 0.293402777777777  16.0647786458333 0.880208333333334  Z " fill-rule="nonzero" fill="#0f930e" stroke="none" transform="matrix(1 0 0 1 1340 603 )" />
  </g>
</svg>