<?xml version="1.0" encoding="utf-8"?>
<svg version="1.1" xmlns:xlink="http://www.w3.org/1999/xlink" width="20px" height="17px" xmlns="http://www.w3.org/2000/svg">
  <g transform="matrix(1 0 0 1 -2025 -167 )">
    <path d="M 19.0651558073654 0  C 19.4617563739377 0  19.7403210576015 0.156960227272728  19.9008498583569 0.470880681818182  C 20.0613786591124 0.800899621212119  19.9952785646837 1.0826231060606  19.7025495750708 1.31605113636364  L 12.7195467422096 7.26846590909091  L 12.7195467422096 16.2272727272727  C 12.7195467422096 16.5653409090909  12.5354107648725 16.8027935606061  12.1671388101983 16.9396306818182  C 12.0443814919736 16.9798768939394  11.9263456090652 17  11.8130311614731 17  C 11.5580736543909 17  11.3456090651558 16.9235321969697  11.1756373937677 16.7705965909091  L 7.54957507082153 13.6796875  C 7.37016052880076 13.5267518939394  7.28045325779037 13.3456439393939  7.28045325779037 13.1363636363636  L 7.28045325779037 7.26846590909091  L 0.297450424929179 1.31605113636364  C 0.00472143531633616 1.0826231060606  -0.0613786591123702 0.800899621212119  0.0991501416430595 0.470880681818182  C 0.259678942398489 0.156960227272728  0.538243626062323 0  0.934844192634561 0  L 19.0651558073654 0  Z " fill-rule="nonzero" fill="#797979" stroke="none" transform="matrix(1 0 0 1 2025 167 )" />
  </g>
</svg>