<?xml version="1.0" encoding="utf-8"?>
<svg version="1.1" xmlns:xlink="http://www.w3.org/1999/xlink" width="12px" height="12px" viewBox="485 194  12 12" xmlns="http://www.w3.org/2000/svg">
  <path d="M 491 194  C 494.36 194  497 196.64  497 200  C 497 203.36  494.36 206  491 206  C 487.64 206  485 203.36  485 200  C 485 196.64  487.64 194  491 194  Z " fill-rule="nonzero" fill="#f0f0f0" stroke="none" />
  <path d="M 491 194.5  C 494.08 194.5  496.5 196.92  496.5 200  C 496.5 203.08  494.08 205.5  491 205.5  C 487.92 205.5  485.5 203.08  485.5 200  C 485.5 196.92  487.92 194.5  491 194.5  Z " stroke-width="1" stroke="#797979" fill="none" />
  <path d="M 491 203  C 489.32 203  488 201.68  488 200  C 488 198.32  489.32 197  491 197  C 492.68 197  494 198.32  494 200  C 494 201.68  492.68 203  491 203  " fill-rule="nonzero" fill="#797979" stroke="none" />
</svg>