<?xml version="1.0" encoding="utf-8"?>
<svg version="1.1" xmlns:xlink="http://www.w3.org/1999/xlink" width="12px" height="12px" viewBox="2326 288  12 12" xmlns="http://www.w3.org/2000/svg">
  <path d="M 2326.5 291  A 2.5 2.5 0 0 1 2329 288.5 L 2335 288.5  A 2.5 2.5 0 0 1 2337.5 291 L 2337.5 297  A 2.5 2.5 0 0 1 2335 299.5 L 2329 299.5  A 2.5 2.5 0 0 1 2326.5 297 L 2326.5 291  Z " fill-rule="nonzero" fill="#f0f0f0" stroke="none" />
  <path d="M 2326.5 291  A 2.5 2.5 0 0 1 2329 288.5 L 2335 288.5  A 2.5 2.5 0 0 1 2337.5 291 L 2337.5 297  A 2.5 2.5 0 0 1 2335 299.5 L 2329 299.5  A 2.5 2.5 0 0 1 2326.5 297 L 2326.5 291  Z " stroke-width="1" stroke="#797979" fill="none" />
</svg>