<?xml version="1.0" encoding="utf-8"?>
<svg version="1.1" xmlns:xlink="http://www.w3.org/1999/xlink" width="12px" height="12px" viewBox="2326 359  12 12" xmlns="http://www.w3.org/2000/svg">
  <path d="M 2326.5 362  A 2.5 2.5 0 0 1 2329 359.5 L 2335 359.5  A 2.5 2.5 0 0 1 2337.5 362 L 2337.5 368  A 2.5 2.5 0 0 1 2335 370.5 L 2329 370.5  A 2.5 2.5 0 0 1 2326.5 368 L 2326.5 362  Z " fill-rule="nonzero" fill="#f0f0f0" stroke="none" />
  <path d="M 2326.5 362  A 2.5 2.5 0 0 1 2329 359.5 L 2335 359.5  A 2.5 2.5 0 0 1 2337.5 362 L 2337.5 368  A 2.5 2.5 0 0 1 2335 370.5 L 2329 370.5  A 2.5 2.5 0 0 1 2326.5 368 L 2326.5 362  Z " stroke-width="1" stroke="#797979" fill="none" />
</svg>