<?xml version="1.0" encoding="utf-8"?>
<svg version="1.1" xmlns:xlink="http://www.w3.org/1999/xlink" width="12px" height="12px" viewBox="2326 253  12 12" xmlns="http://www.w3.org/2000/svg">
  <path d="M 2327.5 256  A 1.5 1.5 0 0 1 2329 254.5 L 2335 254.5  A 1.5 1.5 0 0 1 2336.5 256 L 2336.5 262  A 1.5 1.5 0 0 1 2335 263.5 L 2329 263.5  A 1.5 1.5 0 0 1 2327.5 262 L 2327.5 256  Z " fill-rule="nonzero" fill="#ffffff" stroke="none" />
  <path d="M 2327 256  A 2 2 0 0 1 2329 254 L 2335 254  A 2 2 0 0 1 2337 256 L 2337 262  A 2 2 0 0 1 2335 264 L 2329 264  A 2 2 0 0 1 2327 262 L 2327 256  Z " stroke-width="2" stroke="#9d41c8" fill="none" />
</svg>