<?xml version="1.0" encoding="utf-8"?>
<svg version="1.1" xmlns:xlink="http://www.w3.org/1999/xlink" width="12px" height="12px" viewBox="2326 288  12 12" xmlns="http://www.w3.org/2000/svg">
  <path d="M 2327.5 291  A 1.5 1.5 0 0 1 2329 289.5 L 2335 289.5  A 1.5 1.5 0 0 1 2336.5 291 L 2336.5 297  A 1.5 1.5 0 0 1 2335 298.5 L 2329 298.5  A 1.5 1.5 0 0 1 2327.5 297 L 2327.5 291  Z " fill-rule="nonzero" fill="#ffffff" stroke="none" />
  <path d="M 2327 291  A 2 2 0 0 1 2329 289 L 2335 289  A 2 2 0 0 1 2337 291 L 2337 297  A 2 2 0 0 1 2335 299 L 2329 299  A 2 2 0 0 1 2327 297 L 2327 291  Z " stroke-width="2" stroke="#9d41c8" fill="none" />
</svg>