<?xml version="1.0" encoding="utf-8"?>
<svg version="1.1" xmlns:xlink="http://www.w3.org/1999/xlink" width="12px" height="12px" viewBox="2326 323  12 12" xmlns="http://www.w3.org/2000/svg">
  <path d="M 2326.5 326  A 2.5 2.5 0 0 1 2329 323.5 L 2335 323.5  A 2.5 2.5 0 0 1 2337.5 326 L 2337.5 332  A 2.5 2.5 0 0 1 2335 334.5 L 2329 334.5  A 2.5 2.5 0 0 1 2326.5 332 L 2326.5 326  Z " fill-rule="nonzero" fill="#9d41c8" stroke="none" />
  <path d="M 2326.5 326  A 2.5 2.5 0 0 1 2329 323.5 L 2335 323.5  A 2.5 2.5 0 0 1 2337.5 326 L 2337.5 332  A 2.5 2.5 0 0 1 2335 334.5 L 2329 334.5  A 2.5 2.5 0 0 1 2326.5 332 L 2326.5 326  Z " stroke-width="1" stroke="#ffffff" fill="none" />
  <path d="M 2328.57142857143 329  L 2331.14285714286 331.571428571429  " stroke-width="2.57142857142857" stroke="#ffffff" fill="none" />
  <path d="M 2331.14285714286 331.571428571429  L 2335.42857142857 325.571428571429  " stroke-width="2.57142857142857" stroke="#ffffff" fill="none" />
</svg>