<?xml version="1.0" encoding="utf-8"?>
<svg version="1.1" xmlns:xlink="http://www.w3.org/1999/xlink" width="12px" height="12px" viewBox="2326 359  12 12" xmlns="http://www.w3.org/2000/svg">
  <path d="M 2327.5 362  A 1.5 1.5 0 0 1 2329 360.5 L 2335 360.5  A 1.5 1.5 0 0 1 2336.5 362 L 2336.5 368  A 1.5 1.5 0 0 1 2335 369.5 L 2329 369.5  A 1.5 1.5 0 0 1 2327.5 368 L 2327.5 362  Z " fill-rule="nonzero" fill="#ffffff" stroke="none" />
  <path d="M 2327 362  A 2 2 0 0 1 2329 360 L 2335 360  A 2 2 0 0 1 2337 362 L 2337 368  A 2 2 0 0 1 2335 370 L 2329 370  A 2 2 0 0 1 2327 368 L 2327 362  Z " stroke-width="2" stroke="#9d41c8" fill="none" />
</svg>