<?xml version="1.0" encoding="utf-8"?>
<svg version="1.1" xmlns:xlink="http://www.w3.org/1999/xlink" width="38px" height="35px" xmlns="http://www.w3.org/2000/svg">
  <g transform="matrix(1 0 0 1 -118 -29 )">
    <path d="M 11.6205357142857 1.38671875  C 13.9672619047619 0.462239583333333  16.4270833333333 0  19 0  C 21.5729166666667 0  24.0327380952381 0.462239583333333  26.3794642857143 1.38671875  C 28.7261904761905 2.31119791666667  30.7477678571429 3.5546875  32.4441964285714 5.1171875  C 34.140625 6.6796875  35.4906994047619 8.54166666666666  36.4944196428571 10.703125  C 37.4981398809524 12.8645833333333  38 15.1302083333333  38 17.5  C 38 19.8567708333333  37.5016741071429 22.1158854166667  36.5050223214286 24.27734375  C 35.5083705357143 26.4388020833333  34.1618303571429 28.30078125  32.4654017857143 29.86328125  C 30.7689732142857 31.42578125  28.7473958333333 32.6725260416667  26.4006696428571 33.603515625  C 24.053943452381 34.5345052083333  21.5870535714286 35  19 35  C 16.4129464285714 35  13.946056547619 34.5377604166667  11.5993303571429 33.61328125  C 9.25260416666667 32.6888020833333  7.23456101190476 31.4420572916667  5.54520089285714 29.873046875  C 3.85584077380952 28.3040364583333  2.5093005952381 26.4420572916667  1.50558035714286 24.287109375  C 0.501860119047619 22.1321614583333  0 19.8697916666667  0 17.5  C 0 15.1302083333333  0.501860119047619 12.8645833333333  1.50558035714286 10.703125  C 2.5093005952381 8.54166666666666  3.859375 6.6796875  5.55580357142857 5.1171875  C 7.25223214285714 3.5546875  9.27380952380953 2.31119791666667  11.6205357142857 1.38671875  Z M 25.6372767857143 20  C 29.0301339285714 20  31.1930803571429 22.12890625  32.1261160714286 26.38671875  C 34.2325148809524 23.7174479166667  35.2857142857143 20.7552083333333  35.2857142857143 17.5  C 35.2857142857143 15.46875  34.8545386904762 13.5286458333333  33.9921875 11.6796875  C 33.1298363095238 9.83072916666667  31.9706101190476 8.23567708333333  30.5145089285714 6.89453125  C 29.0584077380952 5.55338541666667  27.3266369047619 4.48567708333333  25.3191964285714 3.69140625  C 23.311755952381 2.89713541666666  21.2053571428571 2.5  19 2.5  C 16.7946428571429 2.5  14.688244047619 2.89713541666666  12.6808035714286 3.69140625  C 10.6733630952381 4.48567708333333  8.94159226190476 5.55338541666667  7.48549107142857 6.89453125  C 6.02938988095238 8.23567708333333  4.87016369047619 9.83072916666667  4.0078125 11.6796875  C 3.14546130952381 13.5286458333333  2.71428571428571 15.46875  2.71428571428571 17.5  C 2.71428571428571 20.7552083333333  3.76748511904762 23.7174479166667  5.87388392857143 26.38671875  C 6.80691964285714 22.12890625  8.96986607142857 20  12.3627232142857 20  C 14.2146577380952 21.6666666666667  16.4270833333333 22.5  19 22.5  C 21.5729166666667 22.5  23.7853422619048 21.6666666666667  25.6372767857143 20  Z M 24.7572544642857 19.052734375  C 26.34765625 17.587890625  27.1428571428571 15.8203125  27.1428571428571 13.75  C 27.1428571428571 11.6796875  26.34765625 9.912109375  24.7572544642857 8.447265625  C 23.1668526785714 6.982421875  21.2477678571429 6.25  19 6.25  C 16.7522321428571 6.25  14.8331473214286 6.982421875  13.2427455357143 8.447265625  C 11.65234375 9.912109375  10.8571428571429 11.6796875  10.8571428571429 13.75  C 10.8571428571429 15.8203125  11.65234375 17.587890625  13.2427455357143 19.052734375  C 14.8331473214286 20.517578125  16.7522321428571 21.25  19 21.25  C 21.2477678571429 21.25  23.1668526785714 20.517578125  24.7572544642857 19.052734375  Z " fill-rule="nonzero" fill="#a408bf" stroke="none" transform="matrix(1 0 0 1 118 29 )" />
  </g>
</svg>