<?xml version="1.0" encoding="utf-8"?>
<svg version="1.1" xmlns:xlink="http://www.w3.org/1999/xlink" width="31px" height="35px" xmlns="http://www.w3.org/2000/svg">
  <g transform="matrix(1 0 0 1 -171 -29 )">
    <path d="M 15.5 33.4375  C 15.698717948718 33.4375  15.7980769230769 33.3333333333333  15.7980769230769 33.125  C 15.7980769230769 32.9166666666667  15.698717948718 32.8125  15.5 32.8125  C 14.7672275641026 32.8125  14.1369190705128 32.5358072916667  13.6090745192308 31.982421875  C 13.0812299679487 31.4290364583333  12.8173076923077 30.7682291666667  12.8173076923077 30  C 12.8173076923077 29.7916666666667  12.7179487179487 29.6875  12.5192307692308 29.6875  C 12.3205128205128 29.6875  12.2211538461538 29.7916666666667  12.2211538461538 30  C 12.2211538461538 30.9505208333333  12.5409655448718 31.7610677083333  13.1805889423077 32.431640625  C 13.8202123397436 33.1022135416667  14.5933493589744 33.4375  15.5 33.4375  Z M 8.34615384615384 11.25  C 8.34615384615384 18.1770833333333  6.6943108974359 23.59375  3.390625 27  L 27.609375 27  C 24.3056891025641 23.59375  22.6538461538462 18.1770833333333  22.6538461538462 11.25  C 22.6538461538462 10.5859375  22.5048076923077 9.90234375  22.2067307692308 9.19921875  C 21.9086538461538 8.49609375  21.4801682692308 7.82552083333333  20.9212740384615 7.1875  C 20.3623798076923 6.54947916666667  19.6078725961538 6.025390625  18.6577524038462 5.615234375  C 17.7076322115385 5.205078125  16.6550480769231 5  15.5 5  C 14.3449519230769 5  13.2923677884615 5.205078125  12.3422475961538 5.615234375  C 11.3921274038462 6.025390625  10.6376201923077 6.54947916666667  10.0787259615385 7.1875  C 9.51983173076923 7.82552083333333  9.09134615384616 8.49609375  8.79326923076923 9.19921875  C 8.49519230769231 9.90234375  8.34615384615384 10.5859375  8.34615384615384 11.25  Z M 29.3046875 25.78125  C 29.8139022435897 26.3802083333333  30.3790064102564 26.953125  31 27.5  C 31 28.1770833333333  30.7640224358974 28.7630208333333  30.2920673076923 29.2578125  C 29.8201121794872 29.7526041666667  29.261217948718 30  28.6153846153846 30  L 20.2692307692308 30  C 20.2692307692308 31.3802083333333  19.8034855769231 32.55859375  18.8719951923077 33.53515625  C 17.9405048076923 34.51171875  16.8165064102564 35  15.5 35  C 14.1834935897436 35  13.0594951923077 34.51171875  12.1280048076923 33.53515625  C 11.1965144230769 32.55859375  10.7307692307692 31.3802083333333  10.7307692307692 30  L 2.38461538461538 30  C 1.73878205128205 30  1.17988782051282 29.7526041666667  0.707932692307692 29.2578125  C 0.235977564102564 28.7630208333333  0 28.1770833333333  0 27.5  C 0.62099358974359 26.953125  1.18609775641026 26.3802083333333  1.6953125 25.78125  C 2.20452724358974 25.1822916666667  2.7323717948718 24.404296875  3.27884615384615 23.447265625  C 3.82532051282051 22.490234375  4.28796073717949 21.4583333333333  4.66676682692308 20.3515625  C 5.04557291666667 19.2447916666667  5.35606971153846 17.9036458333333  5.59825721153846 16.328125  C 5.84044471153846 14.7526041666667  5.96153846153846 13.0598958333333  5.96153846153846 11.25  C 5.96153846153846 9.27083333333333  6.68810096153846 7.431640625  8.14122596153846 5.732421875  C 9.59435096153846 4.033203125  11.5008012820513 3.00130208333333  13.8605769230769 2.63671875  C 13.7612179487179 2.38932291666666  13.7115384615385 2.13541666666667  13.7115384615385 1.875  C 13.7115384615385 1.35416666666667  13.8854166666667 0.911458333333332  14.2331730769231 0.546875  C 14.5809294871795 0.182291666666668  15.0032051282051 0  15.5 0  C 15.9967948717949 0  16.4190705128205 0.182291666666668  16.7668269230769 0.546875  C 17.1145833333333 0.911458333333332  17.2884615384615 1.35416666666667  17.2884615384615 1.875  C 17.2884615384615 2.13541666666667  17.2387820512821 2.38932291666666  17.1394230769231 2.63671875  C 19.4991987179487 3.00130208333333  21.4056490384615 4.033203125  22.8587740384615 5.732421875  C 24.3118990384615 7.431640625  25.0384615384615 9.27083333333333  25.0384615384615 11.25  C 25.0384615384615 13.0598958333333  25.1595552884615 14.7526041666667  25.4017427884615 16.328125  C 25.6439302884615 17.9036458333333  25.9544270833333 19.2447916666667  26.3332331730769 20.3515625  C 26.7120392628205 21.4583333333333  27.1746794871795 22.490234375  27.7211538461538 23.447265625  C 28.2676282051282 24.404296875  28.7954727564103 25.1822916666667  29.3046875 25.78125  Z " fill-rule="nonzero" fill="#8c8c8c" stroke="none" transform="matrix(1 0 0 1 171 29 )" />
  </g>
</svg>