<?xml version="1.0" encoding="utf-8"?>
<svg version="1.1" xmlns:xlink="http://www.w3.org/1999/xlink" width="12px" height="12px" viewBox="2217 415  12 12" xmlns="http://www.w3.org/2000/svg">
  <path d="M 2218.5 418  A 1.5 1.5 0 0 1 2220 416.5 L 2226 416.5  A 1.5 1.5 0 0 1 2227.5 418 L 2227.5 424  A 1.5 1.5 0 0 1 2226 425.5 L 2220 425.5  A 1.5 1.5 0 0 1 2218.5 424 L 2218.5 418  Z " fill-rule="nonzero" fill="#ffffff" stroke="none" />
  <path d="M 2218 418  A 2 2 0 0 1 2220 416 L 2226 416  A 2 2 0 0 1 2228 418 L 2228 424  A 2 2 0 0 1 2226 426 L 2220 426  A 2 2 0 0 1 2218 424 L 2218 418  Z " stroke-width="2" stroke="#9d41c8" fill="none" />
</svg>