<?xml version="1.0" encoding="utf-8"?>
<svg version="1.1" xmlns:xlink="http://www.w3.org/1999/xlink" width="12px" height="12px" viewBox="2217 382  12 12" xmlns="http://www.w3.org/2000/svg">
  <path d="M 2217.5 385  A 2.5 2.5 0 0 1 2220 382.5 L 2226 382.5  A 2.5 2.5 0 0 1 2228.5 385 L 2228.5 391  A 2.5 2.5 0 0 1 2226 393.5 L 2220 393.5  A 2.5 2.5 0 0 1 2217.5 391 L 2217.5 385  Z " fill-rule="nonzero" fill="#f0f0f0" stroke="none" />
  <path d="M 2217.5 385  A 2.5 2.5 0 0 1 2220 382.5 L 2226 382.5  A 2.5 2.5 0 0 1 2228.5 385 L 2228.5 391  A 2.5 2.5 0 0 1 2226 393.5 L 2220 393.5  A 2.5 2.5 0 0 1 2217.5 391 L 2217.5 385  Z " stroke-width="1" stroke="#797979" fill="none" />
</svg>