<?xml version="1.0" encoding="utf-8"?>
<svg version="1.1" xmlns:xlink="http://www.w3.org/1999/xlink" width="12px" height="12px" viewBox="2217 349  12 12" xmlns="http://www.w3.org/2000/svg">
  <path d="M 2217.5 352  A 2.5 2.5 0 0 1 2220 349.5 L 2226 349.5  A 2.5 2.5 0 0 1 2228.5 352 L 2228.5 358  A 2.5 2.5 0 0 1 2226 360.5 L 2220 360.5  A 2.5 2.5 0 0 1 2217.5 358 L 2217.5 352  Z " fill-rule="nonzero" fill="#9d41c8" stroke="none" />
  <path d="M 2217.5 352  A 2.5 2.5 0 0 1 2220 349.5 L 2226 349.5  A 2.5 2.5 0 0 1 2228.5 352 L 2228.5 358  A 2.5 2.5 0 0 1 2226 360.5 L 2220 360.5  A 2.5 2.5 0 0 1 2217.5 358 L 2217.5 352  Z " stroke-width="1" stroke="#ffffff" fill="none" />
  <path d="M 2219.57142857143 355  L 2222.14285714286 357.571428571429  " stroke-width="2.57142857142857" stroke="#ffffff" fill="none" />
  <path d="M 2222.14285714286 357.571428571429  L 2226.42857142857 351.571428571429  " stroke-width="2.57142857142857" stroke="#ffffff" fill="none" />
</svg>