<?xml version="1.0" encoding="utf-8"?>
<svg version="1.1" xmlns:xlink="http://www.w3.org/1999/xlink" width="12px" height="12px" viewBox="2217 415  12 12" xmlns="http://www.w3.org/2000/svg">
  <path d="M 2217.5 418  A 2.5 2.5 0 0 1 2220 415.5 L 2226 415.5  A 2.5 2.5 0 0 1 2228.5 418 L 2228.5 424  A 2.5 2.5 0 0 1 2226 426.5 L 2220 426.5  A 2.5 2.5 0 0 1 2217.5 424 L 2217.5 418  Z " fill-rule="nonzero" fill="#ffffff" stroke="none" />
  <path d="M 2217.5 418  A 2.5 2.5 0 0 1 2220 415.5 L 2226 415.5  A 2.5 2.5 0 0 1 2228.5 418 L 2228.5 424  A 2.5 2.5 0 0 1 2226 426.5 L 2220 426.5  A 2.5 2.5 0 0 1 2217.5 424 L 2217.5 418  Z " stroke-width="1" stroke="#797979" fill="none" />
</svg>