<?xml version="1.0" encoding="utf-8"?>
<svg version="1.1" xmlns:xlink="http://www.w3.org/1999/xlink" width="12px" height="12px" viewBox="2217 317  12 12" xmlns="http://www.w3.org/2000/svg">
  <path d="M 2218.5 320  A 1.5 1.5 0 0 1 2220 318.5 L 2226 318.5  A 1.5 1.5 0 0 1 2227.5 320 L 2227.5 326  A 1.5 1.5 0 0 1 2226 327.5 L 2220 327.5  A 1.5 1.5 0 0 1 2218.5 326 L 2218.5 320  Z " fill-rule="nonzero" fill="#ffffff" stroke="none" />
  <path d="M 2218 320  A 2 2 0 0 1 2220 318 L 2226 318  A 2 2 0 0 1 2228 320 L 2228 326  A 2 2 0 0 1 2226 328 L 2220 328  A 2 2 0 0 1 2218 326 L 2218 320  Z " stroke-width="2" stroke="#9d41c8" fill="none" />
</svg>