<?xml version="1.0" encoding="utf-8"?>
<svg version="1.1" xmlns:xlink="http://www.w3.org/1999/xlink" width="12px" height="12px" viewBox="2217 280  12 12" xmlns="http://www.w3.org/2000/svg">
  <path d="M 2217.5 283  A 2.5 2.5 0 0 1 2220 280.5 L 2226 280.5  A 2.5 2.5 0 0 1 2228.5 283 L 2228.5 289  A 2.5 2.5 0 0 1 2226 291.5 L 2220 291.5  A 2.5 2.5 0 0 1 2217.5 289 L 2217.5 283  Z " fill-rule="nonzero" fill="#f0f0f0" stroke="none" />
  <path d="M 2217.5 283  A 2.5 2.5 0 0 1 2220 280.5 L 2226 280.5  A 2.5 2.5 0 0 1 2228.5 283 L 2228.5 289  A 2.5 2.5 0 0 1 2226 291.5 L 2220 291.5  A 2.5 2.5 0 0 1 2217.5 289 L 2217.5 283  Z " stroke-width="1" stroke="#797979" fill="none" />
  <path d="M 2219.57142857143 286  L 2222.14285714286 288.571428571429  " stroke-width="2.57142857142857" stroke="#797979" fill="none" />
  <path d="M 2222.14285714286 288.571428571429  L 2226.42857142857 282.571428571429  " stroke-width="2.57142857142857" stroke="#797979" fill="none" />
</svg>