<?xml version="1.0" encoding="utf-8"?>
<svg version="1.1" xmlns:xlink="http://www.w3.org/1999/xlink" width="12px" height="12px" viewBox="2217 243  12 12" xmlns="http://www.w3.org/2000/svg">
  <path d="M 2217.5 246  A 2.5 2.5 0 0 1 2220 243.5 L 2226 243.5  A 2.5 2.5 0 0 1 2228.5 246 L 2228.5 252  A 2.5 2.5 0 0 1 2226 254.5 L 2220 254.5  A 2.5 2.5 0 0 1 2217.5 252 L 2217.5 246  Z " fill-rule="nonzero" fill="#f0f0f0" stroke="none" />
  <path d="M 2217.5 246  A 2.5 2.5 0 0 1 2220 243.5 L 2226 243.5  A 2.5 2.5 0 0 1 2228.5 246 L 2228.5 252  A 2.5 2.5 0 0 1 2226 254.5 L 2220 254.5  A 2.5 2.5 0 0 1 2217.5 252 L 2217.5 246  Z " stroke-width="1" stroke="#797979" fill="none" />
</svg>