<?xml version="1.0" encoding="utf-8"?>
<svg version="1.1" xmlns:xlink="http://www.w3.org/1999/xlink" width="12px" height="12px" viewBox="2217 516  12 12" xmlns="http://www.w3.org/2000/svg">
  <path d="M 2218.5 519  A 1.5 1.5 0 0 1 2220 517.5 L 2226 517.5  A 1.5 1.5 0 0 1 2227.5 519 L 2227.5 525  A 1.5 1.5 0 0 1 2226 526.5 L 2220 526.5  A 1.5 1.5 0 0 1 2218.5 525 L 2218.5 519  Z " fill-rule="nonzero" fill="#ffffff" stroke="none" />
  <path d="M 2218 519  A 2 2 0 0 1 2220 517 L 2226 517  A 2 2 0 0 1 2228 519 L 2228 525  A 2 2 0 0 1 2226 527 L 2220 527  A 2 2 0 0 1 2218 525 L 2218 519  Z " stroke-width="2" stroke="#9d41c8" fill="none" />
</svg>