<?xml version="1.0" encoding="utf-8"?>
<svg version="1.1" xmlns:xlink="http://www.w3.org/1999/xlink" width="12px" height="12px" viewBox="2217 280  12 12" xmlns="http://www.w3.org/2000/svg">
  <path d="M 2218.5 283  A 1.5 1.5 0 0 1 2220 281.5 L 2226 281.5  A 1.5 1.5 0 0 1 2227.5 283 L 2227.5 289  A 1.5 1.5 0 0 1 2226 290.5 L 2220 290.5  A 1.5 1.5 0 0 1 2218.5 289 L 2218.5 283  Z " fill-rule="nonzero" fill="#ffffff" stroke="none" />
  <path d="M 2218 283  A 2 2 0 0 1 2220 281 L 2226 281  A 2 2 0 0 1 2228 283 L 2228 289  A 2 2 0 0 1 2226 291 L 2220 291  A 2 2 0 0 1 2218 289 L 2218 283  Z " stroke-width="2" stroke="#9d41c8" fill="none" />
</svg>