<?xml version="1.0" encoding="utf-8"?>
<svg version="1.1" xmlns:xlink="http://www.w3.org/1999/xlink" width="12px" height="12px" viewBox="2217 243  12 12" xmlns="http://www.w3.org/2000/svg">
  <path d="M 2218.5 246  A 1.5 1.5 0 0 1 2220 244.5 L 2226 244.5  A 1.5 1.5 0 0 1 2227.5 246 L 2227.5 252  A 1.5 1.5 0 0 1 2226 253.5 L 2220 253.5  A 1.5 1.5 0 0 1 2218.5 252 L 2218.5 246  Z " fill-rule="nonzero" fill="#ffffff" stroke="none" />
  <path d="M 2218 246  A 2 2 0 0 1 2220 244 L 2226 244  A 2 2 0 0 1 2228 246 L 2228 252  A 2 2 0 0 1 2226 254 L 2220 254  A 2 2 0 0 1 2218 252 L 2218 246  Z " stroke-width="2" stroke="#9d41c8" fill="none" />
</svg>