<?xml version="1.0" encoding="utf-8"?>
<svg version="1.1" xmlns:xlink="http://www.w3.org/1999/xlink" width="12px" height="12px" viewBox="2217 382  12 12" xmlns="http://www.w3.org/2000/svg">
  <path d="M 2218.5 385  A 1.5 1.5 0 0 1 2220 383.5 L 2226 383.5  A 1.5 1.5 0 0 1 2227.5 385 L 2227.5 391  A 1.5 1.5 0 0 1 2226 392.5 L 2220 392.5  A 1.5 1.5 0 0 1 2218.5 391 L 2218.5 385  Z " fill-rule="nonzero" fill="#ffffff" stroke="none" />
  <path d="M 2218 385  A 2 2 0 0 1 2220 383 L 2226 383  A 2 2 0 0 1 2228 385 L 2228 391  A 2 2 0 0 1 2226 393 L 2220 393  A 2 2 0 0 1 2218 391 L 2218 385  Z " stroke-width="2" stroke="#9d41c8" fill="none" />
</svg>