<?xml version="1.0" encoding="utf-8"?>
<svg version="1.1" xmlns:xlink="http://www.w3.org/1999/xlink" width="12px" height="12px" viewBox="2217 317  12 12" xmlns="http://www.w3.org/2000/svg">
  <path d="M 2217.5 320  A 2.5 2.5 0 0 1 2220 317.5 L 2226 317.5  A 2.5 2.5 0 0 1 2228.5 320 L 2228.5 326  A 2.5 2.5 0 0 1 2226 328.5 L 2220 328.5  A 2.5 2.5 0 0 1 2217.5 326 L 2217.5 320  Z " fill-rule="nonzero" fill="#f0f0f0" stroke="none" />
  <path d="M 2217.5 320  A 2.5 2.5 0 0 1 2220 317.5 L 2226 317.5  A 2.5 2.5 0 0 1 2228.5 320 L 2228.5 326  A 2.5 2.5 0 0 1 2226 328.5 L 2220 328.5  A 2.5 2.5 0 0 1 2217.5 326 L 2217.5 320  Z " stroke-width="1" stroke="#797979" fill="none" />
</svg>