<?xml version="1.0" encoding="utf-8"?>
<svg version="1.1" xmlns:xlink="http://www.w3.org/1999/xlink" width="12px" height="12px" viewBox="2217 349  12 12" xmlns="http://www.w3.org/2000/svg">
  <path d="M 2218.5 352  A 1.5 1.5 0 0 1 2220 350.5 L 2226 350.5  A 1.5 1.5 0 0 1 2227.5 352 L 2227.5 358  A 1.5 1.5 0 0 1 2226 359.5 L 2220 359.5  A 1.5 1.5 0 0 1 2218.5 358 L 2218.5 352  Z " fill-rule="nonzero" fill="#ffffff" stroke="none" />
  <path d="M 2218 352  A 2 2 0 0 1 2220 350 L 2226 350  A 2 2 0 0 1 2228 352 L 2228 358  A 2 2 0 0 1 2226 360 L 2220 360  A 2 2 0 0 1 2218 358 L 2218 352  Z " stroke-width="2" stroke="#9d41c8" fill="none" />
</svg>