<?xml version="1.0" encoding="utf-8"?>
<svg version="1.1" xmlns:xlink="http://www.w3.org/1999/xlink" width="12px" height="12px" viewBox="2217 317  12 12" xmlns="http://www.w3.org/2000/svg">
  <path d="M 2217.5 320  A 2.5 2.5 0 0 1 2220 317.5 L 2226 317.5  A 2.5 2.5 0 0 1 2228.5 320 L 2228.5 326  A 2.5 2.5 0 0 1 2226 328.5 L 2220 328.5  A 2.5 2.5 0 0 1 2217.5 326 L 2217.5 320  Z " fill-rule="nonzero" fill="#9d41c8" stroke="none" />
  <path d="M 2217.5 320  A 2.5 2.5 0 0 1 2220 317.5 L 2226 317.5  A 2.5 2.5 0 0 1 2228.5 320 L 2228.5 326  A 2.5 2.5 0 0 1 2226 328.5 L 2220 328.5  A 2.5 2.5 0 0 1 2217.5 326 L 2217.5 320  Z " stroke-width="1" stroke="#ffffff" fill="none" />
  <path d="M 2219.57142857143 323  L 2222.14285714286 325.571428571429  " stroke-width="2.57142857142857" stroke="#ffffff" fill="none" />
  <path d="M 2222.14285714286 325.571428571429  L 2226.42857142857 319.571428571429  " stroke-width="2.57142857142857" stroke="#ffffff" fill="none" />
</svg>