<?xml version="1.0" encoding="utf-8"?>
<svg version="1.1" xmlns:xlink="http://www.w3.org/1999/xlink" width="12px" height="12px" viewBox="2217 551  12 12" xmlns="http://www.w3.org/2000/svg">
  <path d="M 2218.5 554  A 1.5 1.5 0 0 1 2220 552.5 L 2226 552.5  A 1.5 1.5 0 0 1 2227.5 554 L 2227.5 560  A 1.5 1.5 0 0 1 2226 561.5 L 2220 561.5  A 1.5 1.5 0 0 1 2218.5 560 L 2218.5 554  Z " fill-rule="nonzero" fill="#ffffff" stroke="none" />
  <path d="M 2218 554  A 2 2 0 0 1 2220 552 L 2226 552  A 2 2 0 0 1 2228 554 L 2228 560  A 2 2 0 0 1 2226 562 L 2220 562  A 2 2 0 0 1 2218 560 L 2218 554  Z " stroke-width="2" stroke="#9d41c8" fill="none" />
</svg>