<?xml version="1.0" encoding="utf-8"?>
<svg version="1.1" xmlns:xlink="http://www.w3.org/1999/xlink" width="12px" height="12px" viewBox="2217 480  12 12" xmlns="http://www.w3.org/2000/svg">
  <path d="M 2217.5 483  A 2.5 2.5 0 0 1 2220 480.5 L 2226 480.5  A 2.5 2.5 0 0 1 2228.5 483 L 2228.5 489  A 2.5 2.5 0 0 1 2226 491.5 L 2220 491.5  A 2.5 2.5 0 0 1 2217.5 489 L 2217.5 483  Z " fill-rule="nonzero" fill="#9d41c8" stroke="none" />
  <path d="M 2217.5 483  A 2.5 2.5 0 0 1 2220 480.5 L 2226 480.5  A 2.5 2.5 0 0 1 2228.5 483 L 2228.5 489  A 2.5 2.5 0 0 1 2226 491.5 L 2220 491.5  A 2.5 2.5 0 0 1 2217.5 489 L 2217.5 483  Z " stroke-width="1" stroke="#ffffff" fill="none" />
  <path d="M 2219.57142857143 486  L 2222.14285714286 488.571428571429  " stroke-width="2.57142857142857" stroke="#ffffff" fill="none" />
  <path d="M 2222.14285714286 488.571428571429  L 2226.42857142857 482.571428571429  " stroke-width="2.57142857142857" stroke="#ffffff" fill="none" />
</svg>