<?xml version="1.0" encoding="utf-8"?>
<svg version="1.1" xmlns:xlink="http://www.w3.org/1999/xlink" width="12px" height="12px" viewBox="2217 551  12 12" xmlns="http://www.w3.org/2000/svg">
  <path d="M 2217.5 554  A 2.5 2.5 0 0 1 2220 551.5 L 2226 551.5  A 2.5 2.5 0 0 1 2228.5 554 L 2228.5 560  A 2.5 2.5 0 0 1 2226 562.5 L 2220 562.5  A 2.5 2.5 0 0 1 2217.5 560 L 2217.5 554  Z " fill-rule="nonzero" fill="#f0f0f0" stroke="none" />
  <path d="M 2217.5 554  A 2.5 2.5 0 0 1 2220 551.5 L 2226 551.5  A 2.5 2.5 0 0 1 2228.5 554 L 2228.5 560  A 2.5 2.5 0 0 1 2226 562.5 L 2220 562.5  A 2.5 2.5 0 0 1 2217.5 560 L 2217.5 554  Z " stroke-width="1" stroke="#797979" fill="none" />
</svg>