<?xml version="1.0" encoding="utf-8"?>
<svg version="1.1" xmlns:xlink="http://www.w3.org/1999/xlink" width="12px" height="12px" viewBox="2217 480  12 12" xmlns="http://www.w3.org/2000/svg">
  <path d="M 2218.5 483  A 1.5 1.5 0 0 1 2220 481.5 L 2226 481.5  A 1.5 1.5 0 0 1 2227.5 483 L 2227.5 489  A 1.5 1.5 0 0 1 2226 490.5 L 2220 490.5  A 1.5 1.5 0 0 1 2218.5 489 L 2218.5 483  Z " fill-rule="nonzero" fill="#ffffff" stroke="none" />
  <path d="M 2218 483  A 2 2 0 0 1 2220 481 L 2226 481  A 2 2 0 0 1 2228 483 L 2228 489  A 2 2 0 0 1 2226 491 L 2220 491  A 2 2 0 0 1 2218 489 L 2218 483  Z " stroke-width="2" stroke="#9d41c8" fill="none" />
</svg>