<?xml version="1.0" encoding="utf-8"?>
<svg version="1.1" xmlns:xlink="http://www.w3.org/1999/xlink" width="12px" height="12px" viewBox="1490 327  12 12" xmlns="http://www.w3.org/2000/svg">
  <path d="M 1490.5 330  A 2.5 2.5 0 0 1 1493 327.5 L 1499 327.5  A 2.5 2.5 0 0 1 1501.5 330 L 1501.5 336  A 2.5 2.5 0 0 1 1499 338.5 L 1493 338.5  A 2.5 2.5 0 0 1 1490.5 336 L 1490.5 330  Z " fill-rule="nonzero" fill="#ffffff" stroke="none" />
  <path d="M 1490.5 330  A 2.5 2.5 0 0 1 1493 327.5 L 1499 327.5  A 2.5 2.5 0 0 1 1501.5 330 L 1501.5 336  A 2.5 2.5 0 0 1 1499 338.5 L 1493 338.5  A 2.5 2.5 0 0 1 1490.5 336 L 1490.5 330  Z " stroke-width="1" stroke="#797979" fill="none" />
</svg>