<?xml version="1.0" encoding="utf-8"?>
<svg version="1.1" xmlns:xlink="http://www.w3.org/1999/xlink" width="12px" height="12px" viewBox="1490 327  12 12" xmlns="http://www.w3.org/2000/svg">
  <path d="M 1491.5 330  A 1.5 1.5 0 0 1 1493 328.5 L 1499 328.5  A 1.5 1.5 0 0 1 1500.5 330 L 1500.5 336  A 1.5 1.5 0 0 1 1499 337.5 L 1493 337.5  A 1.5 1.5 0 0 1 1491.5 336 L 1491.5 330  Z " fill-rule="nonzero" fill="#ffffff" stroke="none" />
  <path d="M 1491 330  A 2 2 0 0 1 1493 328 L 1499 328  A 2 2 0 0 1 1501 330 L 1501 336  A 2 2 0 0 1 1499 338 L 1493 338  A 2 2 0 0 1 1491 336 L 1491 330  Z " stroke-width="2" stroke="#9d41c8" fill="none" />
</svg>