<?xml version="1.0" encoding="utf-8"?>
<svg version="1.1" xmlns:xlink="http://www.w3.org/1999/xlink" width="12px" height="12px" viewBox="1490 405  12 12" xmlns="http://www.w3.org/2000/svg">
  <path d="M 1491.5 408  A 1.5 1.5 0 0 1 1493 406.5 L 1499 406.5  A 1.5 1.5 0 0 1 1500.5 408 L 1500.5 414  A 1.5 1.5 0 0 1 1499 415.5 L 1493 415.5  A 1.5 1.5 0 0 1 1491.5 414 L 1491.5 408  Z " fill-rule="nonzero" fill="#ffffff" stroke="none" />
  <path d="M 1491 408  A 2 2 0 0 1 1493 406 L 1499 406  A 2 2 0 0 1 1501 408 L 1501 414  A 2 2 0 0 1 1499 416 L 1493 416  A 2 2 0 0 1 1491 414 L 1491 408  Z " stroke-width="2" stroke="#9d41c8" fill="none" />
</svg>