<?xml version="1.0" encoding="utf-8"?>
<svg version="1.1" xmlns:xlink="http://www.w3.org/1999/xlink" width="18px" height="12px" xmlns="http://www.w3.org/2000/svg">
  <g transform="matrix(1 0 0 1 -1628 -227 )">
    <path d="M 17.1586402266289 0  C 17.5155807365439 0  17.7662889518414 0.110795454545455  17.9107648725212 0.332386363636364  C 18.0552407932011 0.565340909090908  17.9957507082153 0.764204545454545  17.7322946175637 0.928977272727272  L 11.4475920679887 5.13068181818182  L 11.4475920679887 11.4545454545455  C 11.4475920679887 11.6931818181818  11.2818696883853 11.8607954545455  10.9504249291785 11.9573863636364  C 10.8399433427762 11.9857954545455  10.7337110481586 12  10.6317280453258 12  C 10.4022662889518 12  10.2110481586402 11.9460227272727  10.0580736543909 11.8380681818182  L 6.79461756373938 9.65625  C 6.63314447592068 9.54829545454545  6.55240793201133 9.42045454545454  6.55240793201133 9.27272727272727  L 6.55240793201133 5.13068181818182  L 0.267705382436261 0.928977272727272  C 0.00424929178470255 0.764204545454545  -0.0552407932011331 0.565340909090908  0.0892351274787535 0.332386363636364  C 0.23371104815864 0.110795454545455  0.484419263456091 0  0.841359773371105 0  L 17.1586402266289 0  Z " fill-rule="nonzero" fill="#797979" stroke="none" transform="matrix(1 0 0 1 1628 227 )" />
  </g>
</svg>