<?xml version="1.0" encoding="utf-8"?>
<svg version="1.1" xmlns:xlink="http://www.w3.org/1999/xlink" width="12px" height="12px" viewBox="1490 367  12 12" xmlns="http://www.w3.org/2000/svg">
  <path d="M 1491.5 370  A 1.5 1.5 0 0 1 1493 368.5 L 1499 368.5  A 1.5 1.5 0 0 1 1500.5 370 L 1500.5 376  A 1.5 1.5 0 0 1 1499 377.5 L 1493 377.5  A 1.5 1.5 0 0 1 1491.5 376 L 1491.5 370  Z " fill-rule="nonzero" fill="#ffffff" stroke="none" />
  <path d="M 1491 370  A 2 2 0 0 1 1493 368 L 1499 368  A 2 2 0 0 1 1501 370 L 1501 376  A 2 2 0 0 1 1499 378 L 1493 378  A 2 2 0 0 1 1491 376 L 1491 370  Z " stroke-width="2" stroke="#9d41c8" fill="none" />
</svg>