<?xml version="1.0" encoding="utf-8"?>
<svg version="1.1" xmlns:xlink="http://www.w3.org/1999/xlink" width="12px" height="12px" viewBox="1490 405  12 12" xmlns="http://www.w3.org/2000/svg">
  <path d="M 1490.5 408  A 2.5 2.5 0 0 1 1493 405.5 L 1499 405.5  A 2.5 2.5 0 0 1 1501.5 408 L 1501.5 414  A 2.5 2.5 0 0 1 1499 416.5 L 1493 416.5  A 2.5 2.5 0 0 1 1490.5 414 L 1490.5 408  Z " fill-rule="nonzero" fill="#9d41c8" stroke="none" />
  <path d="M 1490.5 408  A 2.5 2.5 0 0 1 1493 405.5 L 1499 405.5  A 2.5 2.5 0 0 1 1501.5 408 L 1501.5 414  A 2.5 2.5 0 0 1 1499 416.5 L 1493 416.5  A 2.5 2.5 0 0 1 1490.5 414 L 1490.5 408  Z " stroke-width="1" stroke="#ffffff" fill="none" />
  <path d="M 1492.57142857143 411  L 1495.14285714286 413.571428571429  " stroke-width="2.57142857142857" stroke="#ffffff" fill="none" />
  <path d="M 1495.14285714286 413.571428571429  L 1499.42857142857 407.571428571429  " stroke-width="2.57142857142857" stroke="#ffffff" fill="none" />
</svg>