<?xml version="1.0" encoding="utf-8"?>
<svg version="1.1" xmlns:xlink="http://www.w3.org/1999/xlink" width="12px" height="12px" viewBox="1235 1587  12 12" xmlns="http://www.w3.org/2000/svg">
  <path d="M 1235.5 1590  A 2.5 2.5 0 0 1 1238 1587.5 L 1244 1587.5  A 2.5 2.5 0 0 1 1246.5 1590 L 1246.5 1596  A 2.5 2.5 0 0 1 1244 1598.5 L 1238 1598.5  A 2.5 2.5 0 0 1 1235.5 1596 L 1235.5 1590  Z " fill-rule="nonzero" fill="#ffffff" stroke="none" />
  <path d="M 1235.5 1590  A 2.5 2.5 0 0 1 1238 1587.5 L 1244 1587.5  A 2.5 2.5 0 0 1 1246.5 1590 L 1246.5 1596  A 2.5 2.5 0 0 1 1244 1598.5 L 1238 1598.5  A 2.5 2.5 0 0 1 1235.5 1596 L 1235.5 1590  Z " stroke-width="1" stroke="#797979" fill="none" />
</svg>