<?xml version="1.0" encoding="utf-8"?>
<svg version="1.1" xmlns:xlink="http://www.w3.org/1999/xlink" width="12px" height="12px" viewBox="1235 1620  12 12" xmlns="http://www.w3.org/2000/svg">
  <path d="M 1235.5 1623  A 2.5 2.5 0 0 1 1238 1620.5 L 1244 1620.5  A 2.5 2.5 0 0 1 1246.5 1623 L 1246.5 1629  A 2.5 2.5 0 0 1 1244 1631.5 L 1238 1631.5  A 2.5 2.5 0 0 1 1235.5 1629 L 1235.5 1623  Z " fill-rule="nonzero" fill="#f0f0f0" stroke="none" />
  <path d="M 1235.5 1623  A 2.5 2.5 0 0 1 1238 1620.5 L 1244 1620.5  A 2.5 2.5 0 0 1 1246.5 1623 L 1246.5 1629  A 2.5 2.5 0 0 1 1244 1631.5 L 1238 1631.5  A 2.5 2.5 0 0 1 1235.5 1629 L 1235.5 1623  Z " stroke-width="1" stroke="#797979" fill="none" />
</svg>