<?xml version="1.0" encoding="utf-8"?>
<svg version="1.1" xmlns:xlink="http://www.w3.org/1999/xlink" width="12px" height="12px" viewBox="968 194  12 12" xmlns="http://www.w3.org/2000/svg">
  <path d="M 968.5 196  A 1.5 1.5 0 0 1 970 194.5 L 978 194.5  A 1.5 1.5 0 0 1 979.5 196 L 979.5 204  A 1.5 1.5 0 0 1 978 205.5 L 970 205.5  A 1.5 1.5 0 0 1 968.5 204 L 968.5 196  Z " fill-rule="nonzero" fill="#f0f0f0" stroke="none" />
  <path d="M 968.5 196  A 1.5 1.5 0 0 1 970 194.5 L 978 194.5  A 1.5 1.5 0 0 1 979.5 196 L 979.5 204  A 1.5 1.5 0 0 1 978 205.5 L 970 205.5  A 1.5 1.5 0 0 1 968.5 204 L 968.5 196  Z " stroke-width="1" stroke="#797979" fill="none" />
  <path d="M 970.571428571429 200  L 973.142857142857 202.571428571429  " stroke-width="2.57142857142857" stroke="#797979" fill="none" />
  <path d="M 973.142857142857 202.571428571429  L 977.428571428571 196.571428571429  " stroke-width="2.57142857142857" stroke="#797979" fill="none" />
</svg>