<?xml version="1.0" encoding="utf-8"?>
<svg version="1.1" xmlns:xlink="http://www.w3.org/1999/xlink" width="12px" height="12px" viewBox="368 193  12 12" xmlns="http://www.w3.org/2000/svg">
  <path d="M 368.5 195  A 1.5 1.5 0 0 1 370 193.5 L 378 193.5  A 1.5 1.5 0 0 1 379.5 195 L 379.5 203  A 1.5 1.5 0 0 1 378 204.5 L 370 204.5  A 1.5 1.5 0 0 1 368.5 203 L 368.5 195  Z " fill-rule="nonzero" fill="#ffffff" stroke="none" />
  <path d="M 368.5 195  A 1.5 1.5 0 0 1 370 193.5 L 378 193.5  A 1.5 1.5 0 0 1 379.5 195 L 379.5 203  A 1.5 1.5 0 0 1 378 204.5 L 370 204.5  A 1.5 1.5 0 0 1 368.5 203 L 368.5 195  Z " stroke-width="1" stroke="#797979" fill="none" />
</svg>