<?xml version="1.0" encoding="utf-8"?>
<svg version="1.1" xmlns:xlink="http://www.w3.org/1999/xlink" width="12px" height="12px" viewBox="968 220  12 12" xmlns="http://www.w3.org/2000/svg">
  <path d="M 968.5 222  A 1.5 1.5 0 0 1 970 220.5 L 978 220.5  A 1.5 1.5 0 0 1 979.5 222 L 979.5 230  A 1.5 1.5 0 0 1 978 231.5 L 970 231.5  A 1.5 1.5 0 0 1 968.5 230 L 968.5 222  Z " fill-rule="nonzero" fill="#ffffff" stroke="none" />
  <path d="M 968.5 222  A 1.5 1.5 0 0 1 970 220.5 L 978 220.5  A 1.5 1.5 0 0 1 979.5 222 L 979.5 230  A 1.5 1.5 0 0 1 978 231.5 L 970 231.5  A 1.5 1.5 0 0 1 968.5 230 L 968.5 222  Z " stroke-width="1" stroke="#797979" fill="none" />
</svg>