<?xml version="1.0" encoding="utf-8"?>
<svg version="1.1" xmlns:xlink="http://www.w3.org/1999/xlink" width="12px" height="12px" viewBox="368 220  12 12" xmlns="http://www.w3.org/2000/svg">
  <path d="M 368.5 222  A 1.5 1.5 0 0 1 370 220.5 L 378 220.5  A 1.5 1.5 0 0 1 379.5 222 L 379.5 230  A 1.5 1.5 0 0 1 378 231.5 L 370 231.5  A 1.5 1.5 0 0 1 368.5 230 L 368.5 222  Z " fill-rule="nonzero" fill="#f0f0f0" stroke="none" />
  <path d="M 368.5 222  A 1.5 1.5 0 0 1 370 220.5 L 378 220.5  A 1.5 1.5 0 0 1 379.5 222 L 379.5 230  A 1.5 1.5 0 0 1 378 231.5 L 370 231.5  A 1.5 1.5 0 0 1 368.5 230 L 368.5 222  Z " stroke-width="1" stroke="#797979" fill="none" />
</svg>