<?xml version="1.0" encoding="utf-8"?>
<svg version="1.1" xmlns:xlink="http://www.w3.org/1999/xlink" width="12px" height="12px" viewBox="792 358  12 12" xmlns="http://www.w3.org/2000/svg">
  <path d="M 792.5 364  A 5.5 5.5 0 0 1 798 358.5 A 5.5 5.5 0 0 1 803.5 364 A 5.5 5.5 0 0 1 798 369.5 A 5.5 5.5 0 0 1 792.5 364 Z " fill-rule="nonzero" fill="#f0f0f0" stroke="none" />
  <path d="M 792.5 364  A 5.5 5.5 0 0 1 798 358.5 A 5.5 5.5 0 0 1 803.5 364 A 5.5 5.5 0 0 1 798 369.5 A 5.5 5.5 0 0 1 792.5 364 Z " stroke-width="1" stroke="#d301ff" fill="none" />
</svg>