<?xml version="1.0" encoding="utf-8"?>
<svg version="1.1" xmlns:xlink="http://www.w3.org/1999/xlink" width="12px" height="12px" viewBox="683 638  12 12" xmlns="http://www.w3.org/2000/svg">
  <path d="M 683.5 644  A 5.5 5.5 0 0 1 689 638.5 A 5.5 5.5 0 0 1 694.5 644 A 5.5 5.5 0 0 1 689 649.5 A 5.5 5.5 0 0 1 683.5 644 Z " fill-rule="nonzero" fill="#ffffff" stroke="none" />
  <path d="M 683.5 644  A 5.5 5.5 0 0 1 689 638.5 A 5.5 5.5 0 0 1 694.5 644 A 5.5 5.5 0 0 1 689 649.5 A 5.5 5.5 0 0 1 683.5 644 Z " stroke-width="1" stroke="#d301ff" fill="none" />
  <path d="M 685.571428571429 644  L 688.142857142857 646.571428571429  " stroke-width="2.57142857142857" stroke="#d301ff" fill="none" />
  <path d="M 688.142857142857 646.571428571429  L 692.428571428571 640.571428571429  " stroke-width="2.57142857142857" stroke="#d301ff" fill="none" />
</svg>