<?xml version="1.0" encoding="utf-8"?>
<svg version="1.1" xmlns:xlink="http://www.w3.org/1999/xlink" width="12px" height="12px" viewBox="792 358  12 12" xmlns="http://www.w3.org/2000/svg">
  <path d="M 792.5 364  A 5.5 5.5 0 0 1 798 358.5 A 5.5 5.5 0 0 1 803.5 364 A 5.5 5.5 0 0 1 798 369.5 A 5.5 5.5 0 0 1 792.5 364 Z " fill-rule="nonzero" fill="#ffffff" stroke="none" />
  <path d="M 792.5 364  A 5.5 5.5 0 0 1 798 358.5 A 5.5 5.5 0 0 1 803.5 364 A 5.5 5.5 0 0 1 798 369.5 A 5.5 5.5 0 0 1 792.5 364 Z " stroke-width="1" stroke="#d301ff" fill="none" />
  <path d="M 794.571428571429 364  L 797.142857142857 366.571428571429  " stroke-width="2.57142857142857" stroke="#d301ff" fill="none" />
  <path d="M 797.142857142857 366.571428571429  L 801.428571428571 360.571428571429  " stroke-width="2.57142857142857" stroke="#d301ff" fill="none" />
</svg>