<?xml version="1.0" encoding="utf-8"?>
<svg version="1.1" xmlns:xlink="http://www.w3.org/1999/xlink" width="12px" height="12px" viewBox="132 511  12 12" xmlns="http://www.w3.org/2000/svg">
  <path d="M 132.5 517  A 5.5 5.5 0 0 1 138 511.5 A 5.5 5.5 0 0 1 143.5 517 A 5.5 5.5 0 0 1 138 522.5 A 5.5 5.5 0 0 1 132.5 517 Z " fill-rule="nonzero" fill="#ffffff" stroke="none" />
  <path d="M 132.5 517  A 5.5 5.5 0 0 1 138 511.5 A 5.5 5.5 0 0 1 143.5 517 A 5.5 5.5 0 0 1 138 522.5 A 5.5 5.5 0 0 1 132.5 517 Z " stroke-width="1" stroke="#d301ff" fill="none" />
</svg>