<?xml version="1.0" encoding="utf-8"?>
<svg version="1.1" xmlns:xlink="http://www.w3.org/1999/xlink" width="12px" height="12px" viewBox="168 328  12 12" xmlns="http://www.w3.org/2000/svg">
  <path d="M 168.5 334  A 5.5 5.5 0 0 1 174 328.5 A 5.5 5.5 0 0 1 179.5 334 A 5.5 5.5 0 0 1 174 339.5 A 5.5 5.5 0 0 1 168.5 334 Z " fill-rule="nonzero" fill="#f0f0f0" stroke="none" />
  <path d="M 168.5 334  A 5.5 5.5 0 0 1 174 328.5 A 5.5 5.5 0 0 1 179.5 334 A 5.5 5.5 0 0 1 174 339.5 A 5.5 5.5 0 0 1 168.5 334 Z " stroke-width="1" stroke="#d301ff" fill="none" />
  <path d="M 170.571428571429 334  L 173.142857142857 336.571428571429  " stroke-width="2.57142857142857" stroke="#d301ff" fill="none" />
  <path d="M 173.142857142857 336.571428571429  L 177.428571428571 330.571428571429  " stroke-width="2.57142857142857" stroke="#d301ff" fill="none" />
</svg>