<?xml version="1.0" encoding="utf-8"?>
<svg version="1.1" xmlns:xlink="http://www.w3.org/1999/xlink" width="12px" height="12px" viewBox="584 195  12 12" xmlns="http://www.w3.org/2000/svg">
  <path d="M 590 195  C 593.36 195  596 197.64  596 201  C 596 204.36  593.36 207  590 207  C 586.64 207  584 204.36  584 201  C 584 197.64  586.64 195  590 195  Z " fill-rule="nonzero" fill="#f0f0f0" stroke="none" />
  <path d="M 590 195.5  C 593.08 195.5  595.5 197.92  595.5 201  C 595.5 204.08  593.08 206.5  590 206.5  C 586.92 206.5  584.5 204.08  584.5 201  C 584.5 197.92  586.92 195.5  590 195.5  Z " stroke-width="1" stroke="#797979" fill="none" />
  <path d="M 590 204  C 588.32 204  587 202.68  587 201  C 587 199.32  588.32 198  590 198  C 591.68 198  593 199.32  593 201  C 593 202.68  591.68 204  590 204  " fill-rule="nonzero" fill="#797979" stroke="none" />
</svg>