<?xml version="1.0" encoding="utf-8"?>
<svg version="1.1" xmlns:xlink="http://www.w3.org/1999/xlink" width="12px" height="12px" viewBox="485 193  12 12" xmlns="http://www.w3.org/2000/svg">
  <path d="M 491 193  C 494.36 193  497 195.64  497 199  C 497 202.36  494.36 205  491 205  C 487.64 205  485 202.36  485 199  C 485 195.64  487.64 193  491 193  Z " fill-rule="nonzero" fill="#ffffff" stroke="none" />
  <path d="M 491 193.5  C 494.08 193.5  496.5 195.92  496.5 199  C 496.5 202.08  494.08 204.5  491 204.5  C 487.92 204.5  485.5 202.08  485.5 199  C 485.5 195.92  487.92 193.5  491 193.5  Z " stroke-width="1" stroke="#797979" fill="none" />
  <path d="M 491 202  C 489.32 202  488 200.68  488 199  C 488 197.32  489.32 196  491 196  C 492.68 196  494 197.32  494 199  C 494 200.68  492.68 202  491 202  " fill-rule="nonzero" fill="#797979" stroke="none" />
</svg>