<?xml version="1.0" encoding="utf-8"?>
<svg version="1.1" xmlns:xlink="http://www.w3.org/1999/xlink" width="23px" height="25px" xmlns="http://www.w3.org/2000/svg">
  <g transform="matrix(1 0 0 1 -64 -25 )">
    <path d="M 5.75 16.6666666666667  L 5.75 23  L 17.25 23  L 17.25 16.6666666666667  L 5.75 16.6666666666667  Z M 19.1666666666667 16.1458333333333  L 19.1666666666667 22.9166666666667  L 21 22.9166666666667  L 21 8.33333333333333  C 21.0833333333333 8.18142361111111  21.0334201388889 7.97254774305556  20.93359375 7.70670572916667  C 20.8337673611111 7.44086371527778  20.7339409722222 7.25368923611111  20.6341145833333 7.14518229166667  L 16.4264322916667 2.57161458333333  C 16.3266059027778 2.46310763888889  16.1569010416667 2.35460069444444  15.9173177083333 2.24609375  C 15.677734375 2.13758680555556  15.4830729166667 2.08333333333333  15.3333333333333 2.08333333333333  L 15.3333333333333 8.85416666666667  C 15.3333333333333 9.28819444444444  15.1935763888889 9.65711805555556  14.9140625 9.9609375  C 14.6345486111111 10.2647569444444  14.2951388888889 10.4166666666667  13.8958333333333 10.4166666666667  L 5.27083333333333 10.4166666666667  C 4.87152777777778 10.4166666666667  4.53211805555556 10.2647569444444  4.25260416666667 9.9609375  C 3.97309027777778 9.65711805555556  3.83333333333333 9.28819444444444  3.83333333333333 8.85416666666667  L 3.83333333333333 2.08333333333333  L 2 2.08333333333333  L 2 22.9166666666667  L 3.83333333333333 22.9166666666667  L 3.83333333333333 16.1458333333333  C 3.83333333333333 15.7118055555556  3.97309027777778 15.3428819444444  4.25260416666667 15.0390625  C 4.53211805555556 14.7352430555556  4.87152777777778 14.5833333333333  5.27083333333333 14.5833333333333  L 17.7291666666667 14.5833333333333  C 18.1284722222222 14.5833333333333  18.4678819444444 14.7352430555556  18.7473958333333 15.0390625  C 19.0269097222222 15.3428819444444  19.1666666666667 15.7118055555556  19.1666666666667 16.1458333333333  Z M 13.2744140625 8.1787109375  C 13.3692491319444 8.07562934027778  13.4166666666667 7.95355902777778  13.4166666666667 7.8125  L 13.4166666666667 2.60416666666667  C 13.4166666666667 2.46310763888889  13.3692491319444 2.34103732638889  13.2744140625 2.23795572916667  C 13.1795789930556 2.13487413194444  13.0672743055556 2.08333333333333  12.9375 2.08333333333333  L 10.0625 2.08333333333333  C 9.93272569444444 2.08333333333333  9.82042100694444 2.13487413194444  9.7255859375 2.23795572916667  C 9.63075086805556 2.34103732638889  9.58333333333333 2.46310763888889  9.58333333333333 2.60416666666667  L 9.58333333333333 7.8125  C 9.58333333333333 7.95355902777778  9.63075086805556 8.07562934027778  9.7255859375 8.1787109375  C 9.82042100694444 8.28179253472222  9.93272569444444 8.33333333333333  10.0625 8.33333333333333  L 12.9375 8.33333333333333  C 13.0672743055556 8.33333333333333  13.1795789930556 8.28179253472222  13.2744140625 8.1787109375  Z M 22.7005208333333 6.90104166666667  C 22.9001736111111 7.421875  23 7.89930555555556  23 8.33333333333333  L 23 23.4375  C 23 23.8715277777778  22.8602430555556 24.2404513888889  22.5807291666667 24.5442708333333  C 22.3012152777778 24.8480902777778  21.9618055555556 25  21.5625 25  L 1.4375 25  C 1.03819444444444 25  0.698784722222222 24.8480902777778  0.419270833333333 24.5442708333333  C 0.139756944444444 24.2404513888889  0 23.8715277777778  0 23.4375  L 0 1.5625  C 0 1.12847222222222  0.139756944444444 0.759548611111108  0.419270833333333 0.455729166666666  C 0.698784722222222 0.151909722222221  1.03819444444444 0  1.4375 0  L 15.3333333333333 0  C 15.7326388888889 0  16.171875 0.108506944444442  16.6510416666667 0.325520833333334  C 17.1302083333333 0.542534722222221  17.5095486111111 0.802951388888887  17.7890625 1.10677083333333  L 21.9817708333333 5.6640625  C 22.2612847222222 5.96788194444444  22.5008680555556 6.38020833333333  22.7005208333333 6.90104166666667  Z " fill-rule="nonzero" fill="#ffffff" stroke="none" transform="matrix(1 0 0 1 64 25 )" />
  </g>
</svg>