<?xml version="1.0" encoding="utf-8"?>
<svg version="1.1" xmlns:xlink="http://www.w3.org/1999/xlink" width="12px" height="12px" viewBox="938 394  12 12" xmlns="http://www.w3.org/2000/svg">
  <path d="M 938.5 397  A 2.5 2.5 0 0 1 941 394.5 L 947 394.5  A 2.5 2.5 0 0 1 949.5 397 L 949.5 403  A 2.5 2.5 0 0 1 947 405.5 L 941 405.5  A 2.5 2.5 0 0 1 938.5 403 L 938.5 397  Z " fill-rule="nonzero" fill="#9d41c8" stroke="none" />
  <path d="M 938.5 397  A 2.5 2.5 0 0 1 941 394.5 L 947 394.5  A 2.5 2.5 0 0 1 949.5 397 L 949.5 403  A 2.5 2.5 0 0 1 947 405.5 L 941 405.5  A 2.5 2.5 0 0 1 938.5 403 L 938.5 397  Z " stroke-width="1" stroke="#ffffff" fill="none" />
  <path d="M 940.571428571429 400  L 943.142857142857 402.571428571429  " stroke-width="2.57142857142857" stroke="#ffffff" fill="none" />
  <path d="M 943.142857142857 402.571428571429  L 947.428571428571 396.571428571429  " stroke-width="2.57142857142857" stroke="#ffffff" fill="none" />
</svg>