<?xml version="1.0" encoding="utf-8"?>
<svg version="1.1" xmlns:xlink="http://www.w3.org/1999/xlink" width="12px" height="12px" viewBox="938 394  12 12" xmlns="http://www.w3.org/2000/svg">
  <path d="M 938.5 397  A 2.5 2.5 0 0 1 941 394.5 L 947 394.5  A 2.5 2.5 0 0 1 949.5 397 L 949.5 403  A 2.5 2.5 0 0 1 947 405.5 L 941 405.5  A 2.5 2.5 0 0 1 938.5 403 L 938.5 397  Z " fill-rule="nonzero" fill="#ffffff" stroke="none" />
  <path d="M 938.5 397  A 2.5 2.5 0 0 1 941 394.5 L 947 394.5  A 2.5 2.5 0 0 1 949.5 397 L 949.5 403  A 2.5 2.5 0 0 1 947 405.5 L 941 405.5  A 2.5 2.5 0 0 1 938.5 403 L 938.5 397  Z " stroke-width="1" stroke="#797979" fill="none" />
</svg>