<?xml version="1.0" encoding="utf-8"?>
<svg version="1.1" xmlns:xlink="http://www.w3.org/1999/xlink" width="12px" height="12px" viewBox="794 394  12 12" xmlns="http://www.w3.org/2000/svg">
  <path d="M 794.5 397  A 2.5 2.5 0 0 1 797 394.5 L 803 394.5  A 2.5 2.5 0 0 1 805.5 397 L 805.5 403  A 2.5 2.5 0 0 1 803 405.5 L 797 405.5  A 2.5 2.5 0 0 1 794.5 403 L 794.5 397  Z " fill-rule="nonzero" fill="#f0f0f0" stroke="none" />
  <path d="M 794.5 397  A 2.5 2.5 0 0 1 797 394.5 L 803 394.5  A 2.5 2.5 0 0 1 805.5 397 L 805.5 403  A 2.5 2.5 0 0 1 803 405.5 L 797 405.5  A 2.5 2.5 0 0 1 794.5 403 L 794.5 397  Z " stroke-width="1" stroke="#797979" fill="none" />
</svg>