<?xml version="1.0" encoding="utf-8"?>
<svg version="1.1" xmlns:xlink="http://www.w3.org/1999/xlink" width="12px" height="12px" viewBox="720 394  12 12" xmlns="http://www.w3.org/2000/svg">
  <path d="M 720.5 397  A 2.5 2.5 0 0 1 723 394.5 L 729 394.5  A 2.5 2.5 0 0 1 731.5 397 L 731.5 403  A 2.5 2.5 0 0 1 729 405.5 L 723 405.5  A 2.5 2.5 0 0 1 720.5 403 L 720.5 397  Z " fill-rule="nonzero" fill="#9d41c8" stroke="none" />
  <path d="M 720.5 397  A 2.5 2.5 0 0 1 723 394.5 L 729 394.5  A 2.5 2.5 0 0 1 731.5 397 L 731.5 403  A 2.5 2.5 0 0 1 729 405.5 L 723 405.5  A 2.5 2.5 0 0 1 720.5 403 L 720.5 397  Z " stroke-width="1" stroke="#ffffff" fill="none" />
  <path d="M 722.571428571429 400  L 725.142857142857 402.571428571429  " stroke-width="2.57142857142857" stroke="#ffffff" fill="none" />
  <path d="M 725.142857142857 402.571428571429  L 729.428571428571 396.571428571429  " stroke-width="2.57142857142857" stroke="#ffffff" fill="none" />
</svg>