<?xml version="1.0" encoding="utf-8"?>
<svg version="1.1" xmlns:xlink="http://www.w3.org/1999/xlink" width="12px" height="12px" viewBox="643 394  12 12" xmlns="http://www.w3.org/2000/svg">
  <path d="M 643.5 397  A 2.5 2.5 0 0 1 646 394.5 L 652 394.5  A 2.5 2.5 0 0 1 654.5 397 L 654.5 403  A 2.5 2.5 0 0 1 652 405.5 L 646 405.5  A 2.5 2.5 0 0 1 643.5 403 L 643.5 397  Z " fill-rule="nonzero" fill="#f0f0f0" stroke="none" />
  <path d="M 643.5 397  A 2.5 2.5 0 0 1 646 394.5 L 652 394.5  A 2.5 2.5 0 0 1 654.5 397 L 654.5 403  A 2.5 2.5 0 0 1 652 405.5 L 646 405.5  A 2.5 2.5 0 0 1 643.5 403 L 643.5 397  Z " stroke-width="1" stroke="#797979" fill="none" />
</svg>