<?xml version="1.0" encoding="utf-8"?>
<svg version="1.1" xmlns:xlink="http://www.w3.org/1999/xlink" width="12px" height="12px" viewBox="1022 2384  12 12" xmlns="http://www.w3.org/2000/svg">
  <path d="M 1022.5 2387  A 2.5 2.5 0 0 1 1025 2384.5 L 1031 2384.5  A 2.5 2.5 0 0 1 1033.5 2387 L 1033.5 2393  A 2.5 2.5 0 0 1 1031 2395.5 L 1025 2395.5  A 2.5 2.5 0 0 1 1022.5 2393 L 1022.5 2387  Z " fill-rule="nonzero" fill="#f0f0f0" stroke="none" />
  <path d="M 1022.5 2387  A 2.5 2.5 0 0 1 1025 2384.5 L 1031 2384.5  A 2.5 2.5 0 0 1 1033.5 2387 L 1033.5 2393  A 2.5 2.5 0 0 1 1031 2395.5 L 1025 2395.5  A 2.5 2.5 0 0 1 1022.5 2393 L 1022.5 2387  Z " stroke-width="1" stroke="#797979" fill="none" />
  <path d="M 1024.57142857143 2390  L 1027.14285714286 2392.57142857143  " stroke-width="2.57142857142857" stroke="#797979" fill="none" />
  <path d="M 1027.14285714286 2392.57142857143  L 1031.42857142857 2386.57142857143  " stroke-width="2.57142857142857" stroke="#797979" fill="none" />
</svg>