<?xml version="1.0" encoding="utf-8"?>
<svg version="1.1" xmlns:xlink="http://www.w3.org/1999/xlink" width="12px" height="12px" viewBox="1022 2411  12 12" xmlns="http://www.w3.org/2000/svg">
  <path d="M 1022.5 2414  A 2.5 2.5 0 0 1 1025 2411.5 L 1031 2411.5  A 2.5 2.5 0 0 1 1033.5 2414 L 1033.5 2420  A 2.5 2.5 0 0 1 1031 2422.5 L 1025 2422.5  A 2.5 2.5 0 0 1 1022.5 2420 L 1022.5 2414  Z " fill-rule="nonzero" fill="#f0f0f0" stroke="none" />
  <path d="M 1022.5 2414  A 2.5 2.5 0 0 1 1025 2411.5 L 1031 2411.5  A 2.5 2.5 0 0 1 1033.5 2414 L 1033.5 2420  A 2.5 2.5 0 0 1 1031 2422.5 L 1025 2422.5  A 2.5 2.5 0 0 1 1022.5 2420 L 1022.5 2414  Z " stroke-width="1" stroke="#797979" fill="none" />
  <path d="M 1024.57142857143 2417  L 1027.14285714286 2419.57142857143  " stroke-width="2.57142857142857" stroke="#797979" fill="none" />
  <path d="M 1027.14285714286 2419.57142857143  L 1031.42857142857 2413.57142857143  " stroke-width="2.57142857142857" stroke="#797979" fill="none" />
</svg>