<?xml version="1.0" encoding="utf-8"?>
<svg version="1.1" xmlns:xlink="http://www.w3.org/1999/xlink" width="23px" height="19px" xmlns="http://www.w3.org/2000/svg">
  <g transform="matrix(1 0 0 1 -1005 -1546 )">
    <path d="M 14.10546875 11.65234375  C 15.3172075320513 10.6513421474359  15.9230769230769 9.44671474358974  15.9230769230769 8.03846153846154  C 15.9230769230769 6.63020833333333  15.3172075320513 5.42558092948718  14.10546875 4.42457932692308  C 12.8937299679487 3.42357772435897  11.4354967948718 2.92307692307692  9.73076923076923 2.92307692307692  C 8.02604166666667 2.92307692307692  6.56780849358974 3.42357772435897  5.35606971153846 4.42457932692308  C 4.14433092948718 5.42558092948718  3.53846153846154 6.63020833333333  3.53846153846154 8.03846153846154  C 3.53846153846154 9.44671474358974  4.14433092948718 10.6513421474359  5.35606971153846 11.65234375  C 6.56780849358974 12.6533453525641  8.02604166666667 13.1538461538462  9.73076923076923 13.1538461538462  C 11.4354967948718 13.1538461538462  12.8937299679487 12.6533453525641  14.10546875 11.65234375  Z M 22.4885817307692 16.5108173076923  C 22.8295272435897 16.7924679487179  23 17.135016025641  23 17.5384615384615  C 23 17.9342948717949  22.8249198717949 18.2768429487179  22.4747596153846 18.5661057692308  C 22.1245993589744 18.8553685897436  21.7099358974359 19  21.2307692307692 19  C 20.7331730769231 19  20.3185096153846 18.8553685897436  19.9867788461538 18.5661057692308  L 15.2457932692308 14.6610576923077  C 13.5963541666667 15.604967948718  11.7580128205128 16.0769230769231  9.73076923076923 16.0769230769231  C 8.4130608974359 16.0769230769231  7.15294471153846 15.8656850961538  5.95042067307692 15.4432091346154  C 4.74789663461539 15.0207331730769  3.71123798076923 14.4498197115385  2.84044471153846 13.73046875  C 1.96965144230769 13.0111177884615  1.27854567307692 12.1547475961538  0.767127403846154 11.1613581730769  C 0.255709134615385 10.16796875  0 9.1270032051282  0 8.03846153846154  C 0 6.94991987179487  0.255709134615385 5.90895432692308  0.767127403846154 4.91556490384615  C 1.27854567307692 3.92217548076923  1.96965144230769 3.06580528846154  2.84044471153846 2.34645432692308  C 3.71123798076923 1.62710336538462  4.74789663461539 1.05618990384615  5.95042067307692 0.633713942307693  C 7.15294471153846 0.21123798076923  8.4130608974359 0  9.73076923076923 0  C 11.0484775641026 0  12.30859375 0.21123798076923  13.5111177884615 0.633713942307693  C 14.7136418269231 1.05618990384615  15.7503004807692 1.62710336538462  16.62109375 2.34645432692308  C 17.4918870192308 3.06580528846154  18.1829927884615 3.92217548076923  18.6944110576923 4.91556490384615  C 19.2058293269231 5.90895432692308  19.4615384615385 6.94991987179487  19.4615384615385 8.03846153846154  C 19.4615384615385 9.71314102564103  18.8902243589744 11.2317708333333  17.7475961538462 12.5943509615385  L 22.4885817307692 16.5108173076923  Z " fill-rule="nonzero" fill="#169bd5" stroke="none" transform="matrix(1 0 0 1 1005 1546 )" />
  </g>
</svg>