<?xml version="1.0" encoding="utf-8"?>
<svg version="1.1" xmlns:xlink="http://www.w3.org/1999/xlink" width="27px" height="14px" xmlns="http://www.w3.org/2000/svg">
  <g transform="matrix(1 0 0 1 -733 -2412 )">
    <path d="M 0.67236328125 9.71796875  C 0.22412109375 8.85390625  0 7.94791666666667  0 7  C 0 6.05208333333333  0.22412109375 5.14609375  0.67236328125 4.28203125  C 1.12060546875 3.41796875  1.720458984375 2.67421875  2.471923828125 2.05078125  C 3.223388671875 1.42734375  4.119873046875 0.9296875  5.161376953125 0.557812499999999  C 6.202880859375 0.1859375  7.294921875 0  8.4375 0  L 18.5625 0  C 19.705078125 0  20.797119140625 0.1859375  21.838623046875 0.557812499999999  C 22.880126953125 0.9296875  23.776611328125 1.42734375  24.528076171875 2.05078125  C 25.279541015625 2.67421875  25.87939453125 3.41796875  26.32763671875 4.28203125  C 26.77587890625 5.14609375  27 6.05208333333333  27 7  C 27 7.94791666666667  26.77587890625 8.85390625  26.32763671875 9.71796875  C 25.87939453125 10.58203125  25.279541015625 11.32578125  24.528076171875 11.94921875  C 23.776611328125 12.57265625  22.880126953125 13.0703125  21.838623046875 13.4421875  C 20.797119140625 13.8140625  19.705078125 14  18.5625 14  L 8.4375 14  C 7.294921875 14  6.202880859375 13.8140625  5.161376953125 13.4421875  C 4.119873046875 13.0703125  3.223388671875 12.57265625  2.471923828125 11.94921875  C 1.720458984375 11.32578125  1.12060546875 10.58203125  0.67236328125 9.71796875  Z M 15.945556640625 12.15703125  C 16.776123046875 12.45234375  17.6484375 12.6  18.5625 12.6  C 19.4765625 12.6  20.348876953125 12.45234375  21.179443359375 12.15703125  C 22.010009765625 11.86171875  22.728515625 11.4625  23.3349609375 10.959375  C 23.94140625 10.45625  24.422607421875 9.86015625  24.778564453125 9.17109375  C 25.134521484375 8.48203125  25.3125 7.75833333333333  25.3125 7  C 25.3125 6.24166666666667  25.134521484375 5.51796875  24.778564453125 4.82890625  C 24.422607421875 4.13984375  23.94140625 3.54375  23.3349609375 3.040625  C 22.728515625 2.5375  22.010009765625 2.13828125  21.179443359375 1.84296875  C 20.348876953125 1.54765625  19.4765625 1.4  18.5625 1.4  C 17.6484375 1.4  16.776123046875 1.54765625  15.945556640625 1.84296875  C 15.114990234375 2.13828125  14.396484375 2.5375  13.7900390625 3.040625  C 13.18359375 3.54375  12.702392578125 4.13984375  12.346435546875 4.82890625  C 11.990478515625 5.51796875  11.8125 6.24166666666667  11.8125 7  C 11.8125 7.75833333333333  11.990478515625 8.48203125  12.346435546875 9.17109375  C 12.702392578125 9.86015625  13.18359375 10.45625  13.7900390625 10.959375  C 14.396484375 11.4625  15.114990234375 11.86171875  15.945556640625 12.15703125  Z " fill-rule="nonzero" fill="#626262" stroke="none" transform="matrix(1 0 0 1 733 2412 )" />
  </g>
</svg>