<?xml version="1.0" encoding="utf-8"?>
<svg version="1.1" xmlns:xlink="http://www.w3.org/1999/xlink" width="41px" height="19px" xmlns="http://www.w3.org/2000/svg">
  <g transform="matrix(1 0 0 1 -1094 -200 )">
    <path d="M 1.02099609375 13.188671875  C 0.34033203125 12.016015625  0 10.7864583333333  0 9.5  C 0 8.21354166666667  0.34033203125 6.983984375  1.02099609375 5.811328125  C 1.70166015625 4.638671875  2.612548828125 3.629296875  3.753662109375 2.783203125  C 4.894775390625 1.937109375  6.256103515625 1.26171875  7.837646484375 0.757031249999999  C 9.419189453125 0.25234375  11.0774739583333 0  12.8125 0  L 28.1875 0  C 29.9225260416667 0  31.580810546875 0.25234375  33.162353515625 0.757031249999999  C 34.743896484375 1.26171875  36.105224609375 1.937109375  37.246337890625 2.783203125  C 38.387451171875 3.629296875  39.29833984375 4.638671875  39.97900390625 5.811328125  C 40.65966796875 6.983984375  41 8.21354166666667  41 9.5  C 41 10.7864583333333  40.65966796875 12.016015625  39.97900390625 13.188671875  C 39.29833984375 14.361328125  38.387451171875 15.370703125  37.246337890625 16.216796875  C 36.105224609375 17.062890625  34.743896484375 17.73828125  33.162353515625 18.24296875  C 31.580810546875 18.74765625  29.9225260416667 19  28.1875 19  L 12.8125 19  C 11.0774739583333 19  9.419189453125 18.74765625  7.837646484375 18.24296875  C 6.256103515625 17.73828125  4.894775390625 17.062890625  3.753662109375 16.216796875  C 2.612548828125 15.370703125  1.70166015625 14.361328125  1.02099609375 13.188671875  Z M 24.213623046875 16.498828125  C 25.474853515625 16.899609375  26.7994791666667 17.1  28.1875 17.1  C 29.5755208333333 17.1  30.900146484375 16.899609375  32.161376953125 16.498828125  C 33.422607421875 16.098046875  34.513671875 15.55625  35.4345703125 14.8734375  C 36.35546875 14.190625  37.086181640625 13.381640625  37.626708984375 12.446484375  C 38.167236328125 11.511328125  38.4375 10.5291666666667  38.4375 9.5  C 38.4375 8.47083333333333  38.167236328125 7.488671875  37.626708984375 6.553515625  C 37.086181640625 5.618359375  36.35546875 4.809375  35.4345703125 4.1265625  C 34.513671875 3.44375  33.422607421875 2.901953125  32.161376953125 2.501171875  C 30.900146484375 2.100390625  29.5755208333333 1.9  28.1875 1.9  C 26.7994791666667 1.9  25.474853515625 2.100390625  24.213623046875 2.501171875  C 22.952392578125 2.901953125  21.861328125 3.44375  20.9404296875 4.1265625  C 20.01953125 4.809375  19.288818359375 5.618359375  18.748291015625 6.553515625  C 18.207763671875 7.488671875  17.9375 8.47083333333333  17.9375 9.5  C 17.9375 10.5291666666667  18.207763671875 11.511328125  18.748291015625 12.446484375  C 19.288818359375 13.381640625  20.01953125 14.190625  20.9404296875 14.8734375  C 21.861328125 15.55625  22.952392578125 16.098046875  24.213623046875 16.498828125  Z " fill-rule="nonzero" fill="#818281" stroke="none" transform="matrix(1 0 0 1 1094 200 )" />
  </g>
</svg>