<?xml version="1.0" encoding="utf-8"?>
<svg version="1.1" xmlns:xlink="http://www.w3.org/1999/xlink" width="12px" height="12px" viewBox="309 1333  12 12" xmlns="http://www.w3.org/2000/svg">
  <path d="M 309.5 1339  A 5.5 5.5 0 0 1 315 1333.5 A 5.5 5.5 0 0 1 320.5 1339 A 5.5 5.5 0 0 1 315 1344.5 A 5.5 5.5 0 0 1 309.5 1339 Z " fill-rule="nonzero" fill="#ffffff" stroke="none" />
  <path d="M 309.5 1339  A 5.5 5.5 0 0 1 315 1333.5 A 5.5 5.5 0 0 1 320.5 1339 A 5.5 5.5 0 0 1 315 1344.5 A 5.5 5.5 0 0 1 309.5 1339 Z " stroke-width="1" stroke="#797979" fill="none" />
  <path d="M 311.571428571429 1339  L 314.142857142857 1341.57142857143  " stroke-width="2.57142857142857" stroke="#797979" fill="none" />
  <path d="M 314.142857142857 1341.57142857143  L 318.428571428571 1335.57142857143  " stroke-width="2.57142857142857" stroke="#797979" fill="none" />
</svg>