<?xml version="1.0" encoding="utf-8"?>
<svg version="1.1" xmlns:xlink="http://www.w3.org/1999/xlink" width="12px" height="12px" viewBox="857 1316  12 12" xmlns="http://www.w3.org/2000/svg">
  <path d="M 857.5 1319  A 2.5 2.5 0 0 1 860 1316.5 L 866 1316.5  A 2.5 2.5 0 0 1 868.5 1319 L 868.5 1325  A 2.5 2.5 0 0 1 866 1327.5 L 860 1327.5  A 2.5 2.5 0 0 1 857.5 1325 L 857.5 1319  Z " fill-rule="nonzero" fill="#f0f0f0" stroke="none" />
  <path d="M 857.5 1319  A 2.5 2.5 0 0 1 860 1316.5 L 866 1316.5  A 2.5 2.5 0 0 1 868.5 1319 L 868.5 1325  A 2.5 2.5 0 0 1 866 1327.5 L 860 1327.5  A 2.5 2.5 0 0 1 857.5 1325 L 857.5 1319  Z " stroke-width="1" stroke="#797979" fill="none" />
  <path d="M 859.571428571429 1322  L 862.142857142857 1324.57142857143  " stroke-width="2.57142857142857" stroke="#797979" fill="none" />
  <path d="M 862.142857142857 1324.57142857143  L 866.428571428571 1318.57142857143  " stroke-width="2.57142857142857" stroke="#797979" fill="none" />
</svg>