<?xml version="1.0" encoding="utf-8"?>
<svg version="1.1" xmlns:xlink="http://www.w3.org/1999/xlink" width="12px" height="12px" viewBox="590 1348  12 12" xmlns="http://www.w3.org/2000/svg">
  <path d="M 590.5 1351  A 2.5 2.5 0 0 1 593 1348.5 L 599 1348.5  A 2.5 2.5 0 0 1 601.5 1351 L 601.5 1357  A 2.5 2.5 0 0 1 599 1359.5 L 593 1359.5  A 2.5 2.5 0 0 1 590.5 1357 L 590.5 1351  Z " fill-rule="nonzero" fill="#f0f0f0" stroke="none" />
  <path d="M 590.5 1351  A 2.5 2.5 0 0 1 593 1348.5 L 599 1348.5  A 2.5 2.5 0 0 1 601.5 1351 L 601.5 1357  A 2.5 2.5 0 0 1 599 1359.5 L 593 1359.5  A 2.5 2.5 0 0 1 590.5 1357 L 590.5 1351  Z " stroke-width="1" stroke="#797979" fill="none" />
  <path d="M 592.571428571429 1354  L 595.142857142857 1356.57142857143  " stroke-width="2.57142857142857" stroke="#797979" fill="none" />
  <path d="M 595.142857142857 1356.57142857143  L 599.428571428571 1350.57142857143  " stroke-width="2.57142857142857" stroke="#797979" fill="none" />
</svg>