<?xml version="1.0" encoding="utf-8"?>
<svg version="1.1" xmlns:xlink="http://www.w3.org/1999/xlink" width="12px" height="12px" viewBox="857 1284  12 12" xmlns="http://www.w3.org/2000/svg">
  <path d="M 857.5 1287  A 2.5 2.5 0 0 1 860 1284.5 L 866 1284.5  A 2.5 2.5 0 0 1 868.5 1287 L 868.5 1293  A 2.5 2.5 0 0 1 866 1295.5 L 860 1295.5  A 2.5 2.5 0 0 1 857.5 1293 L 857.5 1287  Z " fill-rule="nonzero" fill="#9d41c8" stroke="none" />
  <path d="M 857.5 1287  A 2.5 2.5 0 0 1 860 1284.5 L 866 1284.5  A 2.5 2.5 0 0 1 868.5 1287 L 868.5 1293  A 2.5 2.5 0 0 1 866 1295.5 L 860 1295.5  A 2.5 2.5 0 0 1 857.5 1293 L 857.5 1287  Z " stroke-width="1" stroke="#ffffff" fill="none" />
  <path d="M 859.571428571429 1290  L 862.142857142857 1292.57142857143  " stroke-width="2.57142857142857" stroke="#ffffff" fill="none" />
  <path d="M 862.142857142857 1292.57142857143  L 866.428571428571 1286.57142857143  " stroke-width="2.57142857142857" stroke="#ffffff" fill="none" />
</svg>