<?xml version="1.0" encoding="utf-8"?>
<svg version="1.1" xmlns:xlink="http://www.w3.org/1999/xlink" width="12px" height="12px" viewBox="309 1333  12 12" xmlns="http://www.w3.org/2000/svg">
  <path d="M 309.5 1339  A 5.5 5.5 0 0 1 315 1333.5 A 5.5 5.5 0 0 1 320.5 1339 A 5.5 5.5 0 0 1 315 1344.5 A 5.5 5.5 0 0 1 309.5 1339 Z " fill-rule="nonzero" fill="#f0f0f0" stroke="none" />
  <path d="M 309.5 1339  A 5.5 5.5 0 0 1 315 1333.5 A 5.5 5.5 0 0 1 320.5 1339 A 5.5 5.5 0 0 1 315 1344.5 A 5.5 5.5 0 0 1 309.5 1339 Z " stroke-width="1" stroke="#797979" fill="none" />
</svg>