<?xml version="1.0" encoding="utf-8"?>
<svg version="1.1" xmlns:xlink="http://www.w3.org/1999/xlink" width="12px" height="12px" viewBox="309 1284  12 12" xmlns="http://www.w3.org/2000/svg">
  <path d="M 309.5 1290  A 5.5 5.5 0 0 1 315 1284.5 A 5.5 5.5 0 0 1 320.5 1290 A 5.5 5.5 0 0 1 315 1295.5 A 5.5 5.5 0 0 1 309.5 1290 Z " fill-rule="nonzero" fill="#ffffff" stroke="none" />
  <path d="M 309.5 1290  A 5.5 5.5 0 0 1 315 1284.5 A 5.5 5.5 0 0 1 320.5 1290 A 5.5 5.5 0 0 1 315 1295.5 A 5.5 5.5 0 0 1 309.5 1290 Z " stroke-width="1" stroke="#797979" fill="none" />
</svg>