<?xml version="1.0" encoding="utf-8"?>
<svg version="1.1" xmlns:xlink="http://www.w3.org/1999/xlink" width="12px" height="12px" viewBox="1106 1348  12 12" xmlns="http://www.w3.org/2000/svg">
  <path d="M 1106.5 1351  A 2.5 2.5 0 0 1 1109 1348.5 L 1115 1348.5  A 2.5 2.5 0 0 1 1117.5 1351 L 1117.5 1357  A 2.5 2.5 0 0 1 1115 1359.5 L 1109 1359.5  A 2.5 2.5 0 0 1 1106.5 1357 L 1106.5 1351  Z " fill-rule="nonzero" fill="#f0f0f0" stroke="none" />
  <path d="M 1106.5 1351  A 2.5 2.5 0 0 1 1109 1348.5 L 1115 1348.5  A 2.5 2.5 0 0 1 1117.5 1351 L 1117.5 1357  A 2.5 2.5 0 0 1 1115 1359.5 L 1109 1359.5  A 2.5 2.5 0 0 1 1106.5 1357 L 1106.5 1351  Z " stroke-width="1" stroke="#797979" fill="none" />
</svg>