<?xml version="1.0" encoding="utf-8"?>
<svg version="1.1" xmlns:xlink="http://www.w3.org/1999/xlink" width="12px" height="12px" viewBox="1106 1284  12 12" xmlns="http://www.w3.org/2000/svg">
  <path d="M 1106.5 1287  A 2.5 2.5 0 0 1 1109 1284.5 L 1115 1284.5  A 2.5 2.5 0 0 1 1117.5 1287 L 1117.5 1293  A 2.5 2.5 0 0 1 1115 1295.5 L 1109 1295.5  A 2.5 2.5 0 0 1 1106.5 1293 L 1106.5 1287  Z " fill-rule="nonzero" fill="#ffffff" stroke="none" />
  <path d="M 1106.5 1287  A 2.5 2.5 0 0 1 1109 1284.5 L 1115 1284.5  A 2.5 2.5 0 0 1 1117.5 1287 L 1117.5 1293  A 2.5 2.5 0 0 1 1115 1295.5 L 1109 1295.5  A 2.5 2.5 0 0 1 1106.5 1293 L 1106.5 1287  Z " stroke-width="1" stroke="#797979" fill="none" />
</svg>