<?xml version="1.0" encoding="utf-8"?>
<svg version="1.1" xmlns:xlink="http://www.w3.org/1999/xlink" width="67px" height="59px" xmlns="http://www.w3.org/2000/svg">
  <g transform="matrix(1 0 0 1 -95 -43 )">
    <path d="M 20.4888392857143 2.33761160714286  C 24.6264880952381 0.779203869047619  28.9635416666667 0  33.5 0  C 38.0364583333333 0  42.3735119047619 0.779203869047619  46.5111607142857 2.33761160714286  C 50.6488095238095 3.89601934523809  54.2131696428571 5.9921875  57.2042410714286 8.62611607142857  C 60.1953125 11.2600446428571  62.5757068452381 14.3988095238095  64.3454241071429 18.0424107142857  C 66.1151413690476 21.6860119047619  67 25.5052083333333  67 29.5  C 67 33.4728422619048  66.1213727678571 37.2810639880952  64.3641183035714 40.9246651785714  C 62.6068638392857 44.5682663690476  60.2327008928571 47.70703125  57.2416294642857 50.3409598214286  C 54.2505580357143 52.9748883928571  50.6861979166667 55.0765438988095  46.5485491071429 56.6459263392857  C 42.4109002976191 58.2153087797619  38.0613839285714 59  33.5 59  C 28.9386160714286 59  24.589099702381 58.2207961309524  20.4514508928571 56.6623883928571  C 16.3138020833333 55.1039806547619  12.7556733630952 53.0023251488095  9.77706473214286 50.357421875  C 6.79845610119048 47.7125186011905  4.42429315476191 44.5737537202381  2.65457589285714 40.9411272321429  C 0.884858630952381 37.3085007440476  0 33.4947916666667  0 29.5  C 0 25.5052083333333  0.884858630952381 21.6860119047619  2.65457589285714 18.0424107142857  C 4.42429315476191 14.3988095238095  6.8046875 11.2600446428571  9.79575892857143 8.62611607142857  C 12.7868303571429 5.9921875  16.3511904761905 3.89601934523809  20.4888392857143 2.33761160714286  Z M 45.2025669642857 33.7142857142857  C 51.1847098214286 33.7142857142857  54.9983258928571 37.3030133928571  56.6434151785714 44.48046875  C 60.3573288690476 39.9808407738095  62.2142857142857 34.9873511904762  62.2142857142857 29.5  C 62.2142857142857 26.0758928571429  61.4540550595238 22.805431547619  59.93359375 19.6886160714286  C 58.4131324404762 16.5718005952381  56.3692336309524 13.8829985119048  53.8018973214286 11.6222098214286  C 51.2345610119048 9.36142113095238  48.1811755952381 7.56156994047619  44.6417410714286 6.22265625  C 41.1023065476191 4.88374255952381  37.3883928571429 4.21428571428571  33.5 4.21428571428571  C 29.6116071428571 4.21428571428571  25.897693452381 4.88374255952381  22.3582589285714 6.22265625  C 18.8188244047619 7.56156994047619  15.7654389880952 9.36142113095238  13.1981026785714 11.6222098214286  C 10.6307663690476 13.8829985119048  8.58686755952381 16.5718005952381  7.06640625 19.6886160714286  C 5.54594494047619 22.805431547619  4.78571428571429 26.0758928571429  4.78571428571429 29.5  C 4.78571428571429 34.9873511904762  6.64267113095238 39.9808407738095  10.3565848214286 44.48046875  C 12.0016741071429 37.3030133928571  15.8152901785714 33.7142857142857  21.7974330357143 33.7142857142857  C 25.0626860119048 36.5238095238095  28.9635416666667 37.9285714285714  33.5 37.9285714285714  C 38.0364583333333 37.9285714285714  41.9373139880952 36.5238095238095  45.2025669642857 33.7142857142857  Z M 43.6509486607143 32.1174665178571  C 46.455078125 29.6481584821429  47.8571428571429 26.6685267857143  47.8571428571429 23.1785714285714  C 47.8571428571429 19.6886160714286  46.455078125 16.708984375  43.6509486607143 14.2396763392857  C 40.8468191964286 11.7703683035714  37.4631696428571 10.5357142857143  33.5 10.5357142857143  C 29.5368303571429 10.5357142857143  26.1531808035714 11.7703683035714  23.3490513392857 14.2396763392857  C 20.544921875 16.708984375  19.1428571428571 19.6886160714286  19.1428571428571 23.1785714285714  C 19.1428571428571 26.6685267857143  20.544921875 29.6481584821429  23.3490513392857 32.1174665178571  C 26.1531808035714 34.5867745535714  29.5368303571429 35.8214285714286  33.5 35.8214285714286  C 37.4631696428571 35.8214285714286  40.8468191964286 34.5867745535714  43.6509486607143 32.1174665178571  Z " fill-rule="nonzero" fill="#8c8c8c" stroke="none" transform="matrix(1 0 0 1 95 43 )" />
  </g>
</svg>