<?xml version="1.0" encoding="utf-8"?>
<svg version="1.1" xmlns:xlink="http://www.w3.org/1999/xlink" width="12px" height="12px" viewBox="1037 864  12 12" xmlns="http://www.w3.org/2000/svg">
  <path d="M 1037.5 867  A 2.5 2.5 0 0 1 1040 864.5 L 1046 864.5  A 2.5 2.5 0 0 1 1048.5 867 L 1048.5 873  A 2.5 2.5 0 0 1 1046 875.5 L 1040 875.5  A 2.5 2.5 0 0 1 1037.5 873 L 1037.5 867  Z " fill-rule="nonzero" fill="#f0f0f0" stroke="none" />
  <path d="M 1037.5 867  A 2.5 2.5 0 0 1 1040 864.5 L 1046 864.5  A 2.5 2.5 0 0 1 1048.5 867 L 1048.5 873  A 2.5 2.5 0 0 1 1046 875.5 L 1040 875.5  A 2.5 2.5 0 0 1 1037.5 873 L 1037.5 867  Z " stroke-width="1" stroke="#797979" fill="none" />
  <path d="M 1039.57142857143 870  L 1042.14285714286 872.571428571429  " stroke-width="2.57142857142857" stroke="#797979" fill="none" />
  <path d="M 1042.14285714286 872.571428571429  L 1046.42857142857 866.571428571429  " stroke-width="2.57142857142857" stroke="#797979" fill="none" />
</svg>