<?xml version="1.0" encoding="utf-8"?>
<svg version="1.1" xmlns:xlink="http://www.w3.org/1999/xlink" width="12px" height="12px" viewBox="959 864  12 12" xmlns="http://www.w3.org/2000/svg">
  <path d="M 959.5 867  A 2.5 2.5 0 0 1 962 864.5 L 968 864.5  A 2.5 2.5 0 0 1 970.5 867 L 970.5 873  A 2.5 2.5 0 0 1 968 875.5 L 962 875.5  A 2.5 2.5 0 0 1 959.5 873 L 959.5 867  Z " fill-rule="nonzero" fill="#f0f0f0" stroke="none" />
  <path d="M 959.5 867  A 2.5 2.5 0 0 1 962 864.5 L 968 864.5  A 2.5 2.5 0 0 1 970.5 867 L 970.5 873  A 2.5 2.5 0 0 1 968 875.5 L 962 875.5  A 2.5 2.5 0 0 1 959.5 873 L 959.5 867  Z " stroke-width="1" stroke="#797979" fill="none" />
</svg>