<?xml version="1.0" encoding="utf-8"?>
<svg version="1.1" xmlns:xlink="http://www.w3.org/1999/xlink" width="12px" height="12px" viewBox="815 864  12 12" xmlns="http://www.w3.org/2000/svg">
  <path d="M 815.5 867  A 2.5 2.5 0 0 1 818 864.5 L 824 864.5  A 2.5 2.5 0 0 1 826.5 867 L 826.5 873  A 2.5 2.5 0 0 1 824 875.5 L 818 875.5  A 2.5 2.5 0 0 1 815.5 873 L 815.5 867  Z " fill-rule="nonzero" fill="#9d41c8" stroke="none" />
  <path d="M 815.5 867  A 2.5 2.5 0 0 1 818 864.5 L 824 864.5  A 2.5 2.5 0 0 1 826.5 867 L 826.5 873  A 2.5 2.5 0 0 1 824 875.5 L 818 875.5  A 2.5 2.5 0 0 1 815.5 873 L 815.5 867  Z " stroke-width="1" stroke="#ffffff" fill="none" />
  <path d="M 817.571428571429 870  L 820.142857142857 872.571428571429  " stroke-width="2.57142857142857" stroke="#ffffff" fill="none" />
  <path d="M 820.142857142857 872.571428571429  L 824.428571428571 866.571428571429  " stroke-width="2.57142857142857" stroke="#ffffff" fill="none" />
</svg>