<?xml version="1.0" encoding="utf-8"?>
<svg version="1.1" xmlns:xlink="http://www.w3.org/1999/xlink" width="12px" height="12px" viewBox="741 864  12 12" xmlns="http://www.w3.org/2000/svg">
  <path d="M 741.5 867  A 2.5 2.5 0 0 1 744 864.5 L 750 864.5  A 2.5 2.5 0 0 1 752.5 867 L 752.5 873  A 2.5 2.5 0 0 1 750 875.5 L 744 875.5  A 2.5 2.5 0 0 1 741.5 873 L 741.5 867  Z " fill-rule="nonzero" fill="#ffffff" stroke="none" />
  <path d="M 741.5 867  A 2.5 2.5 0 0 1 744 864.5 L 750 864.5  A 2.5 2.5 0 0 1 752.5 867 L 752.5 873  A 2.5 2.5 0 0 1 750 875.5 L 744 875.5  A 2.5 2.5 0 0 1 741.5 873 L 741.5 867  Z " stroke-width="1" stroke="#797979" fill="none" />
</svg>