<?xml version="1.0" encoding="utf-8"?>
<svg version="1.1" xmlns:xlink="http://www.w3.org/1999/xlink" width="12px" height="12px" viewBox="664 864  12 12" xmlns="http://www.w3.org/2000/svg">
  <path d="M 664.5 867  A 2.5 2.5 0 0 1 667 864.5 L 673 864.5  A 2.5 2.5 0 0 1 675.5 867 L 675.5 873  A 2.5 2.5 0 0 1 673 875.5 L 667 875.5  A 2.5 2.5 0 0 1 664.5 873 L 664.5 867  Z " fill-rule="nonzero" fill="#ffffff" stroke="none" />
  <path d="M 664.5 867  A 2.5 2.5 0 0 1 667 864.5 L 673 864.5  A 2.5 2.5 0 0 1 675.5 867 L 675.5 873  A 2.5 2.5 0 0 1 673 875.5 L 667 875.5  A 2.5 2.5 0 0 1 664.5 873 L 664.5 867  Z " stroke-width="1" stroke="#797979" fill="none" />
</svg>