<?xml version="1.0" encoding="utf-8"?>
<svg version="1.1" xmlns:xlink="http://www.w3.org/1999/xlink" width="12px" height="12px" viewBox="715 1012  12 12" xmlns="http://www.w3.org/2000/svg">
  <path d="M 721 1012  C 724.36 1012  727 1014.64  727 1018  C 727 1021.36  724.36 1024  721 1024  C 717.64 1024  715 1021.36  715 1018  C 715 1014.64  717.64 1012  721 1012  Z " fill-rule="nonzero" fill="#f0f0f0" stroke="none" />
  <path d="M 721 1012.5  C 724.08 1012.5  726.5 1014.92  726.5 1018  C 726.5 1021.08  724.08 1023.5  721 1023.5  C 717.92 1023.5  715.5 1021.08  715.5 1018  C 715.5 1014.92  717.92 1012.5  721 1012.5  Z " stroke-width="1" stroke="#797979" fill="none" />
  <path d="M 721 1021  C 719.32 1021  718 1019.68  718 1018  C 718 1016.32  719.32 1015  721 1015  C 722.68 1015  724 1016.32  724 1018  C 724 1019.68  722.68 1021  721 1021  " fill-rule="nonzero" fill="#797979" stroke="none" />
</svg>