<?xml version="1.0" encoding="utf-8"?>
<svg version="1.1" xmlns:xlink="http://www.w3.org/1999/xlink" width="12px" height="12px" viewBox="1055 2445  12 12" xmlns="http://www.w3.org/2000/svg">
  <path d="M 1055.5 2448  A 2.5 2.5 0 0 1 1058 2445.5 L 1064 2445.5  A 2.5 2.5 0 0 1 1066.5 2448 L 1066.5 2454  A 2.5 2.5 0 0 1 1064 2456.5 L 1058 2456.5  A 2.5 2.5 0 0 1 1055.5 2454 L 1055.5 2448  Z " fill-rule="nonzero" fill="#f0f0f0" stroke="none" />
  <path d="M 1055.5 2448  A 2.5 2.5 0 0 1 1058 2445.5 L 1064 2445.5  A 2.5 2.5 0 0 1 1066.5 2448 L 1066.5 2454  A 2.5 2.5 0 0 1 1064 2456.5 L 1058 2456.5  A 2.5 2.5 0 0 1 1055.5 2454 L 1055.5 2448  Z " stroke-width="1" stroke="#797979" fill="none" />
  <path d="M 1057.57142857143 2451  L 1060.14285714286 2453.57142857143  " stroke-width="2.57142857142857" stroke="#797979" fill="none" />
  <path d="M 1060.14285714286 2453.57142857143  L 1064.42857142857 2447.57142857143  " stroke-width="2.57142857142857" stroke="#797979" fill="none" />
</svg>