<?xml version="1.0" encoding="utf-8"?>
<svg version="1.1" xmlns:xlink="http://www.w3.org/1999/xlink" width="27px" height="11px" xmlns="http://www.w3.org/2000/svg">
  <g transform="matrix(1 0 0 1 -766 -2444 )">
    <path d="M 0.67236328125 7.635546875  C 0.22412109375 6.956640625  0 6.24479166666667  0 5.5  C 0 4.75520833333333  0.22412109375 4.043359375  0.67236328125 3.364453125  C 1.12060546875 2.685546875  1.720458984375 2.101171875  2.471923828125 1.611328125  C 3.223388671875 1.121484375  4.119873046875 0.73046875  5.161376953125 0.43828125  C 6.202880859375 0.14609375  7.294921875 0  8.4375 0  L 18.5625 0  C 19.705078125 0  20.797119140625 0.14609375  21.838623046875 0.43828125  C 22.880126953125 0.73046875  23.776611328125 1.121484375  24.528076171875 1.611328125  C 25.279541015625 2.101171875  25.87939453125 2.685546875  26.32763671875 3.364453125  C 26.77587890625 4.043359375  27 4.75520833333333  27 5.5  C 27 6.24479166666667  26.77587890625 6.956640625  26.32763671875 7.635546875  C 25.87939453125 8.314453125  25.279541015625 8.898828125  24.528076171875 9.388671875  C 23.776611328125 9.878515625  22.880126953125 10.26953125  21.838623046875 10.56171875  C 20.797119140625 10.85390625  19.705078125 11  18.5625 11  L 8.4375 11  C 7.294921875 11  6.202880859375 10.85390625  5.161376953125 10.56171875  C 4.119873046875 10.26953125  3.223388671875 9.878515625  2.471923828125 9.388671875  C 1.720458984375 8.898828125  1.12060546875 8.314453125  0.67236328125 7.635546875  Z M 15.945556640625 9.551953125  C 16.776123046875 9.783984375  17.6484375 9.9  18.5625 9.9  C 19.4765625 9.9  20.348876953125 9.783984375  21.179443359375 9.551953125  C 22.010009765625 9.319921875  22.728515625 9.00625  23.3349609375 8.6109375  C 23.94140625 8.215625  24.422607421875 7.747265625  24.778564453125 7.205859375  C 25.134521484375 6.664453125  25.3125 6.09583333333333  25.3125 5.5  C 25.3125 4.90416666666667  25.134521484375 4.335546875  24.778564453125 3.794140625  C 24.422607421875 3.252734375  23.94140625 2.784375  23.3349609375 2.3890625  C 22.728515625 1.99375  22.010009765625 1.680078125  21.179443359375 1.448046875  C 20.348876953125 1.216015625  19.4765625 1.1  18.5625 1.1  C 17.6484375 1.1  16.776123046875 1.216015625  15.945556640625 1.448046875  C 15.114990234375 1.680078125  14.396484375 1.99375  13.7900390625 2.3890625  C 13.18359375 2.784375  12.702392578125 3.252734375  12.346435546875 3.794140625  C 11.990478515625 4.335546875  11.8125 4.90416666666667  11.8125 5.5  C 11.8125 6.09583333333333  11.990478515625 6.664453125  12.346435546875 7.205859375  C 12.702392578125 7.747265625  13.18359375 8.215625  13.7900390625 8.6109375  C 14.396484375 9.00625  15.114990234375 9.319921875  15.945556640625 9.551953125  Z " fill-rule="nonzero" fill="#626262" stroke="none" transform="matrix(1 0 0 1 766 2444 )" />
  </g>
</svg>