<?xml version="1.0" encoding="utf-8"?>
<svg version="1.1" xmlns:xlink="http://www.w3.org/1999/xlink" width="12px" height="12px" viewBox="1055 2467  12 12" xmlns="http://www.w3.org/2000/svg">
  <path d="M 1055.5 2470  A 2.5 2.5 0 0 1 1058 2467.5 L 1064 2467.5  A 2.5 2.5 0 0 1 1066.5 2470 L 1066.5 2476  A 2.5 2.5 0 0 1 1064 2478.5 L 1058 2478.5  A 2.5 2.5 0 0 1 1055.5 2476 L 1055.5 2470  Z " fill-rule="nonzero" fill="#f0f0f0" stroke="none" />
  <path d="M 1055.5 2470  A 2.5 2.5 0 0 1 1058 2467.5 L 1064 2467.5  A 2.5 2.5 0 0 1 1066.5 2470 L 1066.5 2476  A 2.5 2.5 0 0 1 1064 2478.5 L 1058 2478.5  A 2.5 2.5 0 0 1 1055.5 2476 L 1055.5 2470  Z " stroke-width="1" stroke="#797979" fill="none" />
  <path d="M 1057.57142857143 2473  L 1060.14285714286 2475.57142857143  " stroke-width="2.57142857142857" stroke="#797979" fill="none" />
  <path d="M 1060.14285714286 2475.57142857143  L 1064.42857142857 2469.57142857143  " stroke-width="2.57142857142857" stroke="#797979" fill="none" />
</svg>