<?xml version="1.0" encoding="utf-8"?>
<svg version="1.1" xmlns:xlink="http://www.w3.org/1999/xlink" width="1019px" height="688px" xmlns="http://www.w3.org/2000/svg">
  <g transform="matrix(1 0 0 1 -80 -169 )">
    <path d="M 81 179  A 9 9 0 0 1 90 170 L 1089 170  A 9 9 0 0 1 1098 179 L 1098 847  A 9 9 0 0 1 1089 856 L 90 856  A 9 9 0 0 1 81 847 L 81 179  Z " fill-rule="nonzero" fill="#ffffff" stroke="none" />
    <path d="M 80.5 179  A 9.5 9.5 0 0 1 90 169.5 L 1089 169.5  A 9.5 9.5 0 0 1 1098.5 179 L 1098.5 847  A 9.5 9.5 0 0 1 1089 856.5 L 90 856.5  A 9.5 9.5 0 0 1 80.5 847 L 80.5 179  Z " stroke-width="1" stroke-dasharray="3,1" stroke="#828181" fill="none" stroke-dashoffset="0.5" />
  </g>
</svg>