<?xml version="1.0" encoding="utf-8"?>
<svg version="1.1" xmlns:xlink="http://www.w3.org/1999/xlink" width="12px" height="12px" viewBox="1046 865  12 12" xmlns="http://www.w3.org/2000/svg">
  <path d="M 1046.5 868  A 2.5 2.5 0 0 1 1049 865.5 L 1055 865.5  A 2.5 2.5 0 0 1 1057.5 868 L 1057.5 874  A 2.5 2.5 0 0 1 1055 876.5 L 1049 876.5  A 2.5 2.5 0 0 1 1046.5 874 L 1046.5 868  Z " fill-rule="nonzero" fill="#f0f0f0" stroke="none" />
  <path d="M 1046.5 868  A 2.5 2.5 0 0 1 1049 865.5 L 1055 865.5  A 2.5 2.5 0 0 1 1057.5 868 L 1057.5 874  A 2.5 2.5 0 0 1 1055 876.5 L 1049 876.5  A 2.5 2.5 0 0 1 1046.5 874 L 1046.5 868  Z " stroke-width="1" stroke="#797979" fill="none" />
</svg>