<?xml version="1.0" encoding="utf-8"?>
<svg version="1.1" xmlns:xlink="http://www.w3.org/1999/xlink" width="12px" height="12px" viewBox="824 865  12 12" xmlns="http://www.w3.org/2000/svg">
  <path d="M 824.5 868  A 2.5 2.5 0 0 1 827 865.5 L 833 865.5  A 2.5 2.5 0 0 1 835.5 868 L 835.5 874  A 2.5 2.5 0 0 1 833 876.5 L 827 876.5  A 2.5 2.5 0 0 1 824.5 874 L 824.5 868  Z " fill-rule="nonzero" fill="#f0f0f0" stroke="none" />
  <path d="M 824.5 868  A 2.5 2.5 0 0 1 827 865.5 L 833 865.5  A 2.5 2.5 0 0 1 835.5 868 L 835.5 874  A 2.5 2.5 0 0 1 833 876.5 L 827 876.5  A 2.5 2.5 0 0 1 824.5 874 L 824.5 868  Z " stroke-width="1" stroke="#797979" fill="none" />
</svg>