<?xml version="1.0" encoding="utf-8"?>
<svg version="1.1" xmlns:xlink="http://www.w3.org/1999/xlink" width="12px" height="12px" viewBox="888 865  12 12" xmlns="http://www.w3.org/2000/svg">
  <path d="M 888.5 868  A 2.5 2.5 0 0 1 891 865.5 L 897 865.5  A 2.5 2.5 0 0 1 899.5 868 L 899.5 874  A 2.5 2.5 0 0 1 897 876.5 L 891 876.5  A 2.5 2.5 0 0 1 888.5 874 L 888.5 868  Z " fill-rule="nonzero" fill="#ffffff" stroke="none" />
  <path d="M 888.5 868  A 2.5 2.5 0 0 1 891 865.5 L 897 865.5  A 2.5 2.5 0 0 1 899.5 868 L 899.5 874  A 2.5 2.5 0 0 1 897 876.5 L 891 876.5  A 2.5 2.5 0 0 1 888.5 874 L 888.5 868  Z " stroke-width="1" stroke="#797979" fill="none" />
</svg>