<?xml version="1.0" encoding="utf-8"?>
<svg version="1.1" xmlns:xlink="http://www.w3.org/1999/xlink" width="12px" height="12px" viewBox="724 1013  12 12" xmlns="http://www.w3.org/2000/svg">
  <path d="M 730 1013  C 733.36 1013  736 1015.64  736 1019  C 736 1022.36  733.36 1025  730 1025  C 726.64 1025  724 1022.36  724 1019  C 724 1015.64  726.64 1013  730 1013  Z " fill-rule="nonzero" fill="#f0f0f0" stroke="none" />
  <path d="M 730 1013.5  C 733.08 1013.5  735.5 1015.92  735.5 1019  C 735.5 1022.08  733.08 1024.5  730 1024.5  C 726.92 1024.5  724.5 1022.08  724.5 1019  C 724.5 1015.92  726.92 1013.5  730 1013.5  Z " stroke-width="1" stroke="#797979" fill="none" />
  <path d="M 730 1022  C 728.32 1022  727 1020.68  727 1019  C 727 1017.32  728.32 1016  730 1016  C 731.68 1016  733 1017.32  733 1019  C 733 1020.68  731.68 1022  730 1022  " fill-rule="nonzero" fill="#797979" stroke="none" />
</svg>