<?xml version="1.0" encoding="utf-8"?>
<svg version="1.1" xmlns:xlink="http://www.w3.org/1999/xlink" width="12px" height="12px" viewBox="1064 2446  12 12" xmlns="http://www.w3.org/2000/svg">
  <path d="M 1064.5 2449  A 2.5 2.5 0 0 1 1067 2446.5 L 1073 2446.5  A 2.5 2.5 0 0 1 1075.5 2449 L 1075.5 2455  A 2.5 2.5 0 0 1 1073 2457.5 L 1067 2457.5  A 2.5 2.5 0 0 1 1064.5 2455 L 1064.5 2449  Z " fill-rule="nonzero" fill="#f0f0f0" stroke="none" />
  <path d="M 1064.5 2449  A 2.5 2.5 0 0 1 1067 2446.5 L 1073 2446.5  A 2.5 2.5 0 0 1 1075.5 2449 L 1075.5 2455  A 2.5 2.5 0 0 1 1073 2457.5 L 1067 2457.5  A 2.5 2.5 0 0 1 1064.5 2455 L 1064.5 2449  Z " stroke-width="1" stroke="#797979" fill="none" />
</svg>