<?xml version="1.0" encoding="utf-8"?>
<svg version="1.1" xmlns:xlink="http://www.w3.org/1999/xlink" width="12px" height="12px" viewBox="1064 2446  12 12" xmlns="http://www.w3.org/2000/svg">
  <path d="M 1064.5 2449  A 2.5 2.5 0 0 1 1067 2446.5 L 1073 2446.5  A 2.5 2.5 0 0 1 1075.5 2449 L 1075.5 2455  A 2.5 2.5 0 0 1 1073 2457.5 L 1067 2457.5  A 2.5 2.5 0 0 1 1064.5 2455 L 1064.5 2449  Z " fill-rule="nonzero" fill="#9d41c8" stroke="none" />
  <path d="M 1064.5 2449  A 2.5 2.5 0 0 1 1067 2446.5 L 1073 2446.5  A 2.5 2.5 0 0 1 1075.5 2449 L 1075.5 2455  A 2.5 2.5 0 0 1 1073 2457.5 L 1067 2457.5  A 2.5 2.5 0 0 1 1064.5 2455 L 1064.5 2449  Z " stroke-width="1" stroke="#ffffff" fill="none" />
  <path d="M 1066.57142857143 2452  L 1069.14285714286 2454.57142857143  " stroke-width="2.57142857142857" stroke="#ffffff" fill="none" />
  <path d="M 1069.14285714286 2454.57142857143  L 1073.42857142857 2448.57142857143  " stroke-width="2.57142857142857" stroke="#ffffff" fill="none" />
</svg>