<?xml version="1.0" encoding="utf-8"?>
<svg version="1.1" xmlns:xlink="http://www.w3.org/1999/xlink" width="12px" height="12px" viewBox="1280 1554  12 12" xmlns="http://www.w3.org/2000/svg">
  <path d="M 1280.5 1557  A 2.5 2.5 0 0 1 1283 1554.5 L 1289 1554.5  A 2.5 2.5 0 0 1 1291.5 1557 L 1291.5 1563  A 2.5 2.5 0 0 1 1289 1565.5 L 1283 1565.5  A 2.5 2.5 0 0 1 1280.5 1563 L 1280.5 1557  Z " fill-rule="nonzero" fill="#f0f0f0" stroke="none" />
  <path d="M 1280.5 1557  A 2.5 2.5 0 0 1 1283 1554.5 L 1289 1554.5  A 2.5 2.5 0 0 1 1291.5 1557 L 1291.5 1563  A 2.5 2.5 0 0 1 1289 1565.5 L 1283 1565.5  A 2.5 2.5 0 0 1 1280.5 1563 L 1280.5 1557  Z " stroke-width="1" stroke="#797979" fill="none" />
</svg>