<?xml version="1.0" encoding="utf-8"?>
<svg version="1.1" xmlns:xlink="http://www.w3.org/1999/xlink" width="12px" height="12px" viewBox="1280 1588  12 12" xmlns="http://www.w3.org/2000/svg">
  <path d="M 1280.5 1591  A 2.5 2.5 0 0 1 1283 1588.5 L 1289 1588.5  A 2.5 2.5 0 0 1 1291.5 1591 L 1291.5 1597  A 2.5 2.5 0 0 1 1289 1599.5 L 1283 1599.5  A 2.5 2.5 0 0 1 1280.5 1597 L 1280.5 1591  Z " fill-rule="nonzero" fill="#f0f0f0" stroke="none" />
  <path d="M 1280.5 1591  A 2.5 2.5 0 0 1 1283 1588.5 L 1289 1588.5  A 2.5 2.5 0 0 1 1291.5 1591 L 1291.5 1597  A 2.5 2.5 0 0 1 1289 1599.5 L 1283 1599.5  A 2.5 2.5 0 0 1 1280.5 1597 L 1280.5 1591  Z " stroke-width="1" stroke="#797979" fill="none" />
</svg>