<?xml version="1.0" encoding="utf-8"?>
<svg version="1.1" xmlns:xlink="http://www.w3.org/1999/xlink" width="12px" height="12px" viewBox="1280 1554  12 12" xmlns="http://www.w3.org/2000/svg">
  <path d="M 1280.5 1557  A 2.5 2.5 0 0 1 1283 1554.5 L 1289 1554.5  A 2.5 2.5 0 0 1 1291.5 1557 L 1291.5 1563  A 2.5 2.5 0 0 1 1289 1565.5 L 1283 1565.5  A 2.5 2.5 0 0 1 1280.5 1563 L 1280.5 1557  Z " fill-rule="nonzero" fill="#9d41c8" stroke="none" />
  <path d="M 1280.5 1557  A 2.5 2.5 0 0 1 1283 1554.5 L 1289 1554.5  A 2.5 2.5 0 0 1 1291.5 1557 L 1291.5 1563  A 2.5 2.5 0 0 1 1289 1565.5 L 1283 1565.5  A 2.5 2.5 0 0 1 1280.5 1563 L 1280.5 1557  Z " stroke-width="1" stroke="#ffffff" fill="none" />
  <path d="M 1282.57142857143 1560  L 1285.14285714286 1562.57142857143  " stroke-width="2.57142857142857" stroke="#ffffff" fill="none" />
  <path d="M 1285.14285714286 1562.57142857143  L 1289.42857142857 1556.57142857143  " stroke-width="2.57142857142857" stroke="#ffffff" fill="none" />
</svg>