<?xml version="1.0" encoding="utf-8"?>
<svg version="1.1" xmlns:xlink="http://www.w3.org/1999/xlink" width="12px" height="12px" viewBox="957 871  12 12" xmlns="http://www.w3.org/2000/svg">
  <path d="M 957.5 874  A 2.5 2.5 0 0 1 960 871.5 L 966 871.5  A 2.5 2.5 0 0 1 968.5 874 L 968.5 880  A 2.5 2.5 0 0 1 966 882.5 L 960 882.5  A 2.5 2.5 0 0 1 957.5 880 L 957.5 874  Z " fill-rule="nonzero" fill="#9d41c8" stroke="none" />
  <path d="M 957.5 874  A 2.5 2.5 0 0 1 960 871.5 L 966 871.5  A 2.5 2.5 0 0 1 968.5 874 L 968.5 880  A 2.5 2.5 0 0 1 966 882.5 L 960 882.5  A 2.5 2.5 0 0 1 957.5 880 L 957.5 874  Z " stroke-width="1" stroke="#ffffff" fill="none" />
  <path d="M 959.571428571429 877  L 962.142857142857 879.571428571429  " stroke-width="2.57142857142857" stroke="#ffffff" fill="none" />
  <path d="M 962.142857142857 879.571428571429  L 966.428571428571 873.571428571429  " stroke-width="2.57142857142857" stroke="#ffffff" fill="none" />
</svg>