<?xml version="1.0" encoding="utf-8"?>
<svg version="1.1" xmlns:xlink="http://www.w3.org/1999/xlink" width="12px" height="12px" viewBox="662 871  12 12" xmlns="http://www.w3.org/2000/svg">
  <path d="M 662.5 874  A 2.5 2.5 0 0 1 665 871.5 L 671 871.5  A 2.5 2.5 0 0 1 673.5 874 L 673.5 880  A 2.5 2.5 0 0 1 671 882.5 L 665 882.5  A 2.5 2.5 0 0 1 662.5 880 L 662.5 874  Z " fill-rule="nonzero" fill="#f0f0f0" stroke="none" />
  <path d="M 662.5 874  A 2.5 2.5 0 0 1 665 871.5 L 671 871.5  A 2.5 2.5 0 0 1 673.5 874 L 673.5 880  A 2.5 2.5 0 0 1 671 882.5 L 665 882.5  A 2.5 2.5 0 0 1 662.5 880 L 662.5 874  Z " stroke-width="1" stroke="#797979" fill="none" />
</svg>