<?xml version="1.0" encoding="utf-8"?>
<svg version="1.1" xmlns:xlink="http://www.w3.org/1999/xlink" width="12px" height="12px" viewBox="713 1019  12 12" xmlns="http://www.w3.org/2000/svg">
  <path d="M 719 1019  C 722.36 1019  725 1021.64  725 1025  C 725 1028.36  722.36 1031  719 1031  C 715.64 1031  713 1028.36  713 1025  C 713 1021.64  715.64 1019  719 1019  Z " fill-rule="nonzero" fill="#f0f0f0" stroke="none" />
  <path d="M 719 1019.5  C 722.08 1019.5  724.5 1021.92  724.5 1025  C 724.5 1028.08  722.08 1030.5  719 1030.5  C 715.92 1030.5  713.5 1028.08  713.5 1025  C 713.5 1021.92  715.92 1019.5  719 1019.5  Z " stroke-width="1" stroke="#797979" fill="none" />
  <path d="M 719 1028  C 717.32 1028  716 1026.68  716 1025  C 716 1023.32  717.32 1022  719 1022  C 720.68 1022  722 1023.32  722 1025  C 722 1026.68  720.68 1028  719 1028  " fill-rule="nonzero" fill="#797979" stroke="none" />
</svg>