<?xml version="1.0" encoding="utf-8"?>
<svg version="1.1" xmlns:xlink="http://www.w3.org/1999/xlink" width="12px" height="12px" viewBox="883 1019  12 12" xmlns="http://www.w3.org/2000/svg">
  <path d="M 889 1019  C 892.36 1019  895 1021.64  895 1025  C 895 1028.36  892.36 1031  889 1031  C 885.64 1031  883 1028.36  883 1025  C 883 1021.64  885.64 1019  889 1019  Z " fill-rule="nonzero" fill="#ffffff" stroke="none" />
  <path d="M 889 1019.5  C 892.08 1019.5  894.5 1021.92  894.5 1025  C 894.5 1028.08  892.08 1030.5  889 1030.5  C 885.92 1030.5  883.5 1028.08  883.5 1025  C 883.5 1021.92  885.92 1019.5  889 1019.5  Z " stroke-width="1" stroke="#797979" fill="none" />
  <path d="M 889 1028  C 887.32 1028  886 1026.68  886 1025  C 886 1023.32  887.32 1022  889 1022  C 890.68 1022  892 1023.32  892 1025  C 892 1026.68  890.68 1028  889 1028  " fill-rule="nonzero" fill="#797979" stroke="none" />
</svg>