<?xml version="1.0" encoding="utf-8"?>
<svg version="1.1" xmlns:xlink="http://www.w3.org/1999/xlink" width="12px" height="12px" viewBox="1053 2452  12 12" xmlns="http://www.w3.org/2000/svg">
  <path d="M 1053.5 2455  A 2.5 2.5 0 0 1 1056 2452.5 L 1062 2452.5  A 2.5 2.5 0 0 1 1064.5 2455 L 1064.5 2461  A 2.5 2.5 0 0 1 1062 2463.5 L 1056 2463.5  A 2.5 2.5 0 0 1 1053.5 2461 L 1053.5 2455  Z " fill-rule="nonzero" fill="#f0f0f0" stroke="none" />
  <path d="M 1053.5 2455  A 2.5 2.5 0 0 1 1056 2452.5 L 1062 2452.5  A 2.5 2.5 0 0 1 1064.5 2455 L 1064.5 2461  A 2.5 2.5 0 0 1 1062 2463.5 L 1056 2463.5  A 2.5 2.5 0 0 1 1053.5 2461 L 1053.5 2455  Z " stroke-width="1" stroke="#797979" fill="none" />
</svg>