<?xml version="1.0" encoding="utf-8"?>
<svg version="1.1" xmlns:xlink="http://www.w3.org/1999/xlink" width="12px" height="12px" viewBox="1053 2473  12 12" xmlns="http://www.w3.org/2000/svg">
  <path d="M 1053.5 2476  A 2.5 2.5 0 0 1 1056 2473.5 L 1062 2473.5  A 2.5 2.5 0 0 1 1064.5 2476 L 1064.5 2482  A 2.5 2.5 0 0 1 1062 2484.5 L 1056 2484.5  A 2.5 2.5 0 0 1 1053.5 2482 L 1053.5 2476  Z " fill-rule="nonzero" fill="#9d41c8" stroke="none" />
  <path d="M 1053.5 2476  A 2.5 2.5 0 0 1 1056 2473.5 L 1062 2473.5  A 2.5 2.5 0 0 1 1064.5 2476 L 1064.5 2482  A 2.5 2.5 0 0 1 1062 2484.5 L 1056 2484.5  A 2.5 2.5 0 0 1 1053.5 2482 L 1053.5 2476  Z " stroke-width="1" stroke="#ffffff" fill="none" />
  <path d="M 1055.57142857143 2479  L 1058.14285714286 2481.57142857143  " stroke-width="2.57142857142857" stroke="#ffffff" fill="none" />
  <path d="M 1058.14285714286 2481.57142857143  L 1062.42857142857 2475.57142857143  " stroke-width="2.57142857142857" stroke="#ffffff" fill="none" />
</svg>