<?xml version="1.0" encoding="utf-8"?>
<svg version="1.1" xmlns:xlink="http://www.w3.org/1999/xlink" width="12px" height="12px" viewBox="1196 354  12 12" xmlns="http://www.w3.org/2000/svg">
  <path d="M 1196.5 357  A 2.5 2.5 0 0 1 1199 354.5 L 1205 354.5  A 2.5 2.5 0 0 1 1207.5 357 L 1207.5 363  A 2.5 2.5 0 0 1 1205 365.5 L 1199 365.5  A 2.5 2.5 0 0 1 1196.5 363 L 1196.5 357  Z " fill-rule="nonzero" fill="#9d41c8" stroke="none" />
  <path d="M 1196.5 357  A 2.5 2.5 0 0 1 1199 354.5 L 1205 354.5  A 2.5 2.5 0 0 1 1207.5 357 L 1207.5 363  A 2.5 2.5 0 0 1 1205 365.5 L 1199 365.5  A 2.5 2.5 0 0 1 1196.5 363 L 1196.5 357  Z " stroke-width="1" stroke="#ffffff" fill="none" />
  <path d="M 1198.57142857143 360  L 1201.14285714286 362.571428571429  " stroke-width="2.57142857142857" stroke="#ffffff" fill="none" />
  <path d="M 1201.14285714286 362.571428571429  L 1205.42857142857 356.571428571429  " stroke-width="2.57142857142857" stroke="#ffffff" fill="none" />
</svg>