<?xml version="1.0" encoding="utf-8"?>
<svg version="1.1" xmlns:xlink="http://www.w3.org/1999/xlink" width="12px" height="12px" viewBox="901 297  12 12" xmlns="http://www.w3.org/2000/svg">
  <path d="M 901.5 300  A 2.5 2.5 0 0 1 904 297.5 L 910 297.5  A 2.5 2.5 0 0 1 912.5 300 L 912.5 306  A 2.5 2.5 0 0 1 910 308.5 L 904 308.5  A 2.5 2.5 0 0 1 901.5 306 L 901.5 300  Z " fill-rule="nonzero" fill="#9d41c8" stroke="none" />
  <path d="M 901.5 300  A 2.5 2.5 0 0 1 904 297.5 L 910 297.5  A 2.5 2.5 0 0 1 912.5 300 L 912.5 306  A 2.5 2.5 0 0 1 910 308.5 L 904 308.5  A 2.5 2.5 0 0 1 901.5 306 L 901.5 300  Z " stroke-width="1" stroke="#ffffff" fill="none" />
  <path d="M 903.571428571429 303  L 906.142857142857 305.571428571429  " stroke-width="2.57142857142857" stroke="#ffffff" fill="none" />
  <path d="M 906.142857142857 305.571428571429  L 910.428571428571 299.571428571429  " stroke-width="2.57142857142857" stroke="#ffffff" fill="none" />
</svg>