<?xml version="1.0" encoding="utf-8"?>
<svg version="1.1" xmlns:xlink="http://www.w3.org/1999/xlink" width="12px" height="12px" viewBox="1168 2830  12 12" xmlns="http://www.w3.org/2000/svg">
  <path d="M 1168.5 2833  A 2.5 2.5 0 0 1 1171 2830.5 L 1177 2830.5  A 2.5 2.5 0 0 1 1179.5 2833 L 1179.5 2839  A 2.5 2.5 0 0 1 1177 2841.5 L 1171 2841.5  A 2.5 2.5 0 0 1 1168.5 2839 L 1168.5 2833  Z " fill-rule="nonzero" fill="#9d41c8" stroke="none" />
  <path d="M 1168.5 2833  A 2.5 2.5 0 0 1 1171 2830.5 L 1177 2830.5  A 2.5 2.5 0 0 1 1179.5 2833 L 1179.5 2839  A 2.5 2.5 0 0 1 1177 2841.5 L 1171 2841.5  A 2.5 2.5 0 0 1 1168.5 2839 L 1168.5 2833  Z " stroke-width="1" stroke="#ffffff" fill="none" />
  <path d="M 1170.57142857143 2836  L 1173.14285714286 2838.57142857143  " stroke-width="2.57142857142857" stroke="#ffffff" fill="none" />
  <path d="M 1173.14285714286 2838.57142857143  L 1177.42857142857 2832.57142857143  " stroke-width="2.57142857142857" stroke="#ffffff" fill="none" />
</svg>