<?xml version="1.0" encoding="utf-8"?>
<svg version="1.1" xmlns:xlink="http://www.w3.org/1999/xlink" width="12px" height="12px" viewBox="1172 2984  12 12" xmlns="http://www.w3.org/2000/svg">
  <path d="M 1172.5 2987  A 2.5 2.5 0 0 1 1175 2984.5 L 1181 2984.5  A 2.5 2.5 0 0 1 1183.5 2987 L 1183.5 2993  A 2.5 2.5 0 0 1 1181 2995.5 L 1175 2995.5  A 2.5 2.5 0 0 1 1172.5 2993 L 1172.5 2987  Z " fill-rule="nonzero" fill="#9d41c8" stroke="none" />
  <path d="M 1172.5 2987  A 2.5 2.5 0 0 1 1175 2984.5 L 1181 2984.5  A 2.5 2.5 0 0 1 1183.5 2987 L 1183.5 2993  A 2.5 2.5 0 0 1 1181 2995.5 L 1175 2995.5  A 2.5 2.5 0 0 1 1172.5 2993 L 1172.5 2987  Z " stroke-width="1" stroke="#ffffff" fill="none" />
  <path d="M 1174.57142857143 2990  L 1177.14285714286 2992.57142857143  " stroke-width="2.57142857142857" stroke="#ffffff" fill="none" />
  <path d="M 1177.14285714286 2992.57142857143  L 1181.42857142857 2986.57142857143  " stroke-width="2.57142857142857" stroke="#ffffff" fill="none" />
</svg>