<?xml version="1.0" encoding="utf-8"?>
<svg version="1.1" xmlns:xlink="http://www.w3.org/1999/xlink" width="12px" height="12px" viewBox="1172 2941  12 12" xmlns="http://www.w3.org/2000/svg">
  <path d="M 1172.5 2944  A 2.5 2.5 0 0 1 1175 2941.5 L 1181 2941.5  A 2.5 2.5 0 0 1 1183.5 2944 L 1183.5 2950  A 2.5 2.5 0 0 1 1181 2952.5 L 1175 2952.5  A 2.5 2.5 0 0 1 1172.5 2950 L 1172.5 2944  Z " fill-rule="nonzero" fill="#ffffff" stroke="none" />
  <path d="M 1172.5 2944  A 2.5 2.5 0 0 1 1175 2941.5 L 1181 2941.5  A 2.5 2.5 0 0 1 1183.5 2944 L 1183.5 2950  A 2.5 2.5 0 0 1 1181 2952.5 L 1175 2952.5  A 2.5 2.5 0 0 1 1172.5 2950 L 1172.5 2944  Z " stroke-width="1" stroke="#797979" fill="none" />
</svg>