<?xml version="1.0" encoding="utf-8"?>
<svg version="1.1" xmlns:xlink="http://www.w3.org/1999/xlink" width="12px" height="12px" viewBox="1172 3025  12 12" xmlns="http://www.w3.org/2000/svg">
  <path d="M 1172.5 3028  A 2.5 2.5 0 0 1 1175 3025.5 L 1181 3025.5  A 2.5 2.5 0 0 1 1183.5 3028 L 1183.5 3034  A 2.5 2.5 0 0 1 1181 3036.5 L 1175 3036.5  A 2.5 2.5 0 0 1 1172.5 3034 L 1172.5 3028  Z " fill-rule="nonzero" fill="#f0f0f0" stroke="none" />
  <path d="M 1172.5 3028  A 2.5 2.5 0 0 1 1175 3025.5 L 1181 3025.5  A 2.5 2.5 0 0 1 1183.5 3028 L 1183.5 3034  A 2.5 2.5 0 0 1 1181 3036.5 L 1175 3036.5  A 2.5 2.5 0 0 1 1172.5 3034 L 1172.5 3028  Z " stroke-width="1" stroke="#797979" fill="none" />
</svg>