<?xml version="1.0" encoding="utf-8"?>
<svg version="1.1" xmlns:xlink="http://www.w3.org/1999/xlink" width="12px" height="12px" viewBox="1172 3107  12 12" xmlns="http://www.w3.org/2000/svg">
  <path d="M 1172.5 3110  A 2.5 2.5 0 0 1 1175 3107.5 L 1181 3107.5  A 2.5 2.5 0 0 1 1183.5 3110 L 1183.5 3116  A 2.5 2.5 0 0 1 1181 3118.5 L 1175 3118.5  A 2.5 2.5 0 0 1 1172.5 3116 L 1172.5 3110  Z " fill-rule="nonzero" fill="#f0f0f0" stroke="none" />
  <path d="M 1172.5 3110  A 2.5 2.5 0 0 1 1175 3107.5 L 1181 3107.5  A 2.5 2.5 0 0 1 1183.5 3110 L 1183.5 3116  A 2.5 2.5 0 0 1 1181 3118.5 L 1175 3118.5  A 2.5 2.5 0 0 1 1172.5 3116 L 1172.5 3110  Z " stroke-width="1" stroke="#797979" fill="none" />
  <path d="M 1174.57142857143 3113  L 1177.14285714286 3115.57142857143  " stroke-width="2.57142857142857" stroke="#797979" fill="none" />
  <path d="M 1177.14285714286 3115.57142857143  L 1181.42857142857 3109.57142857143  " stroke-width="2.57142857142857" stroke="#797979" fill="none" />
</svg>