<?xml version="1.0" encoding="utf-8"?>
<svg version="1.1" xmlns:xlink="http://www.w3.org/1999/xlink" width="12px" height="12px" viewBox="961 2941  12 12" xmlns="http://www.w3.org/2000/svg">
  <path d="M 961.5 2944  A 2.5 2.5 0 0 1 964 2941.5 L 970 2941.5  A 2.5 2.5 0 0 1 972.5 2944 L 972.5 2950  A 2.5 2.5 0 0 1 970 2952.5 L 964 2952.5  A 2.5 2.5 0 0 1 961.5 2950 L 961.5 2944  Z " fill-rule="nonzero" fill="#f0f0f0" stroke="none" />
  <path d="M 961.5 2944  A 2.5 2.5 0 0 1 964 2941.5 L 970 2941.5  A 2.5 2.5 0 0 1 972.5 2944 L 972.5 2950  A 2.5 2.5 0 0 1 970 2952.5 L 964 2952.5  A 2.5 2.5 0 0 1 961.5 2950 L 961.5 2944  Z " stroke-width="1" stroke="#797979" fill="none" />
  <path d="M 963.571428571429 2947  L 966.142857142857 2949.57142857143  " stroke-width="2.57142857142857" stroke="#797979" fill="none" />
  <path d="M 966.142857142857 2949.57142857143  L 970.428571428571 2943.57142857143  " stroke-width="2.57142857142857" stroke="#797979" fill="none" />
</svg>