<?xml version="1.0" encoding="utf-8"?>
<svg version="1.1" xmlns:xlink="http://www.w3.org/1999/xlink" width="12px" height="12px" viewBox="961 3066  12 12" xmlns="http://www.w3.org/2000/svg">
  <path d="M 961.5 3069  A 2.5 2.5 0 0 1 964 3066.5 L 970 3066.5  A 2.5 2.5 0 0 1 972.5 3069 L 972.5 3075  A 2.5 2.5 0 0 1 970 3077.5 L 964 3077.5  A 2.5 2.5 0 0 1 961.5 3075 L 961.5 3069  Z " fill-rule="nonzero" fill="#9d41c8" stroke="none" />
  <path d="M 961.5 3069  A 2.5 2.5 0 0 1 964 3066.5 L 970 3066.5  A 2.5 2.5 0 0 1 972.5 3069 L 972.5 3075  A 2.5 2.5 0 0 1 970 3077.5 L 964 3077.5  A 2.5 2.5 0 0 1 961.5 3075 L 961.5 3069  Z " stroke-width="1" stroke="#ffffff" fill="none" />
  <path d="M 963.571428571429 3072  L 966.142857142857 3074.57142857143  " stroke-width="2.57142857142857" stroke="#ffffff" fill="none" />
  <path d="M 966.142857142857 3074.57142857143  L 970.428571428571 3068.57142857143  " stroke-width="2.57142857142857" stroke="#ffffff" fill="none" />
</svg>