<?xml version="1.0" encoding="utf-8"?>
<svg version="1.1" xmlns:xlink="http://www.w3.org/1999/xlink" width="12px" height="12px" viewBox="961 3107  12 12" xmlns="http://www.w3.org/2000/svg">
  <path d="M 961.5 3110  A 2.5 2.5 0 0 1 964 3107.5 L 970 3107.5  A 2.5 2.5 0 0 1 972.5 3110 L 972.5 3116  A 2.5 2.5 0 0 1 970 3118.5 L 964 3118.5  A 2.5 2.5 0 0 1 961.5 3116 L 961.5 3110  Z " fill-rule="nonzero" fill="#9d41c8" stroke="none" />
  <path d="M 961.5 3110  A 2.5 2.5 0 0 1 964 3107.5 L 970 3107.5  A 2.5 2.5 0 0 1 972.5 3110 L 972.5 3116  A 2.5 2.5 0 0 1 970 3118.5 L 964 3118.5  A 2.5 2.5 0 0 1 961.5 3116 L 961.5 3110  Z " stroke-width="1" stroke="#ffffff" fill="none" />
  <path d="M 963.571428571429 3113  L 966.142857142857 3115.57142857143  " stroke-width="2.57142857142857" stroke="#ffffff" fill="none" />
  <path d="M 966.142857142857 3115.57142857143  L 970.428571428571 3109.57142857143  " stroke-width="2.57142857142857" stroke="#ffffff" fill="none" />
</svg>