<?xml version="1.0" encoding="utf-8"?>
<svg version="1.1" xmlns:xlink="http://www.w3.org/1999/xlink" width="12px" height="12px" viewBox="750 2941  12 12" xmlns="http://www.w3.org/2000/svg">
  <path d="M 750.5 2944  A 2.5 2.5 0 0 1 753 2941.5 L 759 2941.5  A 2.5 2.5 0 0 1 761.5 2944 L 761.5 2950  A 2.5 2.5 0 0 1 759 2952.5 L 753 2952.5  A 2.5 2.5 0 0 1 750.5 2950 L 750.5 2944  Z " fill-rule="nonzero" fill="#f0f0f0" stroke="none" />
  <path d="M 750.5 2944  A 2.5 2.5 0 0 1 753 2941.5 L 759 2941.5  A 2.5 2.5 0 0 1 761.5 2944 L 761.5 2950  A 2.5 2.5 0 0 1 759 2952.5 L 753 2952.5  A 2.5 2.5 0 0 1 750.5 2950 L 750.5 2944  Z " stroke-width="1" stroke="#797979" fill="none" />
</svg>