<?xml version="1.0" encoding="utf-8"?>
<svg version="1.1" xmlns:xlink="http://www.w3.org/1999/xlink" width="12px" height="12px" viewBox="750 2984  12 12" xmlns="http://www.w3.org/2000/svg">
  <path d="M 750.5 2987  A 2.5 2.5 0 0 1 753 2984.5 L 759 2984.5  A 2.5 2.5 0 0 1 761.5 2987 L 761.5 2993  A 2.5 2.5 0 0 1 759 2995.5 L 753 2995.5  A 2.5 2.5 0 0 1 750.5 2993 L 750.5 2987  Z " fill-rule="nonzero" fill="#f0f0f0" stroke="none" />
  <path d="M 750.5 2987  A 2.5 2.5 0 0 1 753 2984.5 L 759 2984.5  A 2.5 2.5 0 0 1 761.5 2987 L 761.5 2993  A 2.5 2.5 0 0 1 759 2995.5 L 753 2995.5  A 2.5 2.5 0 0 1 750.5 2993 L 750.5 2987  Z " stroke-width="1" stroke="#797979" fill="none" />
</svg>