<?xml version="1.0" encoding="utf-8"?>
<svg version="1.1" xmlns:xlink="http://www.w3.org/1999/xlink" width="12px" height="12px" viewBox="750 3107  12 12" xmlns="http://www.w3.org/2000/svg">
  <path d="M 750.5 3110  A 2.5 2.5 0 0 1 753 3107.5 L 759 3107.5  A 2.5 2.5 0 0 1 761.5 3110 L 761.5 3116  A 2.5 2.5 0 0 1 759 3118.5 L 753 3118.5  A 2.5 2.5 0 0 1 750.5 3116 L 750.5 3110  Z " fill-rule="nonzero" fill="#9d41c8" stroke="none" />
  <path d="M 750.5 3110  A 2.5 2.5 0 0 1 753 3107.5 L 759 3107.5  A 2.5 2.5 0 0 1 761.5 3110 L 761.5 3116  A 2.5 2.5 0 0 1 759 3118.5 L 753 3118.5  A 2.5 2.5 0 0 1 750.5 3116 L 750.5 3110  Z " stroke-width="1" stroke="#ffffff" fill="none" />
  <path d="M 752.571428571429 3113  L 755.142857142857 3115.57142857143  " stroke-width="2.57142857142857" stroke="#ffffff" fill="none" />
  <path d="M 755.142857142857 3115.57142857143  L 759.428571428571 3109.57142857143  " stroke-width="2.57142857142857" stroke="#ffffff" fill="none" />
</svg>