<?xml version="1.0" encoding="utf-8"?>
<svg version="1.1" xmlns:xlink="http://www.w3.org/1999/xlink" width="12px" height="12px" viewBox="750 3025  12 12" xmlns="http://www.w3.org/2000/svg">
  <path d="M 750.5 3028  A 2.5 2.5 0 0 1 753 3025.5 L 759 3025.5  A 2.5 2.5 0 0 1 761.5 3028 L 761.5 3034  A 2.5 2.5 0 0 1 759 3036.5 L 753 3036.5  A 2.5 2.5 0 0 1 750.5 3034 L 750.5 3028  Z " fill-rule="nonzero" fill="#f0f0f0" stroke="none" />
  <path d="M 750.5 3028  A 2.5 2.5 0 0 1 753 3025.5 L 759 3025.5  A 2.5 2.5 0 0 1 761.5 3028 L 761.5 3034  A 2.5 2.5 0 0 1 759 3036.5 L 753 3036.5  A 2.5 2.5 0 0 1 750.5 3034 L 750.5 3028  Z " stroke-width="1" stroke="#797979" fill="none" />
  <path d="M 752.571428571429 3031  L 755.142857142857 3033.57142857143  " stroke-width="2.57142857142857" stroke="#797979" fill="none" />
  <path d="M 755.142857142857 3033.57142857143  L 759.428571428571 3027.57142857143  " stroke-width="2.57142857142857" stroke="#797979" fill="none" />
</svg>