<?xml version="1.0" encoding="utf-8"?>
<svg version="1.1" xmlns:xlink="http://www.w3.org/1999/xlink" width="12px" height="12px" viewBox="750 3066  12 12" xmlns="http://www.w3.org/2000/svg">
  <path d="M 750.5 3069  A 2.5 2.5 0 0 1 753 3066.5 L 759 3066.5  A 2.5 2.5 0 0 1 761.5 3069 L 761.5 3075  A 2.5 2.5 0 0 1 759 3077.5 L 753 3077.5  A 2.5 2.5 0 0 1 750.5 3075 L 750.5 3069  Z " fill-rule="nonzero" fill="#ffffff" stroke="none" />
  <path d="M 750.5 3069  A 2.5 2.5 0 0 1 753 3066.5 L 759 3066.5  A 2.5 2.5 0 0 1 761.5 3069 L 761.5 3075  A 2.5 2.5 0 0 1 759 3077.5 L 753 3077.5  A 2.5 2.5 0 0 1 750.5 3075 L 750.5 3069  Z " stroke-width="1" stroke="#797979" fill="none" />
</svg>