<?xml version="1.0" encoding="utf-8"?>
<svg version="1.1" xmlns:xlink="http://www.w3.org/1999/xlink" width="12px" height="12px" viewBox="539 3025  12 12" xmlns="http://www.w3.org/2000/svg">
  <path d="M 539.5 3028  A 2.5 2.5 0 0 1 542 3025.5 L 548 3025.5  A 2.5 2.5 0 0 1 550.5 3028 L 550.5 3034  A 2.5 2.5 0 0 1 548 3036.5 L 542 3036.5  A 2.5 2.5 0 0 1 539.5 3034 L 539.5 3028  Z " fill-rule="nonzero" fill="#ffffff" stroke="none" />
  <path d="M 539.5 3028  A 2.5 2.5 0 0 1 542 3025.5 L 548 3025.5  A 2.5 2.5 0 0 1 550.5 3028 L 550.5 3034  A 2.5 2.5 0 0 1 548 3036.5 L 542 3036.5  A 2.5 2.5 0 0 1 539.5 3034 L 539.5 3028  Z " stroke-width="1" stroke="#797979" fill="none" />
</svg>