<?xml version="1.0" encoding="utf-8"?>
<svg version="1.1" xmlns:xlink="http://www.w3.org/1999/xlink" width="12px" height="12px" viewBox="539 3066  12 12" xmlns="http://www.w3.org/2000/svg">
  <path d="M 539.5 3069  A 2.5 2.5 0 0 1 542 3066.5 L 548 3066.5  A 2.5 2.5 0 0 1 550.5 3069 L 550.5 3075  A 2.5 2.5 0 0 1 548 3077.5 L 542 3077.5  A 2.5 2.5 0 0 1 539.5 3075 L 539.5 3069  Z " fill-rule="nonzero" fill="#f0f0f0" stroke="none" />
  <path d="M 539.5 3069  A 2.5 2.5 0 0 1 542 3066.5 L 548 3066.5  A 2.5 2.5 0 0 1 550.5 3069 L 550.5 3075  A 2.5 2.5 0 0 1 548 3077.5 L 542 3077.5  A 2.5 2.5 0 0 1 539.5 3075 L 539.5 3069  Z " stroke-width="1" stroke="#797979" fill="none" />
  <path d="M 541.571428571429 3072  L 544.142857142857 3074.57142857143  " stroke-width="2.57142857142857" stroke="#797979" fill="none" />
  <path d="M 544.142857142857 3074.57142857143  L 548.428571428571 3068.57142857143  " stroke-width="2.57142857142857" stroke="#797979" fill="none" />
</svg>