<?xml version="1.0" encoding="utf-8"?>
<svg version="1.1" xmlns:xlink="http://www.w3.org/1999/xlink" width="12px" height="12px" viewBox="1178 3565  12 12" xmlns="http://www.w3.org/2000/svg">
  <path d="M 1178.5 3568  A 2.5 2.5 0 0 1 1181 3565.5 L 1187 3565.5  A 2.5 2.5 0 0 1 1189.5 3568 L 1189.5 3574  A 2.5 2.5 0 0 1 1187 3576.5 L 1181 3576.5  A 2.5 2.5 0 0 1 1178.5 3574 L 1178.5 3568  Z " fill-rule="nonzero" fill="#f0f0f0" stroke="none" />
  <path d="M 1178.5 3568  A 2.5 2.5 0 0 1 1181 3565.5 L 1187 3565.5  A 2.5 2.5 0 0 1 1189.5 3568 L 1189.5 3574  A 2.5 2.5 0 0 1 1187 3576.5 L 1181 3576.5  A 2.5 2.5 0 0 1 1178.5 3574 L 1178.5 3568  Z " stroke-width="1" stroke="#797979" fill="none" />
</svg>