<?xml version="1.0" encoding="utf-8"?>
<svg version="1.1" xmlns:xlink="http://www.w3.org/1999/xlink" width="12px" height="12px" viewBox="1178 3538  12 12" xmlns="http://www.w3.org/2000/svg">
  <path d="M 1178.5 3541  A 2.5 2.5 0 0 1 1181 3538.5 L 1187 3538.5  A 2.5 2.5 0 0 1 1189.5 3541 L 1189.5 3547  A 2.5 2.5 0 0 1 1187 3549.5 L 1181 3549.5  A 2.5 2.5 0 0 1 1178.5 3547 L 1178.5 3541  Z " fill-rule="nonzero" fill="#9d41c8" stroke="none" />
  <path d="M 1178.5 3541  A 2.5 2.5 0 0 1 1181 3538.5 L 1187 3538.5  A 2.5 2.5 0 0 1 1189.5 3541 L 1189.5 3547  A 2.5 2.5 0 0 1 1187 3549.5 L 1181 3549.5  A 2.5 2.5 0 0 1 1178.5 3547 L 1178.5 3541  Z " stroke-width="1" stroke="#ffffff" fill="none" />
  <path d="M 1180.57142857143 3544  L 1183.14285714286 3546.57142857143  " stroke-width="2.57142857142857" stroke="#ffffff" fill="none" />
  <path d="M 1183.14285714286 3546.57142857143  L 1187.42857142857 3540.57142857143  " stroke-width="2.57142857142857" stroke="#ffffff" fill="none" />
</svg>