<?xml version="1.0" encoding="utf-8"?>
<svg version="1.1" xmlns:xlink="http://www.w3.org/1999/xlink" width="12px" height="12px" viewBox="1178 3538  12 12" xmlns="http://www.w3.org/2000/svg">
  <path d="M 1178.5 3541  A 2.5 2.5 0 0 1 1181 3538.5 L 1187 3538.5  A 2.5 2.5 0 0 1 1189.5 3541 L 1189.5 3547  A 2.5 2.5 0 0 1 1187 3549.5 L 1181 3549.5  A 2.5 2.5 0 0 1 1178.5 3547 L 1178.5 3541  Z " fill-rule="nonzero" fill="#f0f0f0" stroke="none" />
  <path d="M 1178.5 3541  A 2.5 2.5 0 0 1 1181 3538.5 L 1187 3538.5  A 2.5 2.5 0 0 1 1189.5 3541 L 1189.5 3547  A 2.5 2.5 0 0 1 1187 3549.5 L 1181 3549.5  A 2.5 2.5 0 0 1 1178.5 3547 L 1178.5 3541  Z " stroke-width="1" stroke="#797979" fill="none" />
</svg>