<?xml version="1.0" encoding="utf-8"?>
<svg version="1.1" xmlns:xlink="http://www.w3.org/1999/xlink" width="12px" height="12px" viewBox="1163 3728  12 12" xmlns="http://www.w3.org/2000/svg">
  <path d="M 1163.5 3731  A 2.5 2.5 0 0 1 1166 3728.5 L 1172 3728.5  A 2.5 2.5 0 0 1 1174.5 3731 L 1174.5 3737  A 2.5 2.5 0 0 1 1172 3739.5 L 1166 3739.5  A 2.5 2.5 0 0 1 1163.5 3737 L 1163.5 3731  Z " fill-rule="nonzero" fill="#f0f0f0" stroke="none" />
  <path d="M 1163.5 3731  A 2.5 2.5 0 0 1 1166 3728.5 L 1172 3728.5  A 2.5 2.5 0 0 1 1174.5 3731 L 1174.5 3737  A 2.5 2.5 0 0 1 1172 3739.5 L 1166 3739.5  A 2.5 2.5 0 0 1 1163.5 3737 L 1163.5 3731  Z " stroke-width="1" stroke="#797979" fill="none" />
</svg>