<?xml version="1.0" encoding="utf-8"?>
<svg version="1.1" xmlns:xlink="http://www.w3.org/1999/xlink" width="12px" height="12px" viewBox="1079 3727  12 12" xmlns="http://www.w3.org/2000/svg">
  <path d="M 1079.5 3730  A 2.5 2.5 0 0 1 1082 3727.5 L 1088 3727.5  A 2.5 2.5 0 0 1 1090.5 3730 L 1090.5 3736  A 2.5 2.5 0 0 1 1088 3738.5 L 1082 3738.5  A 2.5 2.5 0 0 1 1079.5 3736 L 1079.5 3730  Z " fill-rule="nonzero" fill="#f0f0f0" stroke="none" />
  <path d="M 1079.5 3730  A 2.5 2.5 0 0 1 1082 3727.5 L 1088 3727.5  A 2.5 2.5 0 0 1 1090.5 3730 L 1090.5 3736  A 2.5 2.5 0 0 1 1088 3738.5 L 1082 3738.5  A 2.5 2.5 0 0 1 1079.5 3736 L 1079.5 3730  Z " stroke-width="1" stroke="#797979" fill="none" />
  <path d="M 1081.57142857143 3733  L 1084.14285714286 3735.57142857143  " stroke-width="2.57142857142857" stroke="#797979" fill="none" />
  <path d="M 1084.14285714286 3735.57142857143  L 1088.42857142857 3729.57142857143  " stroke-width="2.57142857142857" stroke="#797979" fill="none" />
</svg>