<?xml version="1.0" encoding="utf-8"?>
<svg version="1.1" xmlns:xlink="http://www.w3.org/1999/xlink" width="12px" height="12px" viewBox="959 3727  12 12" xmlns="http://www.w3.org/2000/svg">
  <path d="M 959.5 3730  A 2.5 2.5 0 0 1 962 3727.5 L 968 3727.5  A 2.5 2.5 0 0 1 970.5 3730 L 970.5 3736  A 2.5 2.5 0 0 1 968 3738.5 L 962 3738.5  A 2.5 2.5 0 0 1 959.5 3736 L 959.5 3730  Z " fill-rule="nonzero" fill="#f0f0f0" stroke="none" />
  <path d="M 959.5 3730  A 2.5 2.5 0 0 1 962 3727.5 L 968 3727.5  A 2.5 2.5 0 0 1 970.5 3730 L 970.5 3736  A 2.5 2.5 0 0 1 968 3738.5 L 962 3738.5  A 2.5 2.5 0 0 1 959.5 3736 L 959.5 3730  Z " stroke-width="1" stroke="#797979" fill="none" />
  <path d="M 961.571428571429 3733  L 964.142857142857 3735.57142857143  " stroke-width="2.57142857142857" stroke="#797979" fill="none" />
  <path d="M 964.142857142857 3735.57142857143  L 968.428571428571 3729.57142857143  " stroke-width="2.57142857142857" stroke="#797979" fill="none" />
</svg>