<?xml version="1.0" encoding="utf-8"?>
<svg version="1.1" xmlns:xlink="http://www.w3.org/1999/xlink" width="12px" height="12px" viewBox="967 2905  12 12" xmlns="http://www.w3.org/2000/svg">
  <path d="M 967.5 2908  A 2.5 2.5 0 0 1 970 2905.5 L 976 2905.5  A 2.5 2.5 0 0 1 978.5 2908 L 978.5 2914  A 2.5 2.5 0 0 1 976 2916.5 L 970 2916.5  A 2.5 2.5 0 0 1 967.5 2914 L 967.5 2908  Z " fill-rule="nonzero" fill="#f0f0f0" stroke="none" />
  <path d="M 967.5 2908  A 2.5 2.5 0 0 1 970 2905.5 L 976 2905.5  A 2.5 2.5 0 0 1 978.5 2908 L 978.5 2914  A 2.5 2.5 0 0 1 976 2916.5 L 970 2916.5  A 2.5 2.5 0 0 1 967.5 2914 L 967.5 2908  Z " stroke-width="1" stroke="#6300bf" fill="none" />
</svg>