<?xml version="1.0" encoding="utf-8"?>
<svg version="1.1" xmlns:xlink="http://www.w3.org/1999/xlink" width="12px" height="12px" viewBox="2556 248  12 12" xmlns="http://www.w3.org/2000/svg">
  <path d="M 2557.5 251  A 1.5 1.5 0 0 1 2559 249.5 L 2565 249.5  A 1.5 1.5 0 0 1 2566.5 251 L 2566.5 257  A 1.5 1.5 0 0 1 2565 258.5 L 2559 258.5  A 1.5 1.5 0 0 1 2557.5 257 L 2557.5 251  Z " fill-rule="nonzero" fill="#ffffff" stroke="none" />
  <path d="M 2557 251  A 2 2 0 0 1 2559 249 L 2565 249  A 2 2 0 0 1 2567 251 L 2567 257  A 2 2 0 0 1 2565 259 L 2559 259  A 2 2 0 0 1 2557 257 L 2557 251  Z " stroke-width="2" stroke="#9d41c8" fill="none" />
</svg>