<?xml version="1.0" encoding="utf-8"?>
<svg version="1.1" xmlns:xlink="http://www.w3.org/1999/xlink" width="12px" height="12px" viewBox="2556 289  12 12" xmlns="http://www.w3.org/2000/svg">
  <path d="M 2556.5 292  A 2.5 2.5 0 0 1 2559 289.5 L 2565 289.5  A 2.5 2.5 0 0 1 2567.5 292 L 2567.5 298  A 2.5 2.5 0 0 1 2565 300.5 L 2559 300.5  A 2.5 2.5 0 0 1 2556.5 298 L 2556.5 292  Z " fill-rule="nonzero" fill="#9d41c8" stroke="none" />
  <path d="M 2556.5 292  A 2.5 2.5 0 0 1 2559 289.5 L 2565 289.5  A 2.5 2.5 0 0 1 2567.5 292 L 2567.5 298  A 2.5 2.5 0 0 1 2565 300.5 L 2559 300.5  A 2.5 2.5 0 0 1 2556.5 298 L 2556.5 292  Z " stroke-width="1" stroke="#ffffff" fill="none" />
  <path d="M 2558.57142857143 295  L 2561.14285714286 297.571428571429  " stroke-width="2.57142857142857" stroke="#ffffff" fill="none" />
  <path d="M 2561.14285714286 297.571428571429  L 2565.42857142857 291.571428571429  " stroke-width="2.57142857142857" stroke="#ffffff" fill="none" />
</svg>