<?xml version="1.0" encoding="utf-8"?>
<svg version="1.1" xmlns:xlink="http://www.w3.org/1999/xlink" width="12px" height="12px" viewBox="2556 329  12 12" xmlns="http://www.w3.org/2000/svg">
  <path d="M 2557.5 332  A 1.5 1.5 0 0 1 2559 330.5 L 2565 330.5  A 1.5 1.5 0 0 1 2566.5 332 L 2566.5 338  A 1.5 1.5 0 0 1 2565 339.5 L 2559 339.5  A 1.5 1.5 0 0 1 2557.5 338 L 2557.5 332  Z " fill-rule="nonzero" fill="#ffffff" stroke="none" />
  <path d="M 2557 332  A 2 2 0 0 1 2559 330 L 2565 330  A 2 2 0 0 1 2567 332 L 2567 338  A 2 2 0 0 1 2565 340 L 2559 340  A 2 2 0 0 1 2557 338 L 2557 332  Z " stroke-width="2" stroke="#9d41c8" fill="none" />
</svg>