<?xml version="1.0" encoding="utf-8"?>
<svg version="1.1" xmlns:xlink="http://www.w3.org/1999/xlink" width="12px" height="12px" viewBox="2556 248  12 12" xmlns="http://www.w3.org/2000/svg">
  <path d="M 2556.5 251  A 2.5 2.5 0 0 1 2559 248.5 L 2565 248.5  A 2.5 2.5 0 0 1 2567.5 251 L 2567.5 257  A 2.5 2.5 0 0 1 2565 259.5 L 2559 259.5  A 2.5 2.5 0 0 1 2556.5 257 L 2556.5 251  Z " fill-rule="nonzero" fill="#f0f0f0" stroke="none" />
  <path d="M 2556.5 251  A 2.5 2.5 0 0 1 2559 248.5 L 2565 248.5  A 2.5 2.5 0 0 1 2567.5 251 L 2567.5 257  A 2.5 2.5 0 0 1 2565 259.5 L 2559 259.5  A 2.5 2.5 0 0 1 2556.5 257 L 2556.5 251  Z " stroke-width="1" stroke="#797979" fill="none" />
  <path d="M 2558.57142857143 254  L 2561.14285714286 256.571428571429  " stroke-width="2.57142857142857" stroke="#797979" fill="none" />
  <path d="M 2561.14285714286 256.571428571429  L 2565.42857142857 250.571428571429  " stroke-width="2.57142857142857" stroke="#797979" fill="none" />
</svg>