<?xml version="1.0" encoding="utf-8"?>
<svg version="1.1" xmlns:xlink="http://www.w3.org/1999/xlink" width="12px" height="12px" viewBox="2556 289  12 12" xmlns="http://www.w3.org/2000/svg">
  <path d="M 2557.5 292  A 1.5 1.5 0 0 1 2559 290.5 L 2565 290.5  A 1.5 1.5 0 0 1 2566.5 292 L 2566.5 298  A 1.5 1.5 0 0 1 2565 299.5 L 2559 299.5  A 1.5 1.5 0 0 1 2557.5 298 L 2557.5 292  Z " fill-rule="nonzero" fill="#ffffff" stroke="none" />
  <path d="M 2557 292  A 2 2 0 0 1 2559 290 L 2565 290  A 2 2 0 0 1 2567 292 L 2567 298  A 2 2 0 0 1 2565 300 L 2559 300  A 2 2 0 0 1 2557 298 L 2557 292  Z " stroke-width="2" stroke="#9d41c8" fill="none" />
</svg>