<?xml version="1.0" encoding="utf-8"?>
<svg version="1.1" xmlns:xlink="http://www.w3.org/1999/xlink" width="12px" height="12px" viewBox="2556 329  12 12" xmlns="http://www.w3.org/2000/svg">
  <path d="M 2556.5 332  A 2.5 2.5 0 0 1 2559 329.5 L 2565 329.5  A 2.5 2.5 0 0 1 2567.5 332 L 2567.5 338  A 2.5 2.5 0 0 1 2565 340.5 L 2559 340.5  A 2.5 2.5 0 0 1 2556.5 338 L 2556.5 332  Z " fill-rule="nonzero" fill="#ffffff" stroke="none" />
  <path d="M 2556.5 332  A 2.5 2.5 0 0 1 2559 329.5 L 2565 329.5  A 2.5 2.5 0 0 1 2567.5 332 L 2567.5 338  A 2.5 2.5 0 0 1 2565 340.5 L 2559 340.5  A 2.5 2.5 0 0 1 2556.5 338 L 2556.5 332  Z " stroke-width="1" stroke="#797979" fill="none" />
</svg>