<?xml version="1.0" encoding="utf-8"?>
<svg version="1.1" xmlns:xlink="http://www.w3.org/1999/xlink" width="12px" height="12px" viewBox="1045 875  12 12" xmlns="http://www.w3.org/2000/svg">
  <path d="M 1045.5 878  A 2.5 2.5 0 0 1 1048 875.5 L 1054 875.5  A 2.5 2.5 0 0 1 1056.5 878 L 1056.5 884  A 2.5 2.5 0 0 1 1054 886.5 L 1048 886.5  A 2.5 2.5 0 0 1 1045.5 884 L 1045.5 878  Z " fill-rule="nonzero" fill="#f0f0f0" stroke="none" />
  <path d="M 1045.5 878  A 2.5 2.5 0 0 1 1048 875.5 L 1054 875.5  A 2.5 2.5 0 0 1 1056.5 878 L 1056.5 884  A 2.5 2.5 0 0 1 1054 886.5 L 1048 886.5  A 2.5 2.5 0 0 1 1045.5 884 L 1045.5 878  Z " stroke-width="1" stroke="#797979" fill="none" />
  <path d="M 1047.57142857143 881  L 1050.14285714286 883.571428571429  " stroke-width="2.57142857142857" stroke="#797979" fill="none" />
  <path d="M 1050.14285714286 883.571428571429  L 1054.42857142857 877.571428571429  " stroke-width="2.57142857142857" stroke="#797979" fill="none" />
</svg>