<?xml version="1.0" encoding="utf-8"?>
<svg version="1.1" xmlns:xlink="http://www.w3.org/1999/xlink" width="12px" height="12px" viewBox="823 875  12 12" xmlns="http://www.w3.org/2000/svg">
  <path d="M 823.5 878  A 2.5 2.5 0 0 1 826 875.5 L 832 875.5  A 2.5 2.5 0 0 1 834.5 878 L 834.5 884  A 2.5 2.5 0 0 1 832 886.5 L 826 886.5  A 2.5 2.5 0 0 1 823.5 884 L 823.5 878  Z " fill-rule="nonzero" fill="#f0f0f0" stroke="none" />
  <path d="M 823.5 878  A 2.5 2.5 0 0 1 826 875.5 L 832 875.5  A 2.5 2.5 0 0 1 834.5 878 L 834.5 884  A 2.5 2.5 0 0 1 832 886.5 L 826 886.5  A 2.5 2.5 0 0 1 823.5 884 L 823.5 878  Z " stroke-width="1" stroke="#797979" fill="none" />
  <path d="M 825.571428571429 881  L 828.142857142857 883.571428571429  " stroke-width="2.57142857142857" stroke="#797979" fill="none" />
  <path d="M 828.142857142857 883.571428571429  L 832.428571428571 877.571428571429  " stroke-width="2.57142857142857" stroke="#797979" fill="none" />
</svg>