<?xml version="1.0" encoding="utf-8"?>
<svg version="1.1" xmlns:xlink="http://www.w3.org/1999/xlink" width="12px" height="12px" viewBox="967 875  12 12" xmlns="http://www.w3.org/2000/svg">
  <path d="M 967.5 878  A 2.5 2.5 0 0 1 970 875.5 L 976 875.5  A 2.5 2.5 0 0 1 978.5 878 L 978.5 884  A 2.5 2.5 0 0 1 976 886.5 L 970 886.5  A 2.5 2.5 0 0 1 967.5 884 L 967.5 878  Z " fill-rule="nonzero" fill="#f0f0f0" stroke="none" />
  <path d="M 967.5 878  A 2.5 2.5 0 0 1 970 875.5 L 976 875.5  A 2.5 2.5 0 0 1 978.5 878 L 978.5 884  A 2.5 2.5 0 0 1 976 886.5 L 970 886.5  A 2.5 2.5 0 0 1 967.5 884 L 967.5 878  Z " stroke-width="1" stroke="#797979" fill="none" />
</svg>