<?xml version="1.0" encoding="utf-8"?>
<svg version="1.1" xmlns:xlink="http://www.w3.org/1999/xlink" width="12px" height="12px" viewBox="672 875  12 12" xmlns="http://www.w3.org/2000/svg">
  <path d="M 672.5 878  A 2.5 2.5 0 0 1 675 875.5 L 681 875.5  A 2.5 2.5 0 0 1 683.5 878 L 683.5 884  A 2.5 2.5 0 0 1 681 886.5 L 675 886.5  A 2.5 2.5 0 0 1 672.5 884 L 672.5 878  Z " fill-rule="nonzero" fill="#f0f0f0" stroke="none" />
  <path d="M 672.5 878  A 2.5 2.5 0 0 1 675 875.5 L 681 875.5  A 2.5 2.5 0 0 1 683.5 878 L 683.5 884  A 2.5 2.5 0 0 1 681 886.5 L 675 886.5  A 2.5 2.5 0 0 1 672.5 884 L 672.5 878  Z " stroke-width="1" stroke="#797979" fill="none" />
  <path d="M 674.571428571429 881  L 677.142857142857 883.571428571429  " stroke-width="2.57142857142857" stroke="#797979" fill="none" />
  <path d="M 677.142857142857 883.571428571429  L 681.428571428571 877.571428571429  " stroke-width="2.57142857142857" stroke="#797979" fill="none" />
</svg>