<?xml version="1.0" encoding="utf-8"?>
<svg version="1.1" xmlns:xlink="http://www.w3.org/1999/xlink" width="12px" height="12px" viewBox="887 875  12 12" xmlns="http://www.w3.org/2000/svg">
  <path d="M 887.5 878  A 2.5 2.5 0 0 1 890 875.5 L 896 875.5  A 2.5 2.5 0 0 1 898.5 878 L 898.5 884  A 2.5 2.5 0 0 1 896 886.5 L 890 886.5  A 2.5 2.5 0 0 1 887.5 884 L 887.5 878  Z " fill-rule="nonzero" fill="#ffffff" stroke="none" />
  <path d="M 887.5 878  A 2.5 2.5 0 0 1 890 875.5 L 896 875.5  A 2.5 2.5 0 0 1 898.5 878 L 898.5 884  A 2.5 2.5 0 0 1 896 886.5 L 890 886.5  A 2.5 2.5 0 0 1 887.5 884 L 887.5 878  Z " stroke-width="1" stroke="#797979" fill="none" />
</svg>