<?xml version="1.0" encoding="utf-8"?>
<svg version="1.1" xmlns:xlink="http://www.w3.org/1999/xlink" width="12px" height="12px" viewBox="749 875  12 12" xmlns="http://www.w3.org/2000/svg">
  <path d="M 749.5 878  A 2.5 2.5 0 0 1 752 875.5 L 758 875.5  A 2.5 2.5 0 0 1 760.5 878 L 760.5 884  A 2.5 2.5 0 0 1 758 886.5 L 752 886.5  A 2.5 2.5 0 0 1 749.5 884 L 749.5 878  Z " fill-rule="nonzero" fill="#9d41c8" stroke="none" />
  <path d="M 749.5 878  A 2.5 2.5 0 0 1 752 875.5 L 758 875.5  A 2.5 2.5 0 0 1 760.5 878 L 760.5 884  A 2.5 2.5 0 0 1 758 886.5 L 752 886.5  A 2.5 2.5 0 0 1 749.5 884 L 749.5 878  Z " stroke-width="1" stroke="#ffffff" fill="none" />
  <path d="M 751.571428571429 881  L 754.142857142857 883.571428571429  " stroke-width="2.57142857142857" stroke="#ffffff" fill="none" />
  <path d="M 754.142857142857 883.571428571429  L 758.428571428571 877.571428571429  " stroke-width="2.57142857142857" stroke="#ffffff" fill="none" />
</svg>