<?xml version="1.0" encoding="utf-8"?>
<svg version="1.1" xmlns:xlink="http://www.w3.org/1999/xlink" width="12px" height="12px" viewBox="893 1023  12 12" xmlns="http://www.w3.org/2000/svg">
  <path d="M 899 1023  C 902.36 1023  905 1025.64  905 1029  C 905 1032.36  902.36 1035  899 1035  C 895.64 1035  893 1032.36  893 1029  C 893 1025.64  895.64 1023  899 1023  Z " fill-rule="nonzero" fill="#ffffff" stroke="none" />
  <path d="M 899 1023.5  C 902.08 1023.5  904.5 1025.92  904.5 1029  C 904.5 1032.08  902.08 1034.5  899 1034.5  C 895.92 1034.5  893.5 1032.08  893.5 1029  C 893.5 1025.92  895.92 1023.5  899 1023.5  Z " stroke-width="1" stroke="#797979" fill="none" />
  <path d="M 899 1032  C 897.32 1032  896 1030.68  896 1029  C 896 1027.32  897.32 1026  899 1026  C 900.68 1026  902 1027.32  902 1029  C 902 1030.68  900.68 1032  899 1032  " fill-rule="nonzero" fill="#797979" stroke="none" />
</svg>