<?xml version="1.0" encoding="utf-8"?>
<svg version="1.1" xmlns:xlink="http://www.w3.org/1999/xlink" width="12px" height="12px" viewBox="1063 2456  12 12" xmlns="http://www.w3.org/2000/svg">
  <path d="M 1063.5 2459  A 2.5 2.5 0 0 1 1066 2456.5 L 1072 2456.5  A 2.5 2.5 0 0 1 1074.5 2459 L 1074.5 2465  A 2.5 2.5 0 0 1 1072 2467.5 L 1066 2467.5  A 2.5 2.5 0 0 1 1063.5 2465 L 1063.5 2459  Z " fill-rule="nonzero" fill="#9d41c8" stroke="none" />
  <path d="M 1063.5 2459  A 2.5 2.5 0 0 1 1066 2456.5 L 1072 2456.5  A 2.5 2.5 0 0 1 1074.5 2459 L 1074.5 2465  A 2.5 2.5 0 0 1 1072 2467.5 L 1066 2467.5  A 2.5 2.5 0 0 1 1063.5 2465 L 1063.5 2459  Z " stroke-width="1" stroke="#ffffff" fill="none" />
  <path d="M 1065.57142857143 2462  L 1068.14285714286 2464.57142857143  " stroke-width="2.57142857142857" stroke="#ffffff" fill="none" />
  <path d="M 1068.14285714286 2464.57142857143  L 1072.42857142857 2458.57142857143  " stroke-width="2.57142857142857" stroke="#ffffff" fill="none" />
</svg>