<?xml version="1.0" encoding="utf-8"?>
<svg version="1.1" xmlns:xlink="http://www.w3.org/1999/xlink" width="12px" height="12px" viewBox="1063 2479  12 12" xmlns="http://www.w3.org/2000/svg">
  <path d="M 1063.5 2482  A 2.5 2.5 0 0 1 1066 2479.5 L 1072 2479.5  A 2.5 2.5 0 0 1 1074.5 2482 L 1074.5 2488  A 2.5 2.5 0 0 1 1072 2490.5 L 1066 2490.5  A 2.5 2.5 0 0 1 1063.5 2488 L 1063.5 2482  Z " fill-rule="nonzero" fill="#f0f0f0" stroke="none" />
  <path d="M 1063.5 2482  A 2.5 2.5 0 0 1 1066 2479.5 L 1072 2479.5  A 2.5 2.5 0 0 1 1074.5 2482 L 1074.5 2488  A 2.5 2.5 0 0 1 1072 2490.5 L 1066 2490.5  A 2.5 2.5 0 0 1 1063.5 2488 L 1063.5 2482  Z " stroke-width="1" stroke="#797979" fill="none" />
  <path d="M 1065.57142857143 2485  L 1068.14285714286 2487.57142857143  " stroke-width="2.57142857142857" stroke="#797979" fill="none" />
  <path d="M 1068.14285714286 2487.57142857143  L 1072.42857142857 2481.57142857143  " stroke-width="2.57142857142857" stroke="#797979" fill="none" />
</svg>