<?xml version="1.0" encoding="utf-8"?>
<svg version="1.1" xmlns:xlink="http://www.w3.org/1999/xlink" width="12px" height="12px" viewBox="119 511  12 12" xmlns="http://www.w3.org/2000/svg">
  <path d="M 119.5 517  A 5.5 5.5 0 0 1 125 511.5 A 5.5 5.5 0 0 1 130.5 517 A 5.5 5.5 0 0 1 125 522.5 A 5.5 5.5 0 0 1 119.5 517 Z " fill-rule="nonzero" fill="#f0f0f0" stroke="none" />
  <path d="M 119.5 517  A 5.5 5.5 0 0 1 125 511.5 A 5.5 5.5 0 0 1 130.5 517 A 5.5 5.5 0 0 1 125 522.5 A 5.5 5.5 0 0 1 119.5 517 Z " stroke-width="1" stroke="#d301ff" fill="none" />
  <path d="M 121.571428571429 517  L 124.142857142857 519.571428571429  " stroke-width="2.57142857142857" stroke="#d301ff" fill="none" />
  <path d="M 124.142857142857 519.571428571429  L 128.428571428571 513.571428571429  " stroke-width="2.57142857142857" stroke="#d301ff" fill="none" />
</svg>