<?xml version="1.0" encoding="utf-8"?>
<svg version="1.1" xmlns:xlink="http://www.w3.org/1999/xlink" width="167px" height="148px" xmlns="http://www.w3.org/2000/svg">
  <g transform="matrix(1 0 0 1 -440 -337 )">
    <path d="M 523.5 337  C 570.26 337  607 369.56  607 411  C 607 452.44  570.26 485  523.5 485  C 476.74 485  440 452.44  440 411  C 440 369.56  476.74 337  523.5 337  Z " fill-rule="nonzero" fill="#ffffff" stroke="none" />
    <path d="M 523.5 337.5  C 569.98 337.5  606.5 369.84  606.5 411  C 606.5 452.16  569.98 484.5  523.5 484.5  C 477.02 484.5  440.5 452.16  440.5 411  C 440.5 369.84  477.02 337.5  523.5 337.5  Z " stroke-width="1" stroke="#ffffff" fill="none" />
  </g>
</svg>