<?xml version="1.0" encoding="utf-8"?>
<svg version="1.1" xmlns:xlink="http://www.w3.org/1999/xlink" width="44px" height="30px" xmlns="http://www.w3.org/2000/svg">
  <g transform="matrix(1 0 0 1 -619 -547 )">
    <path d="M 3.66666666666667 0  L 40.3333333333333 0  C 41.3416666666667 0  42.2048611111111 0.30598958333333  42.9229166666667 0.917968750000001  C 43.6409722222222 1.52994791666667  44 2.265625  44 3.125  L 44 26.875  C 44 27.734375  43.6409722222222 28.4700520833333  42.9229166666667 29.08203125  C 42.2048611111111 29.6940104166667  41.3416666666667 30  40.3333333333333 30  L 3.66666666666667 30  C 2.65833333333333 30  1.79513888888889 29.6940104166667  1.07708333333333 29.08203125  C 0.359027777777778 28.4700520833333  0 27.734375  0 26.875  L 0 3.125  C 0 2.265625  0.359027777777778 1.52994791666667  1.07708333333333 0.917968750000001  C 1.79513888888889 0.30598958333333  2.65833333333333 0  3.66666666666667 0  Z M 40.3333333333333 3  L 3.66666666666667 3  C 3.46805555555556 2.5  3.29618055555556 2.56184895833333  3.15104166666667 2.685546875  C 3.00590277777778 2.80924479166666  2.93333333333333 2.95572916666666  2.93333333333333 3.125  L 2.93333333333333 8  L 41.0666666666667 8  L 41.0666666666667 3.125  C 41.0666666666667 2.95572916666666  40.9940972222222 2.80924479166666  40.8489583333333 2.685546875  C 40.7038194444444 2.56184895833333  40.5319444444444 2.5  40.3333333333333 3  Z M 3.66666666666667 27  L 40.3333333333333 27  C 40.5319444444444 27.5  40.7038194444444 27.4381510416667  40.8489583333333 27.314453125  C 40.9940972222222 27.1907552083333  41.0666666666667 27.0442708333333  41 26.875  L 41 15  L 3 15  L 3 26.875  C 2.93333333333333 27.0442708333333  3.00590277777778 27.1907552083333  3.15104166666667 27.314453125  C 3.29618055555556 27.4381510416667  3.46805555555556 27.5  3.66666666666667 27  Z M 11.7333333333333 25  L 5.86666666666667 25  L 5.86666666666667 22.5  L 11.7333333333333 22.5  L 11.7333333333333 25  Z M 23.4666666666667 25  L 14.6666666666667 25  L 14.6666666666667 22.5  L 23.4666666666667 22.5  L 23.4666666666667 25  Z " fill-rule="nonzero" fill="#0f7bc3" stroke="none" transform="matrix(1 0 0 1 619 547 )" />
  </g>
</svg>