<?xml version="1.0" encoding="utf-8"?>
<svg version="1.1" xmlns:xlink="http://www.w3.org/1999/xlink" width="50px" height="30px" xmlns="http://www.w3.org/2000/svg">
  <g transform="matrix(1 0 0 1 -502 -408 )">
    <path d="M 21.69189453125 19.208984375  C 21.81396484375 19.814453125  21.875 20.46875  21.875 21.171875  C 21.875 21.8880208333333  21.61865234375 22.4967447916667  21.10595703125 22.998046875  C 20.59326171875 23.4993489583333  19.9788411458333 23.75  19.2626953125 23.75  L 8.8623046875 23.75  C 8.14615885416667 23.75  7.53173828125 23.4993489583333  7.01904296875 22.998046875  C 6.50634765625 22.4967447916667  6.25 21.8880208333333  6.25 21.171875  C 6.25 20.46875  6.31103515625 19.814453125  6.43310546875 19.208984375  C 6.55517578125 18.603515625  6.75455729166667 18.017578125  7.03125 17.451171875  C 7.30794270833333 16.884765625  7.72298177083333 16.4388020833333  8.2763671875 16.11328125  C 8.82975260416667 15.7877604166667  9.48893229166667 15.625  10.25390625 15.625  C 11.2955729166667 16.4583333333333  12.5651041666667 16.875  14.0625 16.875  C 15.5598958333333 16.875  16.8294270833333 16.4583333333333  17.87109375 15.625  C 18.6360677083333 15.625  19.2952473958333 15.7877604166667  19.8486328125 16.11328125  C 20.4020182291667 16.4388020833333  20.8170572916667 16.884765625  21.09375 17.451171875  C 21.3704427083333 18.017578125  21.56982421875 18.603515625  21.69189453125 19.208984375  Z M 17.3828125 9.84375  C 18.2942708333333 10.5729166666667  18.75 11.4583333333333  18.75 12.5  C 18.75 13.5416666666667  18.2942708333333 14.4270833333333  17.3828125 15.15625  C 16.4713541666667 15.8854166666667  15.3645833333333 16.25  14.0625 16.25  C 12.7604166666667 16.25  11.6536458333333 15.8854166666667  10.7421875 15.15625  C 9.83072916666667 14.4270833333333  9.375 13.5416666666667  9.375 12.5  C 9.375 11.4583333333333  9.83072916666667 10.5729166666667  10.7421875 9.84375  C 11.6536458333333 9.11458333333333  12.7604166666667 8.75  14.0625 8.75  C 15.3645833333333 8.75  16.4713541666667 9.11458333333333  17.3828125 9.84375  Z M 43.5302734375 20.17578125  C 43.6767578125 20.29296875  43.75 20.4427083333333  43.75 20.625  L 43.75 21.875  C 43.75 22.0572916666667  43.6767578125 22.20703125  43.5302734375 22.32421875  C 43.3837890625 22.44140625  43.1966145833333 22.5  42.96875 22  L 25.78125 22  C 25.5533854166667 22.5  25.3662109375 22.44140625  25.2197265625 22.32421875  C 25.0732421875 22.20703125  25 22.0572916666667  25 21.875  L 25 20.625  C 25 20.4427083333333  25.0732421875 20.29296875  25.2197265625 20.17578125  C 25.3662109375 20.05859375  25.5533854166667 20  25.78125 20  L 42.96875 20  C 43.1966145833333 20  43.3837890625 20.05859375  43.5302734375 20.17578125  Z M 34.1552734375 15.17578125  C 34.3017578125 15.29296875  34.375 15.4427083333333  34.375 15.625  L 34.375 16.875  C 34.375 17.0572916666667  34.3017578125 17.20703125  34.1552734375 17.32421875  C 34.0087890625 17.44140625  33.8216145833333 17.5  33.59375 17.5  L 25.78125 17.5  C 25.5533854166667 17.5  25.3662109375 17.44140625  25.2197265625 17.32421875  C 25.0732421875 17.20703125  25 17.0572916666667  25 16.875  L 25 15.625  C 25 15.4427083333333  25.0732421875 15.29296875  25.2197265625 15.17578125  C 25.3662109375 15.05859375  25.5533854166667 15  25.78125 15  L 33.59375 15  C 33.8216145833333 15  34.0087890625 15.05859375  34.1552734375 15.17578125  Z M 43.5302734375 15.17578125  C 43.6767578125 15.29296875  43.75 15.4427083333333  43.75 15.625  L 43.75 16.875  C 43.75 17.0572916666667  43.6767578125 17.20703125  43.5302734375 17.32421875  C 43.3837890625 17.44140625  43.1966145833333 17.5  42.96875 17.5  L 38.28125 17.5  C 38.0533854166667 17.5  37.8662109375 17.44140625  37.7197265625 17.32421875  C 37.5732421875 17.20703125  37.5 17.0572916666667  37.5 16.875  L 37.5 15.625  C 37.5 15.4427083333333  37.5732421875 15.29296875  37.7197265625 15.17578125  C 37.8662109375 15.05859375  38.0533854166667 15  38.28125 15  L 42.96875 15  C 43.1966145833333 15  43.3837890625 15.05859375  43.5302734375 15.17578125  Z M 43.5302734375 10.17578125  C 43.6767578125 10.29296875  43.75 10.4427083333333  43.75 10.625  L 43.75 11.875  C 43.75 12.0572916666667  43.6767578125 12.20703125  43.5302734375 12.32421875  C 43.3837890625 12.44140625  43.1966145833333 12.5  42.96875 13  L 25.78125 13  C 25.5533854166667 12.5  25.3662109375 12.44140625  25.2197265625 12.32421875  C 25.0732421875 12.20703125  25 12.0572916666667  25 11.875  L 25 10.625  C 25 10.4427083333333  25.0732421875 10.29296875  25.2197265625 10.17578125  C 25.3662109375 10.05859375  25.5533854166667 10  25.78125 10  L 42.96875 10  C 43.1966145833333 10  43.3837890625 10.05859375  43.5302734375 10.17578125  Z M 46.64306640625 27.314453125  C 46.7976888020833 27.1907552083333  46.875 27.0442708333333  46 26.875  L 46 5  L 4 5  L 4 26.875  C 3.125 27.0442708333333  3.20231119791667 27.1907552083333  3.35693359375 27.314453125  C 3.51155598958333 27.4381510416667  3.69466145833333 27.5  3.90625 27  L 46.09375 27  C 46.3053385416667 27.5  46.4884440104167 27.4381510416667  46.64306640625 27.314453125  Z M 48.8525390625 0.917968750000001  C 49.6175130208333 1.52994791666667  50 2.265625  50 3.125  L 50 26.875  C 50 27.734375  49.6175130208333 28.4700520833333  48.8525390625 29.08203125  C 48.0875651041667 29.6940104166667  47.16796875 30  46.09375 30  L 3.90625 30  C 2.83203125 30  1.91243489583333 29.6940104166667  1.1474609375 29.08203125  C 0.382486979166667 28.4700520833333  0 27.734375  0 26.875  L 0 3.125  C 0 2.265625  0.382486979166667 1.52994791666667  1.1474609375 0.917968750000001  C 1.91243489583333 0.30598958333333  2.83203125 0  3.90625 0  L 46.09375 0  C 47.16796875 0  48.0875651041667 0.30598958333333  48.8525390625 0.917968750000001  Z " fill-rule="nonzero" fill="#ff7a04" stroke="none" transform="matrix(1 0 0 1 502 408 )" />
  </g>
</svg>