<?xml version="1.0" encoding="utf-8"?>
<svg version="1.1" xmlns:xlink="http://www.w3.org/1999/xlink" width="47px" height="29px" xmlns="http://www.w3.org/2000/svg">
  <g transform="matrix(1 0 0 1 -586 -269 )">
    <path d="M 3.88371394230769 26.4039713541667  C 4.06260016025641 26.5235460069444  4.2744391025641 26.5833333333333  4.51923076923077 26.5833333333333  L 22 26.5833333333333  L 22 5  L 4 5  L 4 25.9791666666667  C 3.61538461538462 26.1427951388889  3.70482772435897 26.2843967013889  3.88371394230769 26.4039713541667  Z M 43.1162860576923 26.4039713541667  C 43.295172275641 26.2843967013889  43.3846153846154 26.1427951388889  43 25.9791666666667  L 43 5  L 25 5  L 25 26.5833333333333  L 42.4807692307692 26.5833333333333  C 42.7255608974359 26.5833333333333  42.9373998397436 26.5235460069444  43.1162860576923 26.4039713541667  Z M 45.6724759615385 0.887369791666668  C 46.5574919871795 1.47894965277778  47 2.19010416666667  47 3.02083333333333  L 47 25.9791666666667  C 47 26.8098958333333  46.5574919871795 27.5210503472222  45.6724759615385 28.1126302083333  C 44.7874599358974 28.7042100694444  43.7235576923077 29  42.4807692307692 29  L 4.51923076923077 29  C 3.27644230769231 29  2.21254006410256 28.7042100694444  1.32752403846154 28.1126302083333  C 0.442508012820513 27.5210503472222  0 26.8098958333333  0 25.9791666666667  L 0 3.02083333333333  C 0 2.19010416666667  0.442508012820513 1.47894965277778  1.32752403846154 0.887369791666668  C 2.21254006410256 0.295789930555553  3.27644230769231 0  4.51923076923077 0  L 42.4807692307692 0  C 43.7235576923077 0  44.7874599358974 0.295789930555553  45.6724759615385 0.887369791666668  Z " fill-rule="nonzero" fill="#257724" stroke="none" transform="matrix(1 0 0 1 586 269 )" />
  </g>
</svg>