<?xml version="1.0" encoding="utf-8"?>
<svg version="1.1" xmlns:xlink="http://www.w3.org/1999/xlink" width="46px" height="35px" xmlns="http://www.w3.org/2000/svg">
  <g transform="matrix(1 0 0 1 -318 -439 )">
    <path d="M 43.6530612244898 6.99544270833333  C 44.3525410164066 7.22330729166667  44.8955582232893 7.54991319444444  45.2821128451381 7.97526041666667  C 46.0184073629452 8.84114583333333  46.1840736294518 9.82096354166667  45.7791116446579 10.9147135416667  L 38.1860744297719 31.5592447916667  C 37.8363345338135 32.5314670138889  37.1322529011605 33.3479817708333  36.0738295318127 34.0087890625  C 35.015406162465 34.6695963541667  33.8879551820728 35  32.6914765906363 35  L 7.20648259303722 35  C 5.7891156462585 35  4.42236894757903 34.5936414930556  3.1062424969988 33.7809244791667  C 1.79011604641857 32.9682074652778  0.874349739895959 31.9694010416667  0.358943577430972 30.7845052083333  C -0.0828331332533013 29.7667100694444  -0.101240496198479 28.8020833333333  0.303721488595438 27.890625  C 0.303721488595438 27.8298611111111  0.331332533013205 27.6247829861111  0.386554621848739 27.275390625  C 0.441776710684274 26.9259982638889  0.47859143657463 26.6449652777778  0.496998799519808 26.4322916666667  C 0.515406162464986 26.3107638888889  0.487795118047219 26.1474609375  0.414165666266507 25.9423828125  C 0.340536214485794 25.7373046875  0.312925170068027 25.5891927083333  0.331332533013205 25.498046875  C 0.368147258903561 25.3309461805556  0.441776710684274 25.1714409722222  0.552220888355342 25.01953125  C 0.662665066026411 24.8676215277778  0.81452581032413 24.6891276041667  1.0078031212485 24.4840494791667  C 1.20108043217287 24.2789713541667  1.35294117647059 24.1004774305556  1.46338535414166 23.9485677083333  C 1.88675470188075 23.3713107638889  2.30092036814726 22.6763237847222  2.70588235294118 21.8636067708333  C 3.11084433773509 21.0508897569444  3.38695478191277 20.3559027777778  3.53421368547419 19.7786458333333  C 3.58943577430972 19.6267361111111  3.59403761504602 19.3988715277778  3.54801920768307 19.0950520833333  C 3.50200080032013 18.7912326388889  3.49739895958383 18.5785590277778  3.53421368547419 18.45703125  C 3.58943577430972 18.2899305555556  3.74589835934374 18.0772569444444  4.00360144057623 17.8190104166667  C 4.26130452180872 17.5607638888889  4.41776710684274 17.3860677083333  4.47298919567827 17.294921875  C 4.85954381752701 16.748046875  5.24609843937575 16.0492621527778  5.63265306122449 15.1985677083333  C 6.01920768307323 14.3478732638889  6.24929971988796 13.6642795138889  6.32292917166867 13.1477864583333  C 6.34133653461385 13.0110677083333  6.31832733093237 12.7680121527778  6.25390156062425 12.4186197916667  C 6.18947579031613 12.0692274305556  6.19407763105242 11.8565538194444  6.26770708283313 11.7805989583333  C 6.34133653461385 11.5831163194444  6.5438175270108 11.3514539930556  6.87515006002401 11.0856119791667  C 7.20648259303722 10.8197699652778  7.40896358543417 10.6488715277778  7.48259303721489 10.5729166666667  C 7.83233293317327 10.1779513888889  8.22348939575831 9.5361328125  8.65606242496999 8.6474609375  C 9.08863545418167 7.7587890625  9.34173669467787 7.02582465277778  9.41536614645858 6.44856770833333  C 9.43377350940376 6.32703993055555  9.40616246498599 6.13335503472222  9.33253301320528 5.86751302083333  C 9.25890356142457 5.60167100694444  9.24049619847939 5.400390625  9.27731092436975 5.263671875  C 9.3141256502601 5.14214409722222  9.39695878351341 5.00542534722222  9.52581032412965 4.853515625  C 9.6546618647459 4.70160590277778  9.8203281312525 4.52690972222222  10.0228091236495 4.32942708333333  C 10.2252901160464 4.13194444444444  10.3817527010804 3.97243923611111  10.4921968787515 3.85091145833333  C 10.6394557823129 3.66861979166667  10.7913165266106 3.43695746527778  10.9477791116447 3.15592447916667  C 11.1042416966787 2.87489149305555  11.2422969187675 2.60904947916667  11.3619447779112 2.3583984375  C 11.4815926370548 2.10774739583333  11.6288515406162 1.83430989583333  11.8037214885954 1.5380859375  C 11.9785914365746 1.24186197916667  12.1580632252901 0.998806423611109  12.3421368547419 0.808919270833332  C 12.5262104841937 0.619032118055551  12.7701080432173 0.440538194444441  13.0738295318127 0.2734375  C 13.3775510204082 0.106336805555551  13.7088835534214 0.0189887152777773  14.0678271308523 0.011393229166668  C 14.4267707082833 0.00379774305555081  14.8639455782313 0.045572916666668  15.3793517406963 0.13671875  L 15.3517406962785 0.205078125  C 16.0512204881953 0.068359375  16.5206082432973 0  16.7599039615846 0  L 37.7719087635054 0  C 39.1340536214486 0  40.1832733093237 0.425347222222219  40.9195678271309 1.27604166666667  C 41.655862344938 2.12673611111111  41.8215286114446 3.11414930555555  41.4165666266507 4.23828125  L 33.8511404561825 24.8828125  C 33.1884753901561 26.6905381944444  32.530412164866 27.8564453125  31.8769507803121 28.3805338541667  C 31.2234893957583 28.9046223958333  30.0408163265306 29.1666666666667  28.3289315726291 29  L 4.33493397358944 29  C 3.83793517406963 29.1666666666667  3.48819527811124 29.2805989583333  3.28571428571429 29.5084635416667  C 3.08323329331733 29.7515190972222  3.07402961184474 30.078125  3.25810324129652 30.48828125  C 3.69987995198079 31.5516493055556  5.02521008403361 32.0833333333333  7.23409363745498 32  L 32.719087635054 32  C 33.2529011604642 32.0833333333333  33.7683073229292 31.9656032986111  34.265306122449 31.7301432291667  C 34.7623049219688 31.4946831597222  35.0844337735094 31.1794704861111  35.2316926770708 30.7845052083333  L 43.515006002401 8.29427083333333  C 43.6438575430172 7.96006944444444  43.6898759503802 7.52712673611111  43.6530612244898 6.99544270833333  Z M 16.483793517407 6.5625  L 15.9039615846339 8.02083333333333  C 15.8303321328531 8.21831597222222  15.8487394957983 8.38921440972222  15.9591836734694 8.53352864583333  C 16.0696278511405 8.67784288194444  16.2537014805922 8.75  16.5114045618247 9  L 33.2989195678271 9  C 33.5382152861145 8.75  33.7729091636655 8.67784288194444  34.0030012004802 8.53352864583333  C 34.2330932372949 8.38921440972222  34.3849539815926 8.21831597222222  34.4585834333733 8.02083333333333  L 35.0384153661465 6.5625  C 35.1120448179272 6.36501736111111  35.093637454982 6.19411892361111  34.9831932773109 6.0498046875  C 34.8727490996399 5.90549045138889  34.6886754701881 5.83333333333333  34.4309723889556 6  L 17.6434573829532 6  C 17.4041616646659 5.83333333333333  17.1694677871148 5.90549045138889  16.9393757503001 6.0498046875  C 16.7092837134854 6.19411892361111  16.5574229691877 6.36501736111111  16.483793517407 6.5625  Z M 14.1920768307323 12.3958333333333  L 13.6122448979592 13.8541666666667  C 13.5386154461785 14.0516493055556  13.5570228091236 14.2225477430556  13.6674669867947 14.3668619791667  C 13.7779111644658 14.5111762152778  13.9619847939176 14.5833333333333  14.2196878751501 15  L 31.0072028811525 15  C 31.2464985994398 14.5833333333333  31.4811924769908 14.5111762152778  31.7112845138055 14.3668619791667  C 31.9413765506203 14.2225477430556  32.093237294918 14.0516493055556  32.1668667466987 13.8541666666667  L 32.7466986794718 12.3958333333333  C 32.8203281312525 12.1983506944444  32.8019207683073 12.0274522569444  32.6914765906363 11.8831380208333  C 32.5810324129652 11.7388237847222  32.3969587835134 11.6666666666667  32.1392557022809 12  L 15.3517406962785 12  C 15.1124449779912 11.6666666666667  14.8777511004402 11.7388237847222  14.6476590636255 11.8831380208333  C 14.4175670268107 12.0274522569444  14.265706282513 12.1983506944444  14.1920768307323 12.3958333333333  Z " fill-rule="nonzero" fill="#d002b9" stroke="none" transform="matrix(1 0 0 1 318 439 )" />
  </g>
</svg>