<?xml version="1.0" encoding="utf-8"?>
<svg version="1.1" xmlns:xlink="http://www.w3.org/1999/xlink" width="12px" height="12px" viewBox="965 865  12 12" xmlns="http://www.w3.org/2000/svg">
  <path d="M 965.5 868  A 2.5 2.5 0 0 1 968 865.5 L 974 865.5  A 2.5 2.5 0 0 1 976.5 868 L 976.5 874  A 2.5 2.5 0 0 1 974 876.5 L 968 876.5  A 2.5 2.5 0 0 1 965.5 874 L 965.5 868  Z " fill-rule="nonzero" fill="#9d41c8" stroke="none" />
  <path d="M 965.5 868  A 2.5 2.5 0 0 1 968 865.5 L 974 865.5  A 2.5 2.5 0 0 1 976.5 868 L 976.5 874  A 2.5 2.5 0 0 1 974 876.5 L 968 876.5  A 2.5 2.5 0 0 1 965.5 874 L 965.5 868  Z " stroke-width="1" stroke="#ffffff" fill="none" />
  <path d="M 967.571428571429 871  L 970.142857142857 873.571428571429  " stroke-width="2.57142857142857" stroke="#ffffff" fill="none" />
  <path d="M 970.142857142857 873.571428571429  L 974.428571428571 867.571428571429  " stroke-width="2.57142857142857" stroke="#ffffff" fill="none" />
</svg>