<?xml version="1.0" encoding="utf-8"?>
<svg version="1.1" xmlns:xlink="http://www.w3.org/1999/xlink" width="12px" height="12px" viewBox="747 865  12 12" xmlns="http://www.w3.org/2000/svg">
  <path d="M 747.5 868  A 2.5 2.5 0 0 1 750 865.5 L 756 865.5  A 2.5 2.5 0 0 1 758.5 868 L 758.5 874  A 2.5 2.5 0 0 1 756 876.5 L 750 876.5  A 2.5 2.5 0 0 1 747.5 874 L 747.5 868  Z " fill-rule="nonzero" fill="#f0f0f0" stroke="none" />
  <path d="M 747.5 868  A 2.5 2.5 0 0 1 750 865.5 L 756 865.5  A 2.5 2.5 0 0 1 758.5 868 L 758.5 874  A 2.5 2.5 0 0 1 756 876.5 L 750 876.5  A 2.5 2.5 0 0 1 747.5 874 L 747.5 868  Z " stroke-width="1" stroke="#797979" fill="none" />
  <path d="M 749.571428571429 871  L 752.142857142857 873.571428571429  " stroke-width="2.57142857142857" stroke="#797979" fill="none" />
  <path d="M 752.142857142857 873.571428571429  L 756.428571428571 867.571428571429  " stroke-width="2.57142857142857" stroke="#797979" fill="none" />
</svg>