<?xml version="1.0" encoding="utf-8"?>
<svg version="1.1" xmlns:xlink="http://www.w3.org/1999/xlink" width="12px" height="12px" viewBox="891 1013  12 12" xmlns="http://www.w3.org/2000/svg">
  <path d="M 897 1013  C 900.36 1013  903 1015.64  903 1019  C 903 1022.36  900.36 1025  897 1025  C 893.64 1025  891 1022.36  891 1019  C 891 1015.64  893.64 1013  897 1013  Z " fill-rule="nonzero" fill="#f0f0f0" stroke="none" />
  <path d="M 897 1013.5  C 900.08 1013.5  902.5 1015.92  902.5 1019  C 902.5 1022.08  900.08 1024.5  897 1024.5  C 893.92 1024.5  891.5 1022.08  891.5 1019  C 891.5 1015.92  893.92 1013.5  897 1013.5  Z " stroke-width="1" stroke="#797979" fill="none" />
  <path d="M 897 1022  C 895.32 1022  894 1020.68  894 1019  C 894 1017.32  895.32 1016  897 1016  C 898.68 1016  900 1017.32  900 1019  C 900 1020.68  898.68 1022  897 1022  " fill-rule="nonzero" fill="#797979" stroke="none" />
</svg>