<?xml version="1.0" encoding="utf-8"?>
<svg version="1.1" xmlns:xlink="http://www.w3.org/1999/xlink" width="12px" height="12px" viewBox="721 1013  12 12" xmlns="http://www.w3.org/2000/svg">
  <path d="M 727 1013  C 730.36 1013  733 1015.64  733 1019  C 733 1022.36  730.36 1025  727 1025  C 723.64 1025  721 1022.36  721 1019  C 721 1015.64  723.64 1013  727 1013  Z " fill-rule="nonzero" fill="#ffffff" stroke="none" />
  <path d="M 727 1013.5  C 730.08 1013.5  732.5 1015.92  732.5 1019  C 732.5 1022.08  730.08 1024.5  727 1024.5  C 723.92 1024.5  721.5 1022.08  721.5 1019  C 721.5 1015.92  723.92 1013.5  727 1013.5  Z " stroke-width="1" stroke="#797979" fill="none" />
  <path d="M 727 1022  C 725.32 1022  724 1020.68  724 1019  C 724 1017.32  725.32 1016  727 1016  C 728.68 1016  730 1017.32  730 1019  C 730 1020.68  728.68 1022  727 1022  " fill-rule="nonzero" fill="#797979" stroke="none" />
</svg>