<?xml version="1.0" encoding="utf-8"?>
<svg version="1.1" xmlns:xlink="http://www.w3.org/1999/xlink" width="12px" height="12px" viewBox="1061 2446  12 12" xmlns="http://www.w3.org/2000/svg">
  <path d="M 1061.5 2449  A 2.5 2.5 0 0 1 1064 2446.5 L 1070 2446.5  A 2.5 2.5 0 0 1 1072.5 2449 L 1072.5 2455  A 2.5 2.5 0 0 1 1070 2457.5 L 1064 2457.5  A 2.5 2.5 0 0 1 1061.5 2455 L 1061.5 2449  Z " fill-rule="nonzero" fill="#f0f0f0" stroke="none" />
  <path d="M 1061.5 2449  A 2.5 2.5 0 0 1 1064 2446.5 L 1070 2446.5  A 2.5 2.5 0 0 1 1072.5 2449 L 1072.5 2455  A 2.5 2.5 0 0 1 1070 2457.5 L 1064 2457.5  A 2.5 2.5 0 0 1 1061.5 2455 L 1061.5 2449  Z " stroke-width="1" stroke="#797979" fill="none" />
  <path d="M 1063.57142857143 2452  L 1066.14285714286 2454.57142857143  " stroke-width="2.57142857142857" stroke="#797979" fill="none" />
  <path d="M 1066.14285714286 2454.57142857143  L 1070.42857142857 2448.57142857143  " stroke-width="2.57142857142857" stroke="#797979" fill="none" />
</svg>