<?xml version="1.0" encoding="utf-8"?>
<svg version="1.1" xmlns:xlink="http://www.w3.org/1999/xlink" width="23px" height="22px" xmlns="http://www.w3.org/2000/svg">
  <g transform="matrix(1 0 0 1 -425 -239 )">
    <path d="M 17.4296875 19.89453125  C 17.6047676282051 19.7131076388889  17.6923076923077 19.4982638888889  17.6923076923077 19.25  C 17.6923076923077 19.0017361111111  17.6047676282051 18.7868923611111  17.4296875 18.60546875  C 17.2546073717949 18.4240451388889  17.0472756410256 18.3333333333333  16.8076923076923 18.3333333333333  C 16.568108974359 18.3333333333333  16.3607772435897 18.4240451388889  16.1856971153846 18.60546875  C 16.0106169871795 18.7868923611111  15.9230769230769 19.0017361111111  15.9230769230769 19.25  C 15.9230769230769 19.4982638888889  16.0106169871795 19.7131076388889  16.1856971153846 19.89453125  C 16.3607772435897 20.0759548611111  16.568108974359 20.1666666666667  16.8076923076923 20.1666666666667  C 17.0472756410256 20.1666666666667  17.2546073717949 20.0759548611111  17.4296875 19.89453125  Z M 20.9681490384615 19.89453125  C 21.1432291666667 19.7131076388889  21.2307692307692 19.4982638888889  21.2307692307692 19.25  C 21.2307692307692 19.0017361111111  21.1432291666667 18.7868923611111  20.9681490384615 18.60546875  C 20.7930689102564 18.4240451388889  20.5857371794872 18.3333333333333  20.3461538461538 18.3333333333333  C 20.1065705128205 18.3333333333333  19.8992387820513 18.4240451388889  19.7241586538462 18.60546875  C 19.549078525641 18.7868923611111  19.4615384615385 19.0017361111111  19.4615384615385 19.25  C 19.4615384615385 19.4982638888889  19.549078525641 19.7131076388889  19.7241586538462 19.89453125  C 19.8992387820513 20.0759548611111  20.1065705128205 20.1666666666667  20.3461538461538 20.1666666666667  C 20.5857371794872 20.1666666666667  20.7930689102564 20.0759548611111  20.9681490384615 19.89453125  Z M 22.6129807692308 15.0677083333333  C 22.8709935897436 15.3350694444444  23 15.6597222222222  23 16.0416666666667  L 23 20.625  C 23 21.0069444444444  22.8709935897436 21.3315972222222  22.6129807692308 21.5989583333333  C 22.354967948718 21.8663194444444  22.0416666666667 22  21.6730769230769 22  L 1.32692307692308 22  C 0.958333333333333 22  0.645032051282051 21.8663194444444  0.387019230769231 21.5989583333333  C 0.12900641025641 21.3315972222222  0 21.0069444444444  0 20.625  L 0 16.0416666666667  C 0 15.6597222222222  0.12900641025641 15.3350694444444  0.387019230769231 15.0677083333333  C 0.645032051282051 14.8003472222222  0.958333333333333 14.6666666666667  1.32692307692308 14.6666666666667  L 7.75420673076923 14.6666666666667  L 9.62019230769231 16.6145833333333  C 10.1546474358974 17.1493055555556  10.78125 17.4166666666667  11.5 17.4166666666667  C 12.21875 17.4166666666667  12.8453525641026 17.1493055555556  13.3798076923077 16.6145833333333  L 15.2596153846154 14.6666666666667  L 21.6730769230769 14.6666666666667  C 22.0416666666667 14.6666666666667  22.354967948718 14.8003472222222  22.6129807692308 15.0677083333333  Z M 17.6923076923077 7.33333333333333  C 18.0793269230769 7.33333333333333  18.3511618589744 7.51953125  18.5078125 7.89192708333333  C 18.6644631410256 8.28342013888889  18.5999599358974 8.61762152777778  18.3143028846154 8.89453125  L 12.1219951923077 15.3111979166667  C 11.9561298076923 15.4926215277778  11.7487980769231 15.5833333333333  11.5 15.5833333333333  C 11.2512019230769 15.5833333333333  11.0438701923077 15.4926215277778  10.8780048076923 15.3111979166667  L 4.68569711538462 8.89453125  C 4.40004006410256 8.61762152777778  4.33553685897436 8.28342013888889  4.4921875 7.89192708333333  C 4.64883814102564 7.51953125  4.92067307692308 7.33333333333333  5.30769230769231 7.33333333333333  L 8.84615384615385 7.33333333333333  L 8.84615384615385 0.916666666666666  C 8.84615384615385 0.668402777777775  8.93369391025641 0.453559027777775  9.10877403846154 0.272135416666666  C 9.28385416666667 0.0907118055555569  9.4911858974359 0  9.73076923076923 0  L 13.2692307692308 0  C 13.5088141025641 0  13.7161458333333 0.0907118055555569  13.8912259615385 0.272135416666666  C 14.0663060897436 0.453559027777775  14.1538461538462 0.668402777777775  14.1538461538462 0.916666666666666  L 14.1538461538462 7.33333333333333  L 17.6923076923077 7.33333333333333  Z " fill-rule="nonzero" fill="#005b28" stroke="none" transform="matrix(1 0 0 1 425 239 )" />
  </g>
</svg>