<?xml version="1.0" encoding="utf-8"?>
<svg version="1.1" xmlns:xlink="http://www.w3.org/1999/xlink" width="12px" height="12px" viewBox="2254 416  12 12" xmlns="http://www.w3.org/2000/svg">
  <path d="M 2255.5 419  A 1.5 1.5 0 0 1 2257 417.5 L 2263 417.5  A 1.5 1.5 0 0 1 2264.5 419 L 2264.5 425  A 1.5 1.5 0 0 1 2263 426.5 L 2257 426.5  A 1.5 1.5 0 0 1 2255.5 425 L 2255.5 419  Z " fill-rule="nonzero" fill="#ffffff" stroke="none" />
  <path d="M 2255 419  A 2 2 0 0 1 2257 417 L 2263 417  A 2 2 0 0 1 2265 419 L 2265 425  A 2 2 0 0 1 2263 427 L 2257 427  A 2 2 0 0 1 2255 425 L 2255 419  Z " stroke-width="2" stroke="#9d41c8" fill="none" />
</svg>