<?xml version="1.0" encoding="utf-8"?>
<svg version="1.1" xmlns:xlink="http://www.w3.org/1999/xlink" width="12px" height="12px" viewBox="2254 416  12 12" xmlns="http://www.w3.org/2000/svg">
  <path d="M 2254.5 419  A 2.5 2.5 0 0 1 2257 416.5 L 2263 416.5  A 2.5 2.5 0 0 1 2265.5 419 L 2265.5 425  A 2.5 2.5 0 0 1 2263 427.5 L 2257 427.5  A 2.5 2.5 0 0 1 2254.5 425 L 2254.5 419  Z " fill-rule="nonzero" fill="#ffffff" stroke="none" />
  <path d="M 2254.5 419  A 2.5 2.5 0 0 1 2257 416.5 L 2263 416.5  A 2.5 2.5 0 0 1 2265.5 419 L 2265.5 425  A 2.5 2.5 0 0 1 2263 427.5 L 2257 427.5  A 2.5 2.5 0 0 1 2254.5 425 L 2254.5 419  Z " stroke-width="1" stroke="#797979" fill="none" />
</svg>