<?xml version="1.0" encoding="utf-8"?>
<svg version="1.1" xmlns:xlink="http://www.w3.org/1999/xlink" width="12px" height="12px" viewBox="2254 312  12 12" xmlns="http://www.w3.org/2000/svg">
  <path d="M 2255.5 315  A 1.5 1.5 0 0 1 2257 313.5 L 2263 313.5  A 1.5 1.5 0 0 1 2264.5 315 L 2264.5 321  A 1.5 1.5 0 0 1 2263 322.5 L 2257 322.5  A 1.5 1.5 0 0 1 2255.5 321 L 2255.5 315  Z " fill-rule="nonzero" fill="#ffffff" stroke="none" />
  <path d="M 2255 315  A 2 2 0 0 1 2257 313 L 2263 313  A 2 2 0 0 1 2265 315 L 2265 321  A 2 2 0 0 1 2263 323 L 2257 323  A 2 2 0 0 1 2255 321 L 2255 315  Z " stroke-width="2" stroke="#9d41c8" fill="none" />
</svg>