<?xml version="1.0" encoding="utf-8"?>
<svg version="1.1" xmlns:xlink="http://www.w3.org/1999/xlink" width="12px" height="12px" viewBox="2254 346  12 12" xmlns="http://www.w3.org/2000/svg">
  <path d="M 2255.5 349  A 1.5 1.5 0 0 1 2257 347.5 L 2263 347.5  A 1.5 1.5 0 0 1 2264.5 349 L 2264.5 355  A 1.5 1.5 0 0 1 2263 356.5 L 2257 356.5  A 1.5 1.5 0 0 1 2255.5 355 L 2255.5 349  Z " fill-rule="nonzero" fill="#ffffff" stroke="none" />
  <path d="M 2255 349  A 2 2 0 0 1 2257 347 L 2263 347  A 2 2 0 0 1 2265 349 L 2265 355  A 2 2 0 0 1 2263 357 L 2257 357  A 2 2 0 0 1 2255 355 L 2255 349  Z " stroke-width="2" stroke="#9d41c8" fill="none" />
</svg>