<?xml version="1.0" encoding="utf-8"?>
<svg version="1.1" xmlns:xlink="http://www.w3.org/1999/xlink" width="12px" height="12px" viewBox="2254 246  12 12" xmlns="http://www.w3.org/2000/svg">
  <path d="M 2255.5 249  A 1.5 1.5 0 0 1 2257 247.5 L 2263 247.5  A 1.5 1.5 0 0 1 2264.5 249 L 2264.5 255  A 1.5 1.5 0 0 1 2263 256.5 L 2257 256.5  A 1.5 1.5 0 0 1 2255.5 255 L 2255.5 249  Z " fill-rule="nonzero" fill="#ffffff" stroke="none" />
  <path d="M 2255 249  A 2 2 0 0 1 2257 247 L 2263 247  A 2 2 0 0 1 2265 249 L 2265 255  A 2 2 0 0 1 2263 257 L 2257 257  A 2 2 0 0 1 2255 255 L 2255 249  Z " stroke-width="2" stroke="#9d41c8" fill="none" />
</svg>