<?xml version="1.0" encoding="utf-8"?>
<svg version="1.1" xmlns:xlink="http://www.w3.org/1999/xlink" width="12px" height="12px" viewBox="2254 279  12 12" xmlns="http://www.w3.org/2000/svg">
  <path d="M 2254.5 282  A 2.5 2.5 0 0 1 2257 279.5 L 2263 279.5  A 2.5 2.5 0 0 1 2265.5 282 L 2265.5 288  A 2.5 2.5 0 0 1 2263 290.5 L 2257 290.5  A 2.5 2.5 0 0 1 2254.5 288 L 2254.5 282  Z " fill-rule="nonzero" fill="#9d41c8" stroke="none" />
  <path d="M 2254.5 282  A 2.5 2.5 0 0 1 2257 279.5 L 2263 279.5  A 2.5 2.5 0 0 1 2265.5 282 L 2265.5 288  A 2.5 2.5 0 0 1 2263 290.5 L 2257 290.5  A 2.5 2.5 0 0 1 2254.5 288 L 2254.5 282  Z " stroke-width="1" stroke="#ffffff" fill="none" />
  <path d="M 2256.57142857143 285  L 2259.14285714286 287.571428571429  " stroke-width="2.57142857142857" stroke="#ffffff" fill="none" />
  <path d="M 2259.14285714286 287.571428571429  L 2263.42857142857 281.571428571429  " stroke-width="2.57142857142857" stroke="#ffffff" fill="none" />
</svg>