<?xml version="1.0" encoding="utf-8"?>
<svg version="1.1" xmlns:xlink="http://www.w3.org/1999/xlink" width="12px" height="12px" viewBox="2254 382  12 12" xmlns="http://www.w3.org/2000/svg">
  <path d="M 2254.5 385  A 2.5 2.5 0 0 1 2257 382.5 L 2263 382.5  A 2.5 2.5 0 0 1 2265.5 385 L 2265.5 391  A 2.5 2.5 0 0 1 2263 393.5 L 2257 393.5  A 2.5 2.5 0 0 1 2254.5 391 L 2254.5 385  Z " fill-rule="nonzero" fill="#f0f0f0" stroke="none" />
  <path d="M 2254.5 385  A 2.5 2.5 0 0 1 2257 382.5 L 2263 382.5  A 2.5 2.5 0 0 1 2265.5 385 L 2265.5 391  A 2.5 2.5 0 0 1 2263 393.5 L 2257 393.5  A 2.5 2.5 0 0 1 2254.5 391 L 2254.5 385  Z " stroke-width="1" stroke="#797979" fill="none" />
</svg>