<?xml version="1.0" encoding="utf-8"?>
<svg version="1.1" xmlns:xlink="http://www.w3.org/1999/xlink" width="12px" height="12px" viewBox="2254 480  12 12" xmlns="http://www.w3.org/2000/svg">
  <path d="M 2255.5 483  A 1.5 1.5 0 0 1 2257 481.5 L 2263 481.5  A 1.5 1.5 0 0 1 2264.5 483 L 2264.5 489  A 1.5 1.5 0 0 1 2263 490.5 L 2257 490.5  A 1.5 1.5 0 0 1 2255.5 489 L 2255.5 483  Z " fill-rule="nonzero" fill="#ffffff" stroke="none" />
  <path d="M 2255 483  A 2 2 0 0 1 2257 481 L 2263 481  A 2 2 0 0 1 2265 483 L 2265 489  A 2 2 0 0 1 2263 491 L 2257 491  A 2 2 0 0 1 2255 489 L 2255 483  Z " stroke-width="2" stroke="#9d41c8" fill="none" />
</svg>