<?xml version="1.0" encoding="utf-8"?>
<svg version="1.1" xmlns:xlink="http://www.w3.org/1999/xlink" width="12px" height="12px" viewBox="2254 279  12 12" xmlns="http://www.w3.org/2000/svg">
  <path d="M 2255.5 282  A 1.5 1.5 0 0 1 2257 280.5 L 2263 280.5  A 1.5 1.5 0 0 1 2264.5 282 L 2264.5 288  A 1.5 1.5 0 0 1 2263 289.5 L 2257 289.5  A 1.5 1.5 0 0 1 2255.5 288 L 2255.5 282  Z " fill-rule="nonzero" fill="#ffffff" stroke="none" />
  <path d="M 2255 282  A 2 2 0 0 1 2257 280 L 2263 280  A 2 2 0 0 1 2265 282 L 2265 288  A 2 2 0 0 1 2263 290 L 2257 290  A 2 2 0 0 1 2255 288 L 2255 282  Z " stroke-width="2" stroke="#9d41c8" fill="none" />
</svg>