<?xml version="1.0" encoding="utf-8"?>
<svg version="1.1" xmlns:xlink="http://www.w3.org/1999/xlink" width="12px" height="12px" viewBox="2254 346  12 12" xmlns="http://www.w3.org/2000/svg">
  <path d="M 2254.5 349  A 2.5 2.5 0 0 1 2257 346.5 L 2263 346.5  A 2.5 2.5 0 0 1 2265.5 349 L 2265.5 355  A 2.5 2.5 0 0 1 2263 357.5 L 2257 357.5  A 2.5 2.5 0 0 1 2254.5 355 L 2254.5 349  Z " fill-rule="nonzero" fill="#f0f0f0" stroke="none" />
  <path d="M 2254.5 349  A 2.5 2.5 0 0 1 2257 346.5 L 2263 346.5  A 2.5 2.5 0 0 1 2265.5 349 L 2265.5 355  A 2.5 2.5 0 0 1 2263 357.5 L 2257 357.5  A 2.5 2.5 0 0 1 2254.5 355 L 2254.5 349  Z " stroke-width="1" stroke="#797979" fill="none" />
  <path d="M 2256.57142857143 352  L 2259.14285714286 354.571428571429  " stroke-width="2.57142857142857" stroke="#797979" fill="none" />
  <path d="M 2259.14285714286 354.571428571429  L 2263.42857142857 348.571428571429  " stroke-width="2.57142857142857" stroke="#797979" fill="none" />
</svg>