<?xml version="1.0" encoding="utf-8"?>
<svg version="1.1" xmlns:xlink="http://www.w3.org/1999/xlink" width="12px" height="12px" viewBox="2254 515  12 12" xmlns="http://www.w3.org/2000/svg">
  <path d="M 2254.5 518  A 2.5 2.5 0 0 1 2257 515.5 L 2263 515.5  A 2.5 2.5 0 0 1 2265.5 518 L 2265.5 524  A 2.5 2.5 0 0 1 2263 526.5 L 2257 526.5  A 2.5 2.5 0 0 1 2254.5 524 L 2254.5 518  Z " fill-rule="nonzero" fill="#f0f0f0" stroke="none" />
  <path d="M 2254.5 518  A 2.5 2.5 0 0 1 2257 515.5 L 2263 515.5  A 2.5 2.5 0 0 1 2265.5 518 L 2265.5 524  A 2.5 2.5 0 0 1 2263 526.5 L 2257 526.5  A 2.5 2.5 0 0 1 2254.5 524 L 2254.5 518  Z " stroke-width="1" stroke="#797979" fill="none" />
</svg>