<?xml version="1.0" encoding="utf-8"?>
<svg version="1.1" xmlns:xlink="http://www.w3.org/1999/xlink" width="12px" height="12px" viewBox="2254 551  12 12" xmlns="http://www.w3.org/2000/svg">
  <path d="M 2254.5 554  A 2.5 2.5 0 0 1 2257 551.5 L 2263 551.5  A 2.5 2.5 0 0 1 2265.5 554 L 2265.5 560  A 2.5 2.5 0 0 1 2263 562.5 L 2257 562.5  A 2.5 2.5 0 0 1 2254.5 560 L 2254.5 554  Z " fill-rule="nonzero" fill="#9d41c8" stroke="none" />
  <path d="M 2254.5 554  A 2.5 2.5 0 0 1 2257 551.5 L 2263 551.5  A 2.5 2.5 0 0 1 2265.5 554 L 2265.5 560  A 2.5 2.5 0 0 1 2263 562.5 L 2257 562.5  A 2.5 2.5 0 0 1 2254.5 560 L 2254.5 554  Z " stroke-width="1" stroke="#ffffff" fill="none" />
  <path d="M 2256.57142857143 557  L 2259.14285714286 559.571428571429  " stroke-width="2.57142857142857" stroke="#ffffff" fill="none" />
  <path d="M 2259.14285714286 559.571428571429  L 2263.42857142857 553.571428571429  " stroke-width="2.57142857142857" stroke="#ffffff" fill="none" />
</svg>