<?xml version="1.0" encoding="utf-8"?>
<svg version="1.1" xmlns:xlink="http://www.w3.org/1999/xlink" width="12px" height="12px" viewBox="2254 382  12 12" xmlns="http://www.w3.org/2000/svg">
  <path d="M 2255.5 385  A 1.5 1.5 0 0 1 2257 383.5 L 2263 383.5  A 1.5 1.5 0 0 1 2264.5 385 L 2264.5 391  A 1.5 1.5 0 0 1 2263 392.5 L 2257 392.5  A 1.5 1.5 0 0 1 2255.5 391 L 2255.5 385  Z " fill-rule="nonzero" fill="#ffffff" stroke="none" />
  <path d="M 2255 385  A 2 2 0 0 1 2257 383 L 2263 383  A 2 2 0 0 1 2265 385 L 2265 391  A 2 2 0 0 1 2263 393 L 2257 393  A 2 2 0 0 1 2255 391 L 2255 385  Z " stroke-width="2" stroke="#9d41c8" fill="none" />
</svg>