<?xml version="1.0" encoding="utf-8"?>
<svg version="1.1" xmlns:xlink="http://www.w3.org/1999/xlink" width="12px" height="12px" viewBox="2254 515  12 12" xmlns="http://www.w3.org/2000/svg">
  <path d="M 2255.5 518  A 1.5 1.5 0 0 1 2257 516.5 L 2263 516.5  A 1.5 1.5 0 0 1 2264.5 518 L 2264.5 524  A 1.5 1.5 0 0 1 2263 525.5 L 2257 525.5  A 1.5 1.5 0 0 1 2255.5 524 L 2255.5 518  Z " fill-rule="nonzero" fill="#ffffff" stroke="none" />
  <path d="M 2255 518  A 2 2 0 0 1 2257 516 L 2263 516  A 2 2 0 0 1 2265 518 L 2265 524  A 2 2 0 0 1 2263 526 L 2257 526  A 2 2 0 0 1 2255 524 L 2255 518  Z " stroke-width="2" stroke="#9d41c8" fill="none" />
</svg>