<?xml version="1.0" encoding="utf-8"?>
<svg version="1.1" xmlns:xlink="http://www.w3.org/1999/xlink" width="12px" height="12px" viewBox="2254 551  12 12" xmlns="http://www.w3.org/2000/svg">
  <path d="M 2255.5 554  A 1.5 1.5 0 0 1 2257 552.5 L 2263 552.5  A 1.5 1.5 0 0 1 2264.5 554 L 2264.5 560  A 1.5 1.5 0 0 1 2263 561.5 L 2257 561.5  A 1.5 1.5 0 0 1 2255.5 560 L 2255.5 554  Z " fill-rule="nonzero" fill="#ffffff" stroke="none" />
  <path d="M 2255 554  A 2 2 0 0 1 2257 552 L 2263 552  A 2 2 0 0 1 2265 554 L 2265 560  A 2 2 0 0 1 2263 562 L 2257 562  A 2 2 0 0 1 2255 560 L 2255 554  Z " stroke-width="2" stroke="#9d41c8" fill="none" />
</svg>