<?xml version="1.0" encoding="utf-8"?>
<svg version="1.1" xmlns:xlink="http://www.w3.org/1999/xlink" width="12px" height="12px" viewBox="2254 447  12 12" xmlns="http://www.w3.org/2000/svg">
  <path d="M 2255.5 450  A 1.5 1.5 0 0 1 2257 448.5 L 2263 448.5  A 1.5 1.5 0 0 1 2264.5 450 L 2264.5 456  A 1.5 1.5 0 0 1 2263 457.5 L 2257 457.5  A 1.5 1.5 0 0 1 2255.5 456 L 2255.5 450  Z " fill-rule="nonzero" fill="#ffffff" stroke="none" />
  <path d="M 2255 450  A 2 2 0 0 1 2257 448 L 2263 448  A 2 2 0 0 1 2265 450 L 2265 456  A 2 2 0 0 1 2263 458 L 2257 458  A 2 2 0 0 1 2255 456 L 2255 450  Z " stroke-width="2" stroke="#9d41c8" fill="none" />
</svg>