<?xml version="1.0" encoding="utf-8"?>
<svg version="1.1" xmlns:xlink="http://www.w3.org/1999/xlink" width="12px" height="12px" viewBox="2254 515  12 12" xmlns="http://www.w3.org/2000/svg">
  <path d="M 2254.5 518  A 2.5 2.5 0 0 1 2257 515.5 L 2263 515.5  A 2.5 2.5 0 0 1 2265.5 518 L 2265.5 524  A 2.5 2.5 0 0 1 2263 526.5 L 2257 526.5  A 2.5 2.5 0 0 1 2254.5 524 L 2254.5 518  Z " fill-rule="nonzero" fill="#9d41c8" stroke="none" />
  <path d="M 2254.5 518  A 2.5 2.5 0 0 1 2257 515.5 L 2263 515.5  A 2.5 2.5 0 0 1 2265.5 518 L 2265.5 524  A 2.5 2.5 0 0 1 2263 526.5 L 2257 526.5  A 2.5 2.5 0 0 1 2254.5 524 L 2254.5 518  Z " stroke-width="1" stroke="#ffffff" fill="none" />
  <path d="M 2256.57142857143 521  L 2259.14285714286 523.571428571429  " stroke-width="2.57142857142857" stroke="#ffffff" fill="none" />
  <path d="M 2259.14285714286 523.571428571429  L 2263.42857142857 517.571428571429  " stroke-width="2.57142857142857" stroke="#ffffff" fill="none" />
</svg>