<?xml version="1.0" encoding="utf-8"?>
<svg version="1.1" xmlns:xlink="http://www.w3.org/1999/xlink" width="12px" height="12px" viewBox="885 865  12 12" xmlns="http://www.w3.org/2000/svg">
  <path d="M 885.5 868  A 2.5 2.5 0 0 1 888 865.5 L 894 865.5  A 2.5 2.5 0 0 1 896.5 868 L 896.5 874  A 2.5 2.5 0 0 1 894 876.5 L 888 876.5  A 2.5 2.5 0 0 1 885.5 874 L 885.5 868  Z " fill-rule="nonzero" fill="#ffffff" stroke="none" />
  <path d="M 885.5 868  A 2.5 2.5 0 0 1 888 865.5 L 894 865.5  A 2.5 2.5 0 0 1 896.5 868 L 896.5 874  A 2.5 2.5 0 0 1 894 876.5 L 888 876.5  A 2.5 2.5 0 0 1 885.5 874 L 885.5 868  Z " stroke-width="1" stroke="#797979" fill="none" />
</svg>