<?xml version="1.0" encoding="utf-8"?>
<svg version="1.1" xmlns:xlink="http://www.w3.org/1999/xlink" width="12px" height="12px" viewBox="712 1042  12 12" xmlns="http://www.w3.org/2000/svg">
  <path d="M 712.5 1045  A 2.5 2.5 0 0 1 715 1042.5 L 721 1042.5  A 2.5 2.5 0 0 1 723.5 1045 L 723.5 1051  A 2.5 2.5 0 0 1 721 1053.5 L 715 1053.5  A 2.5 2.5 0 0 1 712.5 1051 L 712.5 1045  Z " fill-rule="nonzero" fill="#ffffff" stroke="none" />
  <path d="M 712.5 1045  A 2.5 2.5 0 0 1 715 1042.5 L 721 1042.5  A 2.5 2.5 0 0 1 723.5 1045 L 723.5 1051  A 2.5 2.5 0 0 1 721 1053.5 L 715 1053.5  A 2.5 2.5 0 0 1 712.5 1051 L 712.5 1045  Z " stroke-width="1" stroke="#797979" fill="none" />
</svg>