<?xml version="1.0" encoding="utf-8"?>
<svg version="1.1" xmlns:xlink="http://www.w3.org/1999/xlink" width="12px" height="12px" viewBox="779 1043  12 12" xmlns="http://www.w3.org/2000/svg">
  <path d="M 779.5 1046  A 2.5 2.5 0 0 1 782 1043.5 L 788 1043.5  A 2.5 2.5 0 0 1 790.5 1046 L 790.5 1052  A 2.5 2.5 0 0 1 788 1054.5 L 782 1054.5  A 2.5 2.5 0 0 1 779.5 1052 L 779.5 1046  Z " fill-rule="nonzero" fill="#f0f0f0" stroke="none" />
  <path d="M 779.5 1046  A 2.5 2.5 0 0 1 782 1043.5 L 788 1043.5  A 2.5 2.5 0 0 1 790.5 1046 L 790.5 1052  A 2.5 2.5 0 0 1 788 1054.5 L 782 1054.5  A 2.5 2.5 0 0 1 779.5 1052 L 779.5 1046  Z " stroke-width="1" stroke="#797979" fill="none" />
  <path d="M 781.571428571429 1049  L 784.142857142857 1051.57142857143  " stroke-width="2.57142857142857" stroke="#797979" fill="none" />
  <path d="M 784.142857142857 1051.57142857143  L 788.428571428571 1045.57142857143  " stroke-width="2.57142857142857" stroke="#797979" fill="none" />
</svg>