<?xml version="1.0" encoding="utf-8"?>
<svg version="1.1" xmlns:xlink="http://www.w3.org/1999/xlink" width="12px" height="12px" viewBox="622 1043  12 12" xmlns="http://www.w3.org/2000/svg">
  <path d="M 622.5 1046  A 2.5 2.5 0 0 1 625 1043.5 L 631 1043.5  A 2.5 2.5 0 0 1 633.5 1046 L 633.5 1052  A 2.5 2.5 0 0 1 631 1054.5 L 625 1054.5  A 2.5 2.5 0 0 1 622.5 1052 L 622.5 1046  Z " fill-rule="nonzero" fill="#f0f0f0" stroke="none" />
  <path d="M 622.5 1046  A 2.5 2.5 0 0 1 625 1043.5 L 631 1043.5  A 2.5 2.5 0 0 1 633.5 1046 L 633.5 1052  A 2.5 2.5 0 0 1 631 1054.5 L 625 1054.5  A 2.5 2.5 0 0 1 622.5 1052 L 622.5 1046  Z " stroke-width="1" stroke="#797979" fill="none" />
</svg>