<?xml version="1.0" encoding="utf-8"?>
<svg version="1.1" xmlns:xlink="http://www.w3.org/1999/xlink" width="12px" height="12px" viewBox="785 1595  12 12" xmlns="http://www.w3.org/2000/svg">
  <path d="M 785.5 1598  A 2.5 2.5 0 0 1 788 1595.5 L 794 1595.5  A 2.5 2.5 0 0 1 796.5 1598 L 796.5 1604  A 2.5 2.5 0 0 1 794 1606.5 L 788 1606.5  A 2.5 2.5 0 0 1 785.5 1604 L 785.5 1598  Z " fill-rule="nonzero" fill="#9d41c8" stroke="none" />
  <path d="M 785.5 1598  A 2.5 2.5 0 0 1 788 1595.5 L 794 1595.5  A 2.5 2.5 0 0 1 796.5 1598 L 796.5 1604  A 2.5 2.5 0 0 1 794 1606.5 L 788 1606.5  A 2.5 2.5 0 0 1 785.5 1604 L 785.5 1598  Z " stroke-width="1" stroke="#ffffff" fill="none" />
  <path d="M 787.571428571429 1601  L 790.142857142857 1603.57142857143  " stroke-width="2.57142857142857" stroke="#ffffff" fill="none" />
  <path d="M 790.142857142857 1603.57142857143  L 794.428571428571 1597.57142857143  " stroke-width="2.57142857142857" stroke="#ffffff" fill="none" />
</svg>