<?xml version="1.0" encoding="utf-8"?>
<svg version="1.1" xmlns:xlink="http://www.w3.org/1999/xlink" width="12px" height="12px" viewBox="1840 1603  12 12" xmlns="http://www.w3.org/2000/svg">
  <path d="M 1840.5 1606  A 2.5 2.5 0 0 1 1843 1603.5 L 1849 1603.5  A 2.5 2.5 0 0 1 1851.5 1606 L 1851.5 1612  A 2.5 2.5 0 0 1 1849 1614.5 L 1843 1614.5  A 2.5 2.5 0 0 1 1840.5 1612 L 1840.5 1606  Z " fill-rule="nonzero" fill="#f0f0f0" stroke="none" />
  <path d="M 1840.5 1606  A 2.5 2.5 0 0 1 1843 1603.5 L 1849 1603.5  A 2.5 2.5 0 0 1 1851.5 1606 L 1851.5 1612  A 2.5 2.5 0 0 1 1849 1614.5 L 1843 1614.5  A 2.5 2.5 0 0 1 1840.5 1612 L 1840.5 1606  Z " stroke-width="1" stroke="#797979" fill="none" />
</svg>