<?xml version="1.0" encoding="utf-8"?>
<svg version="1.1" xmlns:xlink="http://www.w3.org/1999/xlink" width="12px" height="12px" viewBox="1840 1564  12 12" xmlns="http://www.w3.org/2000/svg">
  <path d="M 1840.5 1567  A 2.5 2.5 0 0 1 1843 1564.5 L 1849 1564.5  A 2.5 2.5 0 0 1 1851.5 1567 L 1851.5 1573  A 2.5 2.5 0 0 1 1849 1575.5 L 1843 1575.5  A 2.5 2.5 0 0 1 1840.5 1573 L 1840.5 1567  Z " fill-rule="nonzero" fill="#9d41c8" stroke="none" />
  <path d="M 1840.5 1567  A 2.5 2.5 0 0 1 1843 1564.5 L 1849 1564.5  A 2.5 2.5 0 0 1 1851.5 1567 L 1851.5 1573  A 2.5 2.5 0 0 1 1849 1575.5 L 1843 1575.5  A 2.5 2.5 0 0 1 1840.5 1573 L 1840.5 1567  Z " stroke-width="1" stroke="#ffffff" fill="none" />
  <path d="M 1842.57142857143 1570  L 1845.14285714286 1572.57142857143  " stroke-width="2.57142857142857" stroke="#ffffff" fill="none" />
  <path d="M 1845.14285714286 1572.57142857143  L 1849.42857142857 1566.57142857143  " stroke-width="2.57142857142857" stroke="#ffffff" fill="none" />
</svg>